<svg id="svg" version="1.1" xmlns="http://www.w3.org/2000/svg" xmlns:xlink="http://www.w3.org/1999/xlink" width="400" height="400" viewBox="0, 0, 400,400"><g id="svgg"><path id="path0" d="M190.741 163.148 L 190.741 240.741 268.148 240.741 L 345.556 240.741 345.530 194.167 C 345.515 165.101,345.376 147.871,345.160 148.333 C 344.971 148.741,338.830 166.324,331.515 187.407 L 318.215 225.741 310.774 225.841 C 304.168 225.930,303.333 225.875,303.333 225.350 C 303.333 225.026,304.248 211.230,305.365 194.695 C 306.483 178.159,307.489 163.046,307.600 161.111 L 307.804 157.593 307.090 159.266 C 306.485 160.685,301.225 175.444,286.107 218.148 L 283.419 225.741 275.917 225.841 L 268.415 225.942 268.635 223.619 C 268.756 222.341,270.956 193.880,273.524 160.370 C 276.093 126.861,278.270 99.069,278.363 98.611 L 278.533 97.778 287.229 97.778 C 295.402 97.778,295.926 97.818,295.926 98.454 C 295.926 99.933,289.612 163.304,289.245 165.506 C 288.828 168.008,288.902 168.364,289.772 168.031 C 290.115 167.899,294.610 154.895,301.918 132.892 L 313.519 97.963 320.463 97.862 C 324.282 97.807,327.407 97.865,327.407 97.992 C 327.407 98.119,325.991 113.640,324.259 132.483 C 322.528 151.326,321.111 167.060,321.111 167.446 C 321.111 168.798,322.086 168.132,322.659 166.389 C 322.977 165.421,328.101 149.630,334.045 131.296 C 339.990 112.963,345.011 97.805,345.205 97.611 C 345.398 97.418,345.556 94.626,345.556 91.407 L 345.556 85.556 268.148 85.556 L 190.741 85.556 190.741 163.148 M256.822 97.366 C 268.309 101.480,271.164 111.879,266.545 132.778 L 264.581 141.667 255.927 141.766 C 251.167 141.821,247.161 141.738,247.025 141.581 C 246.888 141.424,247.660 137.296,248.739 132.407 C 249.869 127.292,250.707 122.575,250.713 121.296 C 250.758 112.437,241.362 112.567,237.969 121.473 C 236.397 125.598,221.011 198.515,220.969 202.037 C 220.911 206.926,222.074 208.526,225.678 208.510 C 231.501 208.486,233.236 205.679,236.096 191.667 C 237.052 186.981,237.916 182.856,238.016 182.500 C 238.218 181.780,255.926 181.469,255.926 182.185 C 255.926 184.045,251.870 201.312,250.699 204.438 C 244.740 220.343,231.972 228.981,217.219 227.090 C 206.140 225.670,199.991 216.392,201.475 203.333 C 201.988 198.820,217.908 123.680,219.129 120.011 C 223.235 107.671,232.601 98.723,243.704 96.535 C 246.163 96.050,254.648 96.588,256.822 97.366 " stroke="none" fill="#e2e2e3" fill-rule="evenodd"></path><path id="path1" d="M98.148 303.704 L 98.148 310.370 99.630 310.370 L 101.111 310.370 101.111 303.704 L 101.111 297.037 99.630 297.037 L 98.148 297.037 98.148 303.704 M133.189 297.619 C 133.066 297.940,133.143 298.533,133.360 298.938 C 134.136 300.389,136.772 299.180,136.182 297.643 C 135.870 296.830,133.499 296.811,133.189 297.619 M197.477 298.241 C 197.608 299.606,199.376 300.013,200.111 298.847 C 200.762 297.815,200.152 297.037,198.692 297.037 C 197.413 297.037,197.365 297.084,197.477 298.241 M238.519 303.704 L 238.519 310.370 240.000 310.370 L 241.481 310.370 241.481 303.704 L 241.481 297.037 240.000 297.037 L 238.519 297.037 238.519 303.704 M257.152 297.643 C 256.793 298.578,257.559 299.444,258.744 299.444 C 259.681 299.444,259.829 299.294,259.931 298.241 C 260.065 296.855,257.653 296.336,257.152 297.643 M160.168 298.316 C 159.156 299.329,158.989 300.854,159.718 302.453 C 160.084 303.258,160.083 303.491,159.710 303.615 C 158.089 304.156,157.717 307.699,159.093 309.502 C 160.035 310.737,163.272 311.369,163.851 310.431 C 163.957 310.261,164.966 310.198,166.095 310.292 C 168.309 310.475,168.497 310.289,167.457 308.938 C 166.868 308.171,166.841 307.893,167.244 306.716 C 168.191 303.952,168.112 303.519,166.667 303.519 C 165.511 303.519,165.357 303.635,165.248 304.593 L 165.125 305.667 164.444 304.629 C 163.774 303.607,163.776 303.579,164.566 302.939 C 165.683 302.034,165.725 298.818,164.630 297.991 C 163.443 297.094,161.230 297.255,160.168 298.316 M223.573 298.316 C 221.781 299.976,222.133 302.610,224.444 304.850 C 227.330 307.646,226.518 309.060,222.870 307.589 C 221.883 307.191,221.948 309.827,222.939 310.357 C 227.828 312.974,231.666 306.183,227.012 303.148 C 224.765 301.683,224.682 299.761,226.882 300.118 C 227.876 300.280,228.204 300.155,228.675 299.436 C 229.944 297.500,225.505 296.525,223.573 298.316 M85.556 304.074 L 85.556 310.370 88.727 310.370 L 91.899 310.370 91.783 309.167 C 91.674 308.037,91.570 307.956,90.093 307.849 C 87.701 307.676,87.615 305.185,90.000 305.185 C 91.446 305.185,91.481 305.154,91.481 303.889 C 91.481 302.623,91.446 302.593,90.000 302.593 C 88.554 302.593,88.519 302.562,88.519 301.296 C 88.519 300.007,88.527 300.000,90.185 300.000 C 91.790 300.000,91.852 299.959,91.852 298.889 L 91.852 297.778 88.704 297.778 L 85.556 297.778 85.556 304.074 M173.333 304.113 L 173.333 310.449 176.204 310.317 C 180.145 310.136,181.852 308.159,181.852 303.775 C 181.852 299.742,179.893 297.792,175.833 297.783 L 173.333 297.778 173.333 304.113 M252.379 299.722 C 252.235 300.181,251.807 300.825,251.429 301.155 C 250.597 301.879,250.524 302.963,251.306 302.963 C 251.773 302.963,251.862 303.513,251.818 306.126 C 251.747 310.299,253.076 311.669,256.081 310.516 C 257.160 310.102,256.850 308.027,255.741 308.239 C 254.821 308.415,254.815 308.398,254.815 305.689 C 254.815 303.210,254.882 302.963,255.556 302.963 C 256.132 302.963,256.296 302.716,256.296 301.852 C 256.296 300.988,256.132 300.741,255.556 300.741 C 255.012 300.741,254.815 300.494,254.815 299.815 C 254.815 298.527,252.781 298.450,252.379 299.722 M162.896 300.833 C 162.831 301.292,162.611 301.667,162.407 301.667 C 162.204 301.667,161.984 301.292,161.919 300.833 C 161.837 300.260,161.990 300.000,162.407 300.000 C 162.825 300.000,162.978 300.260,162.896 300.833 M177.933 300.708 C 179.331 302.252,178.581 307.778,176.974 307.778 C 176.360 307.778,176.296 307.411,176.296 303.889 C 176.296 299.759,176.579 299.211,177.933 300.708 M103.946 300.790 C 102.352 301.717,101.380 305.747,102.218 307.953 C 103.466 311.233,109.259 311.993,109.259 308.876 C 109.259 307.700,108.910 307.542,107.719 308.180 C 106.533 308.814,105.185 308.301,105.185 307.215 C 105.185 306.339,105.289 306.296,107.407 306.296 L 109.630 306.296 109.630 305.024 C 109.630 301.468,106.628 299.231,103.946 300.790 M111.389 300.770 C 109.818 301.685,110.904 303.663,112.593 302.963 C 113.587 302.551,113.824 302.556,114.103 302.996 C 114.738 303.999,114.432 304.350,112.758 304.538 C 108.802 304.984,108.643 310.675,112.593 310.468 C 113.509 310.420,114.989 310.387,115.881 310.394 L 117.502 310.406 117.339 306.152 C 117.188 302.195,117.113 301.846,116.273 301.147 C 115.281 300.321,112.525 300.109,111.389 300.770 M121.713 300.633 C 121.568 300.778,120.790 300.848,119.984 300.790 L 118.519 300.684 118.519 305.527 L 118.519 310.370 120.000 310.370 L 121.481 310.370 121.481 307.438 C 121.481 303.901,121.666 303.333,122.817 303.333 C 123.413 303.333,123.705 303.120,123.709 302.685 C 123.712 302.329,123.814 301.662,123.937 301.204 C 124.162 300.363,122.428 299.918,121.713 300.633 M127.639 300.633 C 127.494 300.778,126.716 300.848,125.910 300.790 L 124.444 300.684 124.444 305.527 L 124.444 310.370 125.689 310.370 L 126.934 310.370 127.124 307.039 C 127.463 301.096,129.259 301.155,129.259 307.108 L 129.259 310.370 130.741 310.370 L 132.222 310.370 132.213 307.315 C 132.203 303.658,131.754 301.485,130.875 300.843 C 130.183 300.337,128.072 300.199,127.639 300.633 M140.582 300.952 C 140.262 301.272,140.000 301.356,140.000 301.138 C 140.000 300.919,139.417 300.741,138.704 300.741 L 137.407 300.741 137.407 305.556 L 137.407 310.370 138.889 310.370 L 140.370 310.370 140.376 307.130 C 140.382 303.674,140.678 302.718,141.629 303.083 C 142.116 303.269,142.222 303.945,142.222 306.840 L 142.222 310.370 143.704 310.370 L 145.185 310.370 145.184 306.574 C 145.182 301.120,143.036 298.499,140.582 300.952 M147.107 301.222 C 145.956 302.447,145.689 304.213,146.474 305.411 C 147.021 306.245,147.043 306.519,146.630 307.290 C 146.267 307.969,146.249 308.359,146.560 308.856 C 146.892 309.388,146.825 309.646,146.222 310.163 C 144.180 311.911,146.083 314.450,149.423 314.433 C 154.460 314.406,155.753 308.184,150.755 308.017 C 148.913 307.956,148.130 307.037,149.919 307.037 C 151.664 307.037,152.963 305.770,152.963 304.069 C 152.963 303.281,153.130 302.533,153.333 302.407 C 154.438 301.725,153.662 300.839,151.759 300.610 C 148.624 300.234,147.952 300.322,147.107 301.222 M184.145 301.050 C 179.861 304.765,184.057 312.956,188.913 310.357 C 190.032 309.758,189.926 307.628,188.796 308.008 C 187.155 308.561,186.164 308.370,185.676 307.407 L 185.207 306.481 187.652 306.371 L 190.098 306.260 189.861 304.149 C 189.481 300.766,186.398 299.095,184.145 301.050 M191.234 301.324 C 190.026 302.533,190.176 304.905,191.521 305.847 C 194.401 307.864,194.071 309.254,191.019 307.971 C 190.473 307.742,190.370 307.903,190.370 308.995 C 190.370 310.464,190.789 310.741,193.006 310.741 C 196.631 310.741,197.730 307.113,194.815 304.770 C 193.282 303.538,192.809 302.358,193.981 302.689 C 194.338 302.790,194.868 302.935,195.158 303.010 C 195.951 303.217,196.624 301.175,195.912 300.725 C 194.761 299.996,192.240 300.319,191.234 301.324 M202.386 301.284 C 201.512 302.158,201.434 302.454,201.621 304.184 C 202.048 308.132,201.983 309.611,201.353 310.308 C 200.521 311.227,200.583 312.654,201.496 313.634 C 202.695 314.921,206.729 314.815,207.981 313.464 C 209.807 311.494,208.968 308.140,206.638 308.094 C 204.203 308.046,203.123 307.037,205.507 307.037 C 207.131 307.037,207.895 306.222,208.126 304.242 C 208.531 300.771,209.226 301.879,209.339 306.177 L 209.444 310.185 211.019 310.299 L 212.593 310.413 212.593 306.918 C 212.593 304.447,212.738 303.303,213.090 303.012 C 213.915 302.326,214.074 302.925,214.074 306.728 L 214.074 310.370 215.556 310.370 L 217.037 310.370 217.037 306.176 C 217.037 302.270,216.978 301.926,216.180 301.176 C 215.336 300.383,213.199 300.060,212.823 300.668 C 212.626 300.986,210.347 300.947,206.032 300.554 C 203.486 300.321,203.314 300.356,202.386 301.284 M230.768 301.751 C 229.550 303.229,229.190 306.202,229.977 308.274 C 231.209 311.513,235.899 311.623,237.009 308.439 C 239.001 302.726,234.202 297.585,230.768 301.751 M262.261 301.680 C 259.527 304.793,261.296 310.757,264.946 310.729 C 267.629 310.708,268.889 309.077,268.889 305.623 C 268.889 300.759,265.066 298.485,262.261 301.680 M273.194 300.633 C 273.050 300.778,272.272 300.848,271.466 300.790 L 270.000 300.684 270.000 305.527 L 270.000 310.370 271.481 310.370 L 272.963 310.370 272.963 307.824 C 272.963 304.654,273.286 302.963,273.892 302.963 C 274.553 302.963,274.804 304.202,274.810 307.500 L 274.815 310.370 276.296 310.370 L 277.778 310.370 277.778 306.346 C 277.778 301.494,277.227 300.370,274.850 300.370 C 274.084 300.370,273.339 300.489,273.194 300.633 M279.494 301.138 C 277.865 302.419,278.216 304.895,280.222 306.269 C 282.208 307.631,281.408 308.924,279.167 307.973 C 278.620 307.742,278.519 307.902,278.519 308.995 C 278.519 310.478,278.939 310.746,281.234 310.729 C 284.798 310.702,285.676 307.347,282.808 304.713 C 280.938 302.996,280.934 302.456,282.795 302.805 C 283.850 303.003,283.995 302.923,284.161 302.056 C 284.497 300.299,281.348 299.680,279.494 301.138 M133.333 305.556 L 133.333 310.370 134.630 310.370 L 135.926 310.370 135.926 305.556 L 135.926 300.741 134.630 300.741 L 133.333 300.741 133.333 305.556 M197.407 305.556 L 197.407 310.370 198.889 310.370 L 200.370 310.370 200.370 305.556 L 200.370 300.741 198.889 300.741 L 197.407 300.741 197.407 305.556 M242.593 304.935 C 242.593 308.841,242.652 309.186,243.450 309.935 C 244.290 310.724,246.594 311.060,247.176 310.478 C 247.321 310.334,248.099 310.263,248.905 310.321 L 250.370 310.427 250.370 305.584 L 250.370 300.741 248.889 300.741 L 247.407 300.741 247.366 303.056 C 247.305 306.469,247.089 307.887,246.583 308.200 C 245.810 308.677,245.567 307.717,245.561 304.167 L 245.556 300.741 244.074 300.741 L 242.593 300.741 242.593 304.935 M257.037 305.556 L 257.037 310.370 258.519 310.370 L 260.000 310.370 260.000 305.556 L 260.000 300.741 258.519 300.741 L 257.037 300.741 257.037 305.556 M149.930 303.611 C 149.803 305.142,149.145 305.498,148.952 304.140 C 148.801 303.072,149.106 302.222,149.640 302.222 C 149.881 302.222,149.998 302.784,149.930 303.611 M205.185 303.704 C 205.185 305.269,204.655 305.692,204.259 304.444 C 203.985 303.580,204.340 302.222,204.840 302.222 C 205.030 302.222,205.185 302.889,205.185 303.704 M106.296 302.933 C 106.296 303.120,106.397 303.536,106.521 303.859 C 106.682 304.279,106.525 304.444,105.966 304.444 C 105.206 304.444,104.862 303.410,105.432 302.840 C 105.790 302.482,106.296 302.537,106.296 302.933 M186.812 303.178 C 187.201 304.193,187.064 304.444,186.119 304.444 C 185.274 304.444,185.235 304.371,185.623 303.519 C 186.109 302.452,186.492 302.343,186.812 303.178 M234.476 304.354 C 234.851 306.191,234.374 307.963,233.503 307.963 C 232.760 307.963,232.236 304.797,232.756 303.443 C 233.116 302.503,234.216 303.086,234.476 304.354 M265.851 305.471 C 265.941 307.348,265.846 307.832,265.351 308.022 C 264.522 308.340,264.087 307.538,264.080 305.678 C 264.066 302.027,265.678 301.838,265.851 305.471 M92.290 305.631 L 92.407 306.852 94.932 306.962 L 97.457 307.072 97.340 305.851 L 97.222 304.630 94.697 304.520 L 92.173 304.409 92.290 305.631 M162.365 306.468 C 163.187 307.723,163.114 308.221,162.130 308.081 C 161.491 307.991,161.269 307.682,161.180 306.759 C 161.042 305.327,161.537 305.206,162.365 306.468 M114.444 306.963 C 114.444 307.650,113.783 308.519,113.259 308.519 C 112.902 308.519,112.861 306.892,113.210 306.543 C 113.698 306.055,114.444 306.309,114.444 306.963 M150.525 310.595 C 151.412 310.935,151.227 311.826,150.188 312.221 C 148.579 312.833,147.514 311.894,148.593 310.815 C 149.086 310.321,149.646 310.258,150.525 310.595 M205.710 310.595 C 206.645 310.954,206.413 312.113,205.353 312.379 C 204.214 312.665,203.704 312.400,203.704 311.521 C 203.704 310.420,204.408 310.095,205.710 310.595 " stroke="none" fill="#7c8493" fill-rule="evenodd"></path><path id="path2" d="M101.217 86.624 C 83.665 92.734,80.586 116.283,96.000 126.530 C 113.107 137.904,134.841 123.030,130.569 102.872 C 127.882 90.194,113.628 82.304,101.217 86.624 M243.603 97.051 C 232.719 98.882,222.952 108.513,219.087 121.229 C 218.095 124.494,202.488 197.741,201.869 202.037 C 199.916 215.607,206.015 225.322,217.344 226.683 C 232.123 228.460,244.448 220.135,250.347 204.390 C 251.437 201.479,255.556 184.064,255.556 182.364 C 255.556 182.278,251.691 182.253,246.968 182.308 L 238.381 182.407 237.751 185.370 C 237.405 187.000,236.509 191.250,235.760 194.815 C 233.453 205.796,231.208 208.917,225.553 209.002 C 221.160 209.069,219.564 205.019,221.057 197.593 C 224.899 178.477,236.882 123.354,237.611 121.441 C 241.078 112.342,251.111 111.968,251.111 120.938 C 251.111 122.303,248.008 137.994,247.177 140.833 C 247.000 141.438,247.573 141.481,255.626 141.481 L 264.264 141.481 266.279 132.130 C 267.914 124.538,268.321 121.941,268.443 118.333 C 268.965 102.794,259.200 94.428,243.603 97.051 M345.177 98.241 C 344.978 98.699,340.892 111.241,336.096 126.111 C 321.463 171.488,322.253 169.264,320.946 168.762 C 320.551 168.611,320.417 168.253,320.545 167.693 C 320.652 167.231,322.072 152.185,323.701 134.259 C 325.330 116.333,326.763 100.875,326.885 99.907 L 327.107 98.148 320.420 98.148 L 313.734 98.148 302.456 132.130 C 289.881 170.017,290.286 168.889,289.254 168.889 C 288.406 168.889,288.371 168.551,288.890 165.401 C 289.203 163.502,295.556 99.809,295.556 98.568 C 295.556 98.267,293.141 98.148,287.037 98.148 L 278.519 98.148 278.519 99.202 C 278.519 99.781,276.352 128.192,273.704 162.336 C 271.056 196.481,268.889 224.674,268.889 224.987 C 268.889 225.479,269.855 225.556,276.033 225.556 L 283.176 225.556 284.137 222.685 C 285.488 218.650,303.365 168.237,305.503 162.431 C 307.730 156.385,308.363 155.970,308.014 160.783 C 307.375 169.609,303.704 224.146,303.704 224.816 C 303.704 225.554,303.872 225.569,310.816 225.471 L 317.928 225.370 320.194 218.889 C 321.440 215.324,327.514 197.824,333.690 180.000 C 339.866 162.176,345.121 147.426,345.366 147.222 C 345.612 147.019,349.577 136.019,354.178 122.778 C 358.780 109.537,362.656 98.412,362.793 98.056 C 363.239 96.895,345.682 97.079,345.177 98.241 M148.915 108.367 C 143.064 109.940,137.634 114.404,134.314 120.370 C 125.824 135.626,110.139 140.766,94.764 133.331 C 81.824 127.073,67.192 132.926,62.759 146.131 C 56.437 164.966,75.926 182.153,93.878 173.575 C 98.698 171.272,101.331 168.477,105.502 161.239 C 113.267 147.761,128.579 143.449,144.184 150.346 C 158.563 156.701,173.080 149.888,176.848 135.015 C 180.915 118.964,165.214 103.985,148.915 108.367 M124.861 153.177 C 119.108 154.724,113.075 159.713,110.044 165.428 C 102.089 180.432,86.321 185.695,70.776 178.535 C 54.094 170.852,37.778 180.666,37.778 198.383 C 37.778 221.874,68.973 229.672,79.777 208.882 C 87.768 193.504,103.745 187.672,118.881 194.607 C 129.860 199.637,138.641 198.407,146.335 190.762 C 162.332 174.863,146.601 147.330,124.861 153.177 M102.407 198.186 C 84.109 200.808,76.787 223.390,90.041 236.325 C 100.439 246.472,117.211 244.774,124.768 232.808 C 135.157 216.358,121.641 195.431,102.407 198.186 M42.593 263.276 C 32.129 268.306,35.213 284.444,46.639 284.444 C 50.222 284.444,53.502 282.850,54.921 280.419 L 55.582 279.285 54.180 278.411 C 53.409 277.931,52.274 277.244,51.658 276.886 L 50.538 276.236 49.132 277.562 C 46.640 279.912,43.801 278.739,42.966 275.015 C 41.832 269.954,45.810 266.342,49.100 269.444 C 50.771 271.021,50.374 271.046,52.997 269.206 C 55.489 267.457,55.419 267.610,54.458 266.035 C 52.609 263.001,46.243 261.521,42.593 263.276 M59.630 273.519 L 59.630 284.444 62.778 284.444 L 65.926 284.444 65.926 281.111 C 65.926 277.277,66.817 276.483,68.346 278.955 C 68.746 279.603,69.447 280.728,69.903 281.455 C 70.360 282.183,70.897 283.153,71.098 283.611 C 71.615 284.791,78.519 284.920,78.519 283.749 C 78.519 283.367,78.269 282.846,77.963 282.593 C 77.657 282.339,77.407 281.988,77.407 281.813 C 77.407 281.638,76.741 280.405,75.926 279.074 C 74.183 276.227,74.193 276.291,75.330 275.224 C 77.374 273.303,77.564 268.481,75.700 265.838 C 73.695 262.997,72.546 262.627,65.648 262.609 L 59.630 262.593 59.630 273.519 M82.593 273.519 L 82.593 284.444 90.572 284.444 L 98.551 284.444 98.442 281.759 L 98.333 279.074 93.796 278.970 L 89.259 278.866 89.259 277.396 L 89.259 275.926 93.148 275.926 L 97.037 275.926 97.037 273.333 L 97.037 270.741 93.148 270.741 L 89.259 270.741 89.259 269.444 L 89.259 268.148 93.704 268.148 L 98.148 268.148 98.148 265.370 L 98.148 262.593 90.370 262.593 L 82.593 262.593 82.593 273.519 M108.562 263.796 C 108.220 264.938,106.922 268.468,105.192 272.963 C 103.677 276.902,101.111 284.041,101.111 284.319 C 101.111 284.388,102.667 284.444,104.569 284.444 L 108.027 284.444 108.645 282.222 L 109.262 280.000 111.612 280.000 L 113.962 280.000 114.556 281.389 C 114.883 282.153,115.202 283.111,115.265 283.519 C 115.382 284.282,122.222 284.930,122.222 284.178 C 122.222 283.727,121.621 281.883,120.741 279.630 C 120.303 278.509,119.803 277.176,119.630 276.667 C 119.456 276.157,118.961 274.824,118.529 273.704 C 118.097 272.583,117.398 270.667,116.975 269.444 C 116.553 268.222,115.997 266.722,115.740 266.111 C 115.482 265.500,115.066 264.458,114.813 263.796 L 114.355 262.593 111.639 262.593 L 108.924 262.593 108.562 263.796 M122.593 265.370 L 122.593 268.148 125.556 268.148 L 128.519 268.148 128.519 276.296 L 128.519 284.444 131.852 284.444 L 135.185 284.444 135.185 276.296 L 135.185 268.148 138.148 268.148 L 141.111 268.148 141.111 265.370 L 141.111 262.593 131.852 262.593 L 122.593 262.593 122.593 265.370 M145.185 273.519 L 145.185 284.444 148.333 284.444 L 151.481 284.444 151.481 273.519 L 151.481 262.593 148.333 262.593 L 145.185 262.593 145.185 273.519 M155.185 262.690 C 155.185 262.744,155.531 263.703,155.954 264.820 C 156.376 265.938,156.864 267.269,157.037 267.778 C 157.210 268.287,157.710 269.620,158.148 270.741 C 158.586 271.861,159.086 273.194,159.259 273.704 C 159.432 274.213,159.930 275.546,160.364 276.667 C 160.798 277.787,161.597 279.995,162.139 281.574 L 163.125 284.444 165.945 284.444 L 168.765 284.444 169.171 283.241 C 169.960 280.903,170.765 278.695,171.095 277.963 C 171.278 277.556,171.766 276.222,172.178 275.000 C 172.591 273.778,173.277 271.861,173.702 270.741 C 174.128 269.620,174.868 267.620,175.347 266.296 C 175.825 264.972,176.336 263.597,176.482 263.241 C 176.722 262.650,176.431 262.593,173.195 262.593 L 169.644 262.593 169.416 263.611 C 169.291 264.171,168.970 265.296,168.702 266.111 C 168.434 266.926,167.757 269.211,167.198 271.190 C 165.912 275.743,165.968 275.772,164.196 269.630 C 163.873 268.509,163.396 266.926,163.136 266.111 C 162.876 265.296,162.561 264.171,162.436 263.611 L 162.208 262.593 158.697 262.593 C 156.765 262.593,155.185 262.637,155.185 262.690 M180.000 273.519 L 180.000 284.444 187.979 284.444 L 195.958 284.444 195.850 281.759 L 195.741 279.074 191.204 278.970 L 186.667 278.866 186.667 277.396 L 186.667 275.926 190.556 275.926 L 194.444 275.926 194.444 273.333 L 194.444 270.741 190.556 270.741 L 186.667 270.741 186.667 269.444 L 186.667 268.148 191.111 268.148 L 195.556 268.148 195.556 265.370 L 195.556 262.593 187.778 262.593 L 180.000 262.593 180.000 273.519 M207.778 262.690 C 207.778 262.744,208.125 263.703,208.550 264.820 C 208.974 265.938,209.420 267.181,209.540 267.583 C 209.661 267.984,209.979 268.734,210.248 269.249 C 210.516 269.764,210.737 270.327,210.738 270.500 C 210.740 270.672,210.976 271.339,211.264 271.981 C 211.552 272.623,212.320 274.565,212.971 276.296 C 213.622 278.028,214.368 279.944,214.629 280.556 C 214.890 281.167,215.372 282.299,215.701 283.072 L 216.300 284.477 218.956 284.368 L 221.612 284.259 222.900 281.013 C 223.608 279.228,224.278 277.858,224.389 277.969 C 224.499 278.080,225.126 279.540,225.780 281.215 L 226.970 284.259 229.689 284.363 L 232.407 284.467 234.188 279.919 C 235.167 277.417,236.192 274.787,236.464 274.074 C 236.737 273.361,237.495 271.444,238.148 269.815 C 241.361 261.800,241.451 262.593,237.320 262.593 L 233.849 262.593 232.886 265.648 C 232.356 267.329,231.381 270.451,230.720 272.586 L 229.518 276.469 229.006 274.711 C 228.447 272.796,228.492 272.559,230.497 266.852 C 232.159 262.120,232.329 262.593,228.959 262.593 C 225.643 262.593,225.842 262.409,224.716 266.481 L 224.204 268.333 223.790 266.468 C 222.909 262.504,223.005 262.593,219.599 262.593 C 216.882 262.593,216.612 262.656,216.839 263.241 C 217.531 265.026,220.000 272.728,219.998 273.096 C 219.997 273.328,219.811 274.184,219.585 274.997 L 219.175 276.476 218.715 275.183 C 218.462 274.471,218.078 273.306,217.862 272.593 C 217.646 271.880,216.852 269.338,216.096 266.944 L 214.722 262.593 211.250 262.593 C 209.340 262.593,207.778 262.637,207.778 262.690 M244.242 263.061 C 244.143 263.318,244.106 268.193,244.161 273.894 L 244.259 284.259 247.500 284.366 L 250.741 284.473 250.741 273.533 L 250.741 262.593 247.581 262.593 C 245.377 262.593,244.367 262.734,244.242 263.061 M255.926 265.370 L 255.926 268.148 260.401 268.148 L 264.877 268.148 263.652 269.722 C 262.978 270.588,262.333 271.380,262.219 271.481 C 262.105 271.583,261.359 272.500,260.562 273.519 C 259.764 274.537,258.937 275.537,258.723 275.741 C 256.369 277.979,255.556 279.590,255.556 282.007 L 255.556 284.444 264.275 284.444 L 272.995 284.444 272.887 281.759 L 272.778 279.074 268.426 278.970 C 266.032 278.912,264.074 278.776,264.074 278.667 C 264.074 278.476,265.898 275.934,266.307 275.556 C 266.417 275.454,267.876 273.585,269.550 271.403 L 272.593 267.436 272.593 265.014 L 272.593 262.593 264.259 262.593 L 255.926 262.593 255.926 265.370 M283.180 263.796 C 282.898 264.458,282.419 265.667,282.116 266.481 C 281.813 267.296,281.312 268.630,281.003 269.444 C 278.381 276.362,275.556 284.049,275.556 284.268 C 275.556 284.365,277.060 284.444,278.898 284.444 C 282.590 284.444,282.611 284.429,283.302 281.296 C 283.543 280.203,283.588 280.183,286.174 280.077 L 288.801 279.969 289.053 281.314 C 289.624 284.360,289.743 284.444,293.436 284.444 C 297.232 284.444,297.112 284.654,295.565 280.741 C 295.122 279.620,294.615 278.287,294.438 277.778 C 294.106 276.822,293.564 275.371,292.223 271.852 C 291.796 270.731,291.110 268.815,290.698 267.593 C 290.287 266.370,289.670 264.747,289.327 263.986 L 288.704 262.601 286.198 262.597 C 283.721 262.593,283.686 262.607,283.180 263.796 M300.168 263.061 C 300.069 263.318,300.032 268.193,300.087 273.894 L 300.185 284.259 303.426 284.366 L 306.667 284.473 306.667 281.101 L 306.667 277.729 307.633 277.846 C 308.318 277.929,308.836 278.394,309.413 279.444 C 309.860 280.259,310.716 281.718,311.314 282.685 L 312.402 284.444 316.016 284.444 C 318.003 284.444,319.630 284.358,319.630 284.252 C 319.630 284.146,319.213 283.399,318.704 282.593 C 318.194 281.786,317.778 281.054,317.778 280.966 C 317.778 280.877,317.194 279.920,316.481 278.837 C 315.024 276.625,314.937 276.222,315.768 275.533 C 319.266 272.630,318.096 265.769,313.709 263.465 C 311.744 262.433,300.537 262.098,300.168 263.061 M323.333 273.519 L 323.333 284.444 328.856 284.444 C 338.784 284.444,342.963 281.208,342.963 273.519 C 342.963 265.829,338.784 262.593,328.856 262.593 L 323.333 262.593 323.333 273.519 M351.048 263.261 C 344.523 266.352,345.325 273.916,352.407 276.080 C 355.265 276.954,356.452 277.584,356.601 278.308 C 356.847 279.501,353.135 278.920,350.082 277.286 C 348.545 276.464,348.435 276.544,347.037 279.503 C 345.695 282.342,345.689 282.330,349.047 283.548 C 355.659 285.948,362.076 284.344,363.544 279.925 C 365.035 275.435,363.031 272.723,356.769 270.754 C 353.762 269.809,353.022 269.238,353.880 268.526 C 354.589 267.937,356.288 268.252,358.695 269.418 C 359.709 269.909,360.644 270.245,360.773 270.165 C 360.968 270.045,363.333 265.335,363.333 265.068 C 363.333 264.912,360.941 263.783,359.344 263.185 C 357.200 262.382,352.820 262.422,351.048 263.261 M69.926 268.593 C 71.454 270.121,69.996 272.593,67.566 272.593 L 65.926 272.593 65.926 270.370 L 65.926 268.148 67.704 268.148 C 68.681 268.148,69.681 268.348,69.926 268.593 M310.667 268.593 C 312.163 270.089,310.667 272.593,308.276 272.593 L 306.667 272.593 306.667 270.370 L 306.667 268.148 308.444 268.148 C 309.422 268.148,310.422 268.348,310.667 268.593 M334.257 268.887 C 338.406 271.452,336.368 278.889,331.517 278.889 L 330.000 278.889 330.000 273.519 L 330.000 268.148 331.530 268.148 C 332.413 268.148,333.567 268.461,334.257 268.887 M286.986 273.426 L 287.678 275.926 286.078 275.926 L 284.477 275.926 284.962 274.537 C 285.229 273.773,285.576 272.481,285.734 271.667 C 286.055 270.010,286.031 269.976,286.986 273.426 M112.864 274.720 C 113.056 275.899,113.030 275.926,111.686 275.926 C 110.170 275.926,110.132 275.632,111.200 272.222 L 111.606 270.926 112.137 272.220 C 112.429 272.932,112.757 274.057,112.864 274.720 " stroke="none" fill="#0c6cac" fill-rule="evenodd"></path><path id="path3" d="M287.104 98.052 C 294.185 98.144,295.531 98.249,295.677 98.718 C 295.795 99.095,295.831 99.064,295.791 98.618 C 295.736 98.012,295.088 97.962,287.217 97.953 L 278.704 97.942 287.104 98.052 M315.926 98.031 C 321.850 98.298,327.324 98.310,327.166 98.056 C 327.071 97.903,323.961 97.810,320.256 97.850 C 316.550 97.890,314.602 97.972,315.926 98.031 M326.760 101.296 C 326.764 102.111,326.840 102.401,326.929 101.940 C 327.017 101.479,327.014 100.813,326.921 100.459 C 326.828 100.105,326.756 100.481,326.760 101.296 M295.271 101.852 C 295.271 102.565,295.347 102.856,295.440 102.500 C 295.534 102.144,295.534 101.560,295.440 101.204 C 295.347 100.847,295.271 101.139,295.271 101.852 M262.593 101.227 C 262.593 101.291,263.134 101.832,263.796 102.431 L 265.000 103.519 263.912 102.315 C 262.898 101.193,262.593 100.941,262.593 101.227 M326.382 105.185 C 326.382 105.898,326.458 106.190,326.552 105.833 C 326.645 105.477,326.645 104.894,326.552 104.537 C 326.458 104.181,326.382 104.472,326.382 105.185 M294.908 105.741 C 294.912 106.556,294.988 106.845,295.077 106.385 C 295.165 105.924,295.162 105.257,295.069 104.903 C 294.977 104.549,294.904 104.926,294.908 105.741 M326.012 109.259 C 326.012 109.972,326.088 110.264,326.181 109.907 C 326.274 109.551,326.274 108.968,326.181 108.611 C 326.088 108.255,326.012 108.546,326.012 109.259 M294.530 109.630 C 294.530 110.343,294.607 110.634,294.700 110.278 C 294.793 109.921,294.793 109.338,294.700 108.981 C 294.607 108.625,294.530 108.917,294.530 109.630 M294.160 113.333 C 294.160 114.046,294.236 114.338,294.329 113.981 C 294.423 113.625,294.423 113.042,294.329 112.685 C 294.236 112.329,294.160 112.620,294.160 113.333 M325.641 113.333 C 325.641 114.046,325.718 114.338,325.811 113.981 C 325.904 113.625,325.904 113.042,325.811 112.685 C 325.718 112.329,325.641 112.620,325.641 113.333 M268.640 117.222 C 268.642 118.648,268.709 119.186,268.789 118.418 C 268.869 117.649,268.868 116.483,268.786 115.825 C 268.704 115.168,268.638 115.796,268.640 117.222 M240.350 116.944 L 239.074 118.333 240.463 117.057 C 241.756 115.869,242.022 115.556,241.739 115.556 C 241.677 115.556,241.052 116.181,240.350 116.944 M293.790 117.037 C 293.790 117.750,293.866 118.042,293.959 117.685 C 294.052 117.329,294.052 116.745,293.959 116.389 C 293.866 116.032,293.790 116.324,293.790 117.037 M325.279 117.222 C 325.283 118.037,325.359 118.327,325.447 117.866 C 325.536 117.405,325.532 116.739,325.440 116.385 C 325.347 116.030,325.274 116.407,325.279 117.222 M293.419 120.741 C 293.419 121.454,293.495 121.745,293.589 121.389 C 293.682 121.032,293.682 120.449,293.589 120.093 C 293.495 119.736,293.419 120.028,293.419 120.741 M324.908 121.296 C 324.912 122.111,324.988 122.401,325.077 121.940 C 325.165 121.479,325.162 120.813,325.069 120.459 C 324.977 120.105,324.904 120.481,324.908 121.296 M293.049 124.444 C 293.049 125.157,293.125 125.449,293.218 125.093 C 293.311 124.736,293.311 124.153,293.218 123.796 C 293.125 123.440,293.049 123.731,293.049 124.444 M324.538 125.370 C 324.542 126.185,324.618 126.475,324.706 126.014 C 324.795 125.553,324.792 124.887,324.699 124.533 C 324.606 124.179,324.534 124.556,324.538 125.370 M292.679 128.148 C 292.679 128.861,292.755 129.153,292.848 128.796 C 292.941 128.440,292.941 127.856,292.848 127.500 C 292.755 127.144,292.679 127.435,292.679 128.148 M324.167 129.444 C 324.172 130.259,324.247 130.549,324.336 130.088 C 324.425 129.628,324.421 128.961,324.329 128.607 C 324.236 128.253,324.163 128.630,324.167 129.444 M292.308 131.852 C 292.308 132.565,292.384 132.856,292.478 132.500 C 292.571 132.144,292.571 131.560,292.478 131.204 C 292.384 130.847,292.308 131.139,292.308 131.852 M323.790 133.333 C 323.790 134.046,323.866 134.338,323.959 133.981 C 324.052 133.625,324.052 133.042,323.959 132.685 C 323.866 132.329,323.790 132.620,323.790 133.333 M291.938 135.556 C 291.938 136.269,292.014 136.560,292.107 136.204 C 292.200 135.847,292.200 135.264,292.107 134.907 C 292.014 134.551,291.938 134.843,291.938 135.556 M323.419 137.407 C 323.419 138.120,323.495 138.412,323.589 138.056 C 323.682 137.699,323.682 137.116,323.589 136.759 C 323.495 136.403,323.419 136.694,323.419 137.407 M323.049 141.481 C 323.049 142.194,323.125 142.486,323.218 142.130 C 323.311 141.773,323.311 141.190,323.218 140.833 C 323.125 140.477,323.049 140.769,323.049 141.481 M291.197 143.333 C 291.197 144.046,291.273 144.338,291.366 143.981 C 291.460 143.625,291.460 143.042,291.366 142.685 C 291.273 142.329,291.197 142.620,291.197 143.333 M322.679 145.556 C 322.679 146.269,322.755 146.560,322.848 146.204 C 322.941 145.847,322.941 145.264,322.848 144.907 C 322.755 144.551,322.679 144.843,322.679 145.556 M290.827 147.037 C 290.827 147.750,290.903 148.042,290.996 147.685 C 291.089 147.329,291.089 146.745,290.996 146.389 C 290.903 146.032,290.827 146.324,290.827 147.037 M322.308 149.630 C 322.308 150.343,322.384 150.634,322.478 150.278 C 322.571 149.921,322.571 149.338,322.478 148.981 C 322.384 148.625,322.308 148.917,322.308 149.630 M290.456 150.741 C 290.456 151.454,290.533 151.745,290.626 151.389 C 290.719 151.032,290.719 150.449,290.626 150.093 C 290.533 149.736,290.456 150.028,290.456 150.741 M321.938 153.704 C 321.938 154.417,322.014 154.708,322.107 154.352 C 322.200 153.995,322.200 153.412,322.107 153.056 C 322.014 152.699,321.938 152.991,321.938 153.704 M290.086 154.444 C 290.086 155.157,290.162 155.449,290.255 155.093 C 290.348 154.736,290.348 154.153,290.255 153.796 C 290.162 153.440,290.086 153.731,290.086 154.444 M321.575 157.593 C 321.579 158.407,321.655 158.697,321.743 158.236 C 321.832 157.776,321.829 157.109,321.736 156.755 C 321.643 156.401,321.571 156.778,321.575 157.593 M289.716 158.148 C 289.716 158.861,289.792 159.153,289.885 158.796 C 289.978 158.440,289.978 157.856,289.885 157.500 C 289.792 157.144,289.716 157.435,289.716 158.148 M321.205 161.667 C 321.209 162.481,321.284 162.771,321.373 162.310 C 321.462 161.850,321.458 161.183,321.366 160.829 C 321.273 160.475,321.200 160.852,321.205 161.667 M320.827 165.556 C 320.827 166.269,320.903 166.560,320.996 166.204 C 321.089 165.847,321.089 165.264,320.996 164.907 C 320.903 164.551,320.827 164.843,320.827 165.556 M238.391 182.130 C 238.296 182.282,242.187 182.407,247.037 182.407 C 251.887 182.407,255.778 182.282,255.684 182.130 C 255.589 181.977,251.698 181.852,247.037 181.852 C 242.376 181.852,238.485 181.977,238.391 182.130 M220.481 202.222 C 220.481 203.343,220.551 203.801,220.636 203.241 C 220.721 202.681,220.721 201.764,220.636 201.204 C 220.551 200.644,220.481 201.102,220.481 202.222 M206.667 222.037 C 207.358 222.750,208.006 223.333,208.108 223.333 C 208.210 223.333,207.728 222.750,207.037 222.037 C 206.346 221.324,205.697 220.741,205.595 220.741 C 205.494 220.741,205.976 221.324,206.667 222.037 M223.426 226.922 C 223.782 227.015,224.366 227.015,224.722 226.922 C 225.079 226.829,224.787 226.753,224.074 226.753 C 223.361 226.753,223.069 226.829,223.426 226.922 M251.603 305.370 C 251.605 306.796,251.672 307.334,251.752 306.566 C 251.832 305.797,251.831 304.631,251.749 303.973 C 251.667 303.316,251.601 303.944,251.603 305.370 " stroke="none" fill="#5c8fb1" fill-rule="evenodd"></path><path id="path4" d="M245.278 96.562 C 245.838 96.646,246.755 96.646,247.315 96.562 C 247.875 96.477,247.417 96.407,246.296 96.407 C 245.176 96.407,244.718 96.477,245.278 96.562 M250.468 96.562 C 251.031 96.647,251.864 96.645,252.320 96.557 C 252.775 96.469,252.315 96.399,251.296 96.402 C 250.278 96.405,249.905 96.477,250.468 96.562 M278.242 99.815 C 278.246 100.630,278.322 100.919,278.410 100.459 C 278.499 99.998,278.495 99.331,278.403 98.977 C 278.310 98.623,278.237 99.000,278.242 99.815 M228.690 104.537 L 226.852 106.481 228.796 104.644 C 230.603 102.936,230.911 102.593,230.634 102.593 C 230.576 102.593,229.701 103.468,228.690 104.537 M277.871 104.630 C 277.875 105.444,277.951 105.734,278.040 105.273 C 278.128 104.813,278.125 104.146,278.032 103.792 C 277.940 103.438,277.867 103.815,277.871 104.630 M277.501 109.444 C 277.505 110.259,277.581 110.549,277.669 110.088 C 277.758 109.628,277.755 108.961,277.662 108.607 C 277.569 108.253,277.497 108.630,277.501 109.444 M277.130 114.259 C 277.135 115.074,277.210 115.364,277.299 114.903 C 277.388 114.442,277.384 113.776,277.292 113.422 C 277.199 113.068,277.126 113.444,277.130 114.259 M244.907 114.700 C 245.264 114.793,245.847 114.793,246.204 114.700 C 246.560 114.607,246.269 114.530,245.556 114.530 C 244.843 114.530,244.551 114.607,244.907 114.700 M247.758 115.224 C 248.256 115.423,248.847 115.704,249.072 115.848 C 249.296 115.993,249.161 115.819,248.773 115.463 C 248.384 115.106,247.793 114.825,247.459 114.838 C 247.075 114.853,247.185 114.995,247.758 115.224 M276.753 118.889 C 276.753 119.602,276.829 119.894,276.922 119.537 C 277.015 119.181,277.015 118.597,276.922 118.241 C 276.829 117.884,276.753 118.176,276.753 118.889 M250.847 120.926 C 250.849 121.944,250.921 122.317,251.007 121.754 C 251.092 121.191,251.089 120.358,251.001 119.902 C 250.914 119.447,250.844 119.907,250.847 120.926 M276.382 123.704 C 276.382 124.417,276.458 124.708,276.552 124.352 C 276.645 123.995,276.645 123.412,276.552 123.056 C 276.458 122.699,276.382 122.991,276.382 123.704 M276.012 128.519 C 276.012 129.231,276.088 129.523,276.181 129.167 C 276.274 128.810,276.274 128.227,276.181 127.870 C 276.088 127.514,276.012 127.806,276.012 128.519 M275.641 133.333 C 275.641 134.046,275.718 134.338,275.811 133.981 C 275.904 133.625,275.904 133.042,275.811 132.685 C 275.718 132.329,275.641 132.620,275.641 133.333 M323.790 135.556 C 323.790 136.269,323.866 136.560,323.959 136.204 C 324.052 135.847,324.052 135.264,323.959 134.907 C 323.866 134.551,323.790 134.843,323.790 135.556 M275.279 137.963 C 275.283 138.778,275.359 139.068,275.447 138.607 C 275.536 138.146,275.532 137.479,275.440 137.125 C 275.347 136.771,275.274 137.148,275.279 137.963 M323.419 139.630 C 323.419 140.343,323.495 140.634,323.589 140.278 C 323.682 139.921,323.682 139.338,323.589 138.981 C 323.495 138.625,323.419 138.917,323.419 139.630 M264.444 140.877 C 264.444 141.456,263.721 141.499,255.591 141.402 C 250.721 141.344,246.814 141.421,246.909 141.574 C 247.284 142.180,264.451 141.896,264.687 141.280 C 264.808 140.966,264.802 140.605,264.675 140.478 C 264.548 140.351,264.444 140.530,264.444 140.877 M274.908 142.778 C 274.912 143.593,274.988 143.882,275.077 143.422 C 275.165 142.961,275.162 142.294,275.069 141.940 C 274.977 141.586,274.904 141.963,274.908 142.778 M274.538 147.593 C 274.542 148.407,274.618 148.697,274.706 148.236 C 274.795 147.776,274.792 147.109,274.699 146.755 C 274.606 146.401,274.534 146.778,274.538 147.593 M274.167 152.407 C 274.172 153.222,274.247 153.512,274.336 153.051 C 274.425 152.591,274.421 151.924,274.329 151.570 C 274.236 151.216,274.163 151.593,274.167 152.407 M273.797 157.222 C 273.801 158.037,273.877 158.327,273.966 157.866 C 274.054 157.405,274.051 156.739,273.958 156.385 C 273.865 156.030,273.793 156.407,273.797 157.222 M307.879 159.259 C 307.879 160.176,307.951 160.551,308.039 160.093 C 308.127 159.634,308.127 158.884,308.039 158.426 C 307.951 157.968,307.879 158.343,307.879 159.259 M273.427 162.037 C 273.431 162.852,273.507 163.142,273.595 162.681 C 273.684 162.220,273.681 161.553,273.588 161.199 C 273.495 160.845,273.423 161.222,273.427 162.037 M307.501 163.519 C 307.505 164.333,307.581 164.623,307.669 164.162 C 307.758 163.702,307.755 163.035,307.662 162.681 C 307.569 162.327,307.497 162.704,307.501 163.519 M273.049 166.667 C 273.049 167.380,273.125 167.671,273.218 167.315 C 273.311 166.958,273.311 166.375,273.218 166.019 C 273.125 165.662,273.049 165.954,273.049 166.667 M320.791 167.500 C 320.750 168.336,320.890 168.511,321.574 168.476 C 322.165 168.445,322.225 168.384,321.782 168.268 C 321.438 168.177,321.086 167.738,320.999 167.292 C 320.869 166.625,320.833 166.662,320.791 167.500 M307.143 168.704 C 307.146 169.722,307.218 170.095,307.303 169.532 C 307.388 168.969,307.386 168.136,307.298 167.680 C 307.210 167.225,307.140 167.685,307.143 168.704 M288.519 168.241 C 288.519 168.394,288.842 168.519,289.237 168.519 C 289.633 168.519,290.034 168.394,290.128 168.241 C 290.222 168.088,289.899 167.963,289.409 167.963 C 288.919 167.963,288.519 168.088,288.519 168.241 M272.679 171.481 C 272.679 172.194,272.755 172.486,272.848 172.130 C 272.941 171.773,272.941 171.190,272.848 170.833 C 272.755 170.477,272.679 170.769,272.679 171.481 M306.768 174.074 C 306.768 174.991,306.840 175.366,306.928 174.907 C 307.016 174.449,307.016 173.699,306.928 173.241 C 306.840 172.782,306.768 173.157,306.768 174.074 M272.308 176.296 C 272.308 177.009,272.384 177.301,272.478 176.944 C 272.571 176.588,272.571 176.005,272.478 175.648 C 272.384 175.292,272.308 175.583,272.308 176.296 M306.397 179.630 C 306.397 180.546,306.469 180.921,306.558 180.463 C 306.646 180.005,306.646 179.255,306.558 178.796 C 306.469 178.338,306.397 178.713,306.397 179.630 M271.945 180.926 C 271.949 181.741,272.025 182.030,272.114 181.570 C 272.202 181.109,272.199 180.442,272.106 180.088 C 272.014 179.734,271.941 180.111,271.945 180.926 M306.027 185.185 C 306.027 186.102,306.099 186.477,306.187 186.019 C 306.276 185.560,306.276 184.810,306.187 184.352 C 306.099 183.894,306.027 184.269,306.027 185.185 M271.575 185.741 C 271.579 186.556,271.655 186.845,271.743 186.385 C 271.832 185.924,271.829 185.257,271.736 184.903 C 271.643 184.549,271.571 184.926,271.575 185.741 M305.661 190.556 C 305.664 191.574,305.736 191.947,305.821 191.384 C 305.906 190.821,305.904 189.987,305.816 189.532 C 305.728 189.076,305.659 189.537,305.661 190.556 M271.205 190.556 C 271.209 191.370,271.284 191.660,271.373 191.199 C 271.462 190.739,271.458 190.072,271.366 189.718 C 271.273 189.364,271.200 189.741,271.205 190.556 M270.834 195.370 C 270.838 196.185,270.914 196.475,271.003 196.014 C 271.091 195.553,271.088 194.887,270.995 194.533 C 270.903 194.179,270.830 194.556,270.834 195.370 M305.291 196.111 C 305.294 197.130,305.366 197.502,305.451 196.939 C 305.536 196.376,305.534 195.543,305.446 195.088 C 305.358 194.632,305.288 195.093,305.291 196.111 M270.464 200.185 C 270.468 201.000,270.544 201.290,270.632 200.829 C 270.721 200.368,270.718 199.702,270.625 199.348 C 270.532 198.993,270.460 199.370,270.464 200.185 M304.921 201.667 C 304.924 202.685,304.995 203.058,305.081 202.495 C 305.166 201.932,305.163 201.099,305.076 200.643 C 304.988 200.188,304.918 200.648,304.921 201.667 M270.093 205.000 C 270.098 205.815,270.173 206.105,270.262 205.644 C 270.351 205.183,270.347 204.516,270.254 204.162 C 270.162 203.808,270.089 204.185,270.093 205.000 M201.217 206.852 C 201.220 207.870,201.292 208.243,201.377 207.680 C 201.462 207.117,201.460 206.284,201.372 205.828 C 201.284 205.373,201.214 205.833,201.217 206.852 M304.550 207.222 C 304.553 208.241,304.625 208.613,304.710 208.050 C 304.795 207.487,304.793 206.654,304.705 206.199 C 304.617 205.743,304.548 206.204,304.550 207.222 M224.912 208.784 C 225.475 208.869,226.309 208.867,226.764 208.779 C 227.220 208.691,226.759 208.622,225.741 208.624 C 224.722 208.627,224.350 208.699,224.912 208.784 M269.723 209.815 C 269.727 210.630,269.803 210.919,269.892 210.459 C 269.980 209.998,269.977 209.331,269.884 208.977 C 269.791 208.623,269.719 209.000,269.723 209.815 M304.180 212.778 C 304.183 213.796,304.255 214.169,304.340 213.606 C 304.425 213.043,304.423 212.210,304.335 211.754 C 304.247 211.299,304.177 211.759,304.180 212.778 M269.353 214.630 C 269.357 215.444,269.433 215.734,269.521 215.273 C 269.610 214.813,269.606 214.146,269.514 213.792 C 269.421 213.438,269.349 213.815,269.353 214.630 M303.810 218.333 C 303.812 219.352,303.884 219.725,303.969 219.162 C 304.055 218.599,304.052 217.765,303.964 217.310 C 303.877 216.854,303.807 217.315,303.810 218.333 M241.462 218.796 L 240.185 220.185 241.574 218.909 C 242.867 217.721,243.133 217.407,242.850 217.407 C 242.789 217.407,242.164 218.032,241.462 218.796 M268.982 219.444 C 268.986 220.259,269.062 220.549,269.151 220.088 C 269.239 219.628,269.236 218.961,269.143 218.607 C 269.051 218.253,268.978 218.630,268.982 219.444 M205.556 221.227 C 205.556 221.291,206.097 221.832,206.759 222.431 L 207.963 223.519 206.875 222.315 C 205.861 221.193,205.556 220.941,205.556 221.227 M303.400 223.989 L 303.333 225.941 310.803 225.841 C 316.496 225.765,318.295 225.628,318.368 225.269 C 318.420 225.009,318.378 224.967,318.275 225.176 C 318.156 225.416,315.443 225.556,310.915 225.556 L 303.744 225.556 303.606 223.796 L 303.467 222.037 303.400 223.989 M268.581 224.360 L 268.519 225.941 275.988 225.841 C 281.681 225.765,283.480 225.628,283.553 225.269 C 283.605 225.009,283.563 224.967,283.460 225.176 C 283.341 225.416,280.629 225.556,276.103 225.556 L 268.934 225.556 268.788 224.167 L 268.643 222.778 268.581 224.360 M219.529 227.304 C 220.186 227.386,221.353 227.388,222.121 227.307 C 222.890 227.227,222.352 227.160,220.926 227.159 C 219.500 227.157,218.871 227.223,219.529 227.304 " stroke="none" fill="#71a4c4" fill-rule="evenodd"></path></g></svg>