<?xml version="1.0" encoding="UTF-8" standalone="no" ?>
<!DOCTYPE svg PUBLIC "-//W3C//DTD SVG 1.1//EN" "http://www.w3.org/Graphics/SVG/1.1/DTD/svg11.dtd">
<svg xmlns="http://www.w3.org/2000/svg" xmlns:xlink="http://www.w3.org/1999/xlink" version="1.1" width="500" height="350" viewBox="0 0 500 350" xml:space="preserve">
<desc>Created with Fabric.js 4.6.0</desc>
<defs>
</defs>
<g transform="matrix(1.44 0 0 1.44 347.66 122.1)" id="PYNzaGI1soQHi_FnRr_YC"  >
<path style="stroke: none; stroke-width: 1; stroke-dasharray: none; stroke-linecap: butt; stroke-dashoffset: 0; stroke-linejoin: miter; stroke-miterlimit: 4; fill: rgb(226,226,226); fill-rule: evenodd; opacity: 1;" vector-effect="non-scaling-stroke"  transform=" translate(-268.15, -163.15)" d="M 190.741 163.148 L 190.741 240.741 L 268.148 240.741 L 345.556 240.741 L 345.53 194.167 C 345.515 165.35 345.375 147.875 345.163 148.333 C 344.975 148.741 338.835 166.324 331.52 187.407 L 318.22 225.741 L 310.776 225.841 C 303.617 225.937 303.333 225.914 303.333 225.221 C 303.333 224.825 304.247 211.03 305.363 194.565 C 306.479 178.101 307.485 163.046 307.598 161.111 L 307.804 157.593 L 307.098 159.259 C 306.709 160.176 303.261 169.759 299.436 180.556 C 295.61 191.352 290.438 205.935 287.943 212.963 L 283.405 225.741 L 275.962 225.841 C 271.868 225.896 268.515 225.813 268.511 225.656 C 268.489 224.85 278.196 99.637 278.36 98.611 L 278.552 97.407 L 287.065 97.407 C 294.18 97.407 295.613 97.496 295.786 97.947 C 295.988 98.473 289.48 165.104 289.029 167.13 C 288.858 167.899 288.943 168.148 289.374 168.148 C 290.203 168.148 290.956 166.02 302.417 131.296 C 308.064 114.185 312.933 99.56 313.235 98.796 L 313.784 97.407 L 320.422 97.407 C 325.392 97.407 327.105 97.524 327.236 97.87 C 327.333 98.125 325.995 113.735 324.262 132.558 C 322.529 151.382 321.111 167.09 321.111 167.466 C 321.111 168.801 322.09 168.12 322.659 166.389 C 322.977 165.421 328.099 149.632 334.04 131.301 C 339.982 112.97 345.003 97.811 345.199 97.615 C 345.397 97.418 345.556 94.66 345.556 91.407 L 345.556 85.556 L 268.148 85.556 L 190.741 85.556 L 190.741 163.148 M 255.015 96.863 C 267.91 100.174 271.369 110.951 266.545 132.778 L 264.581 141.667 L 255.927 141.766 C 251.167 141.821 247.158 141.738 247.018 141.581 C 246.877 141.424 247.654 137.213 248.743 132.222 C 249.832 127.231 250.723 122.231 250.724 121.111 C 250.727 112.444 241.307 112.712 237.969 121.473 C 236.401 125.589 221.015 198.513 220.971 202.037 C 220.909 206.947 222.109 208.512 225.926 208.505 C 231.468 208.495 233.271 205.51 236.096 191.667 C 237.052 186.981 237.916 182.856 238.016 182.5 C 238.219 181.777 255.926 181.469 255.926 182.189 C 255.926 183.759 251.944 201.003 250.898 203.963 C 245.245 219.957 232.07 229.005 217.219 227.092 C 206.137 225.664 199.995 216.398 201.473 203.333 C 201.983 198.826 217.904 123.685 219.128 120.011 C 224.736 103.173 240.354 93.099 255.015 96.863" stroke-linecap="round" />
</g>
<g transform="matrix(1.44 0 0 1.44 257.07 183.71)" id="DHfpWdmIzcni-5sR0Z6dc"  >
<path style="stroke: none; stroke-width: 1; stroke-dasharray: none; stroke-linecap: butt; stroke-dashoffset: 0; stroke-linejoin: miter; stroke-miterlimit: 4; fill: rgb(123,132,147); fill-rule: evenodd; opacity: 1;" vector-effect="non-scaling-stroke"  transform=" translate(-205.08, -206.04)" d="M 282.685 97.684 C 285.079 97.749 288.995 97.749 291.389 97.684 C 293.782 97.619 291.824 97.567 287.037 97.567 C 282.25 97.567 280.292 97.619 282.685 97.684 M 316.944 97.683 C 318.829 97.751 321.912 97.751 323.796 97.683 C 325.681 97.616 324.139 97.561 320.37 97.561 C 316.602 97.561 315.06 97.616 316.944 97.683 M 229.421 103.796 L 228.333 105 L 229.537 103.912 C 230.199 103.314 230.741 102.772 230.741 102.708 C 230.741 102.422 230.435 102.674 229.421 103.796 M 250.834 120.926 C 250.838 121.741 250.914 122.03 251.003 121.57 C 251.091 121.109 251.088 120.442 250.995 120.088 C 250.903 119.734 250.83 120.111 250.834 120.926 M 264.444 141.062 C 264.444 141.399 262.294 141.482 255.591 141.402 C 250.721 141.344 246.814 141.421 246.909 141.574 C 247.189 142.027 264.363 141.913 264.645 141.457 C 264.779 141.24 264.789 140.962 264.667 140.84 C 264.544 140.717 264.444 140.817 264.444 141.062 M 307.864 158.889 C 307.864 159.602 307.94 159.894 308.033 159.537 C 308.126 159.181 308.126 158.597 308.033 158.241 C 307.94 157.884 307.864 158.176 307.864 158.889 M 273.419 161.481 C 273.419 162.194 273.495 162.486 273.589 162.13 C 273.682 161.773 273.682 161.19 273.589 160.833 C 273.495 160.477 273.419 160.769 273.419 161.481 M 307.123 168.148 C 307.123 168.861 307.199 169.153 307.292 168.796 C 307.386 168.44 307.386 167.856 307.292 167.5 C 307.199 167.144 307.123 167.435 307.123 168.148 M 320.784 167.685 C 320.751 168.327 320.933 168.509 321.574 168.476 C 322.165 168.445 322.225 168.385 321.782 168.268 C 321.438 168.177 321.082 167.821 320.992 167.477 C 320.875 167.034 320.814 167.095 320.784 167.685 M 272.679 171.111 C 272.679 171.824 272.755 172.116 272.848 171.759 C 272.941 171.403 272.941 170.819 272.848 170.463 C 272.755 170.106 272.679 170.398 272.679 171.111 M 306.76 173.519 C 306.764 174.333 306.84 174.623 306.929 174.162 C 307.017 173.702 307.014 173.035 306.921 172.681 C 306.828 172.327 306.756 172.704 306.76 173.519 M 306.39 179.074 C 306.394 179.889 306.47 180.179 306.558 179.718 C 306.647 179.257 306.643 178.591 306.551 178.236 C 306.458 177.882 306.386 178.259 306.39 179.074 M 306.019 184.63 C 306.023 185.444 306.099 185.734 306.188 185.273 C 306.276 184.813 306.273 184.146 306.18 183.792 C 306.088 183.438 306.015 183.815 306.019 184.63 M 305.649 190.185 C 305.653 191 305.729 191.29 305.818 190.829 C 305.906 190.368 305.903 189.702 305.81 189.348 C 305.717 188.993 305.645 189.37 305.649 190.185 M 305.279 195.741 C 305.283 196.556 305.359 196.845 305.447 196.385 C 305.536 195.924 305.532 195.257 305.44 194.903 C 305.347 194.549 305.274 194.926 305.279 195.741 M 304.908 201.296 C 304.912 202.111 304.988 202.401 305.077 201.94 C 305.165 201.479 305.162 200.813 305.069 200.459 C 304.977 200.105 304.904 200.481 304.908 201.296 M 201.217 206.852 C 201.22 207.87 201.292 208.243 201.377 207.68 C 201.462 207.117 201.46 206.284 201.372 205.828 C 201.284 205.373 201.214 205.833 201.217 206.852 M 304.538 206.852 C 304.542 207.667 304.618 207.956 304.706 207.496 C 304.795 207.035 304.792 206.368 304.699 206.014 C 304.606 205.66 304.534 206.037 304.538 206.852 M 269.716 209.259 C 269.716 209.972 269.792 210.264 269.885 209.907 C 269.978 209.551 269.978 208.968 269.885 208.611 C 269.792 208.255 269.716 208.546 269.716 209.259 M 225.097 208.78 C 225.558 208.869 226.224 208.866 226.578 208.773 C 226.932 208.68 226.556 208.608 225.741 208.612 C 224.926 208.616 224.636 208.692 225.097 208.78 M 304.175 212.222 C 304.175 213.139 304.247 213.514 304.335 213.056 C 304.424 212.597 304.424 211.847 304.335 211.389 C 304.247 210.931 304.175 211.306 304.175 212.222 M 269.345 214.074 C 269.345 214.787 269.421 215.079 269.515 214.722 C 269.608 214.366 269.608 213.782 269.515 213.426 C 269.421 213.069 269.345 213.361 269.345 214.074 M 303.797 217.593 C 303.801 218.407 303.877 218.697 303.966 218.236 C 304.054 217.776 304.051 217.109 303.958 216.755 C 303.865 216.401 303.793 216.778 303.797 217.593 M 241.279 218.981 L 239.815 220.556 L 241.389 219.092 C 242.853 217.73 243.133 217.407 242.853 217.407 C 242.792 217.407 242.084 218.116 241.279 218.981 M 268.975 218.889 C 268.975 219.602 269.051 219.894 269.144 219.537 C 269.237 219.181 269.237 218.597 269.144 218.241 C 269.051 217.884 268.975 218.176 268.975 218.889 M 205.556 221.227 C 205.556 221.291 206.097 221.832 206.759 222.431 L 207.963 223.519 L 206.875 222.315 C 205.861 221.193 205.556 220.941 205.556 221.227 M 303.427 223.148 C 303.431 223.963 303.507 224.253 303.595 223.792 C 303.684 223.331 303.681 222.665 303.588 222.31 C 303.495 221.956 303.423 222.333 303.427 223.148 M 268.604 223.704 C 268.604 224.417 268.681 224.708 268.774 224.352 C 268.867 223.995 268.867 223.412 268.774 223.056 C 268.681 222.699 268.604 222.991 268.604 223.704 M 219.722 227.307 C 220.486 227.387 221.736 227.387 222.5 227.307 C 223.264 227.227 222.639 227.162 221.111 227.162 C 219.583 227.162 218.958 227.227 219.722 227.307 M 98.148 303.704 L 98.148 310.37 L 99.63 310.37 L 101.111 310.37 L 101.111 303.704 L 101.111 297.037 L 99.63 297.037 L 98.148 297.037 L 98.148 303.704 M 133.476 297.571 C 133.082 298.596 133.51 299.443 134.479 299.556 C 135.64 299.691 136.444 298.827 136.117 297.796 C 135.83 296.892 133.802 296.719 133.476 297.571 M 197.654 297.284 C 197.191 297.747 197.406 299.282 197.964 299.496 C 199.189 299.966 200.37 299.301 200.37 298.141 C 200.37 297.058 198.478 296.46 197.654 297.284 M 238.519 303.704 L 238.519 310.37 L 240 310.37 L 241.481 310.37 L 241.481 303.704 L 241.481 297.037 L 240 297.037 L 238.519 297.037 L 238.519 303.704 M 257.152 297.643 C 256.793 298.578 257.559 299.444 258.744 299.444 C 259.681 299.444 259.829 299.294 259.931 298.241 C 260.065 296.855 257.653 296.336 257.152 297.643 M 160.065 298.265 C 159.164 299.223 159.016 300.913 159.701 302.417 C 160.007 303.087 160.023 303.464 159.753 303.638 C 156.278 305.875 158.513 311.196 162.673 310.59 C 163.546 310.463 165.134 310.371 166.204 310.386 C 168.376 310.416 168.457 310.324 167.412 308.996 C 167.008 308.482 166.777 307.899 166.899 307.701 C 167.934 306.027 168.062 303.696 167.131 303.463 C 166.217 303.233 165.579 303.689 165.037 304.96 C 164.928 305.214 164.649 305.108 164.304 304.681 C 163.8 304.057 163.837 303.857 164.7 302.553 C 167.026 299.039 162.912 295.234 160.065 298.265 M 223.986 297.987 C 221.781 299.184 222.103 302.811 224.607 305 C 227.089 307.169 226.698 308.737 223.891 307.875 C 222.43 307.427 221.647 309.666 223.01 310.396 C 227.951 313.04 231.198 307.172 227.013 303.161 C 225.066 301.295 225.018 301.207 225.524 300.409 C 225.747 300.057 226.216 299.965 226.995 300.121 C 228.663 300.455 229.774 298.502 228.299 297.829 C 227.04 297.256 225.211 297.323 223.986 297.987 M 85.556 304.074 L 85.556 310.4 L 88.611 310.293 C 92.593 310.153 93.634 307.802 89.722 307.783 C 88.595 307.778 88.519 307.696 88.519 306.481 C 88.519 305.216 88.554 305.185 90 305.185 C 91.446 305.185 91.481 305.154 91.481 303.889 C 91.481 302.623 91.446 302.593 90 302.593 C 87.615 302.593 87.701 300.102 90.093 299.929 C 91.494 299.827 91.667 299.713 91.667 298.889 C 91.667 297.985 91.595 297.96 88.611 297.855 L 85.556 297.748 L 85.556 304.074 M 173.333 304.035 L 173.333 310.37 L 175.717 310.37 C 179.741 310.37 181.339 308.95 181.743 305.012 C 182.23 300.249 180.556 298.027 176.332 297.836 L 173.333 297.699 L 173.333 304.035 M 252.372 299.825 C 252.243 300.339 251.823 300.928 251.439 301.134 C 250.745 301.505 250.446 302.963 251.064 302.963 C 251.241 302.963 251.463 304.282 251.556 305.895 C 251.774 309.656 252.412 310.741 254.408 310.741 C 255.953 310.741 256.806 310.063 256.598 308.999 C 256.514 308.572 256.138 308.333 255.549 308.333 C 254.665 308.333 254.625 308.231 254.521 305.648 C 254.413 302.99 254.421 302.963 255.354 302.963 C 256.154 302.963 256.296 302.795 256.296 301.852 C 256.296 300.914 256.152 300.741 255.37 300.741 C 254.63 300.741 254.444 300.556 254.444 299.815 C 254.444 298.475 252.709 298.483 252.372 299.825 M 162.839 300.901 C 162.716 301.22 162.444 301.481 162.234 301.481 C 161.808 301.481 161.71 300.265 162.105 299.87 C 162.512 299.464 163.082 300.266 162.839 300.901 M 178.122 300.833 C 179.423 302.911 178.656 307.778 177.028 307.778 C 176.346 307.778 176.296 307.514 176.296 303.889 C 176.296 299.73 176.85 298.803 178.122 300.833 M 103.625 301.295 C 99.38 305.231 104.092 313.603 108.668 310.257 C 109.603 309.574 109.342 307.907 108.333 308.117 C 106.514 308.497 105.769 308.322 105.306 307.407 L 104.836 306.481 L 107.278 306.371 L 109.72 306.26 L 109.48 304.334 C 109.04 300.811 105.903 299.183 103.625 301.295 M 111.759 300.801 C 110.618 301.218 110.49 301.741 111.271 302.8 C 111.697 303.376 111.895 303.427 112.271 303.056 C 112.924 302.412 113.95 302.477 114.22 303.178 C 114.633 304.254 114.454 304.444 113.028 304.444 C 110.415 304.444 108.983 307.642 110.577 309.918 C 111.175 310.772 113.795 311.122 114.237 310.406 C 114.351 310.221 115.13 310.163 115.969 310.275 L 117.493 310.479 L 117.353 306.375 C 117.16 300.734 115.76 299.34 111.759 300.801 M 121.511 301.019 C 121.302 301.378 121.129 301.461 121.122 301.204 C 121.116 300.924 120.599 300.741 119.815 300.741 L 118.519 300.741 L 118.519 305.556 L 118.519 310.37 L 120 310.37 L 121.481 310.37 L 121.481 307.05 C 121.481 303.695 122.105 302.389 123.341 303.153 C 123.54 303.276 123.706 303.076 123.709 302.707 C 123.712 302.339 123.814 301.662 123.937 301.204 C 124.225 300.129 122.123 299.968 121.511 301.019 M 127.627 300.685 C 127.506 300.881 126.741 300.951 125.926 300.842 L 124.444 300.643 L 124.444 305.507 L 124.444 310.37 L 125.704 310.37 L 126.963 310.37 L 127.093 307.093 C 127.328 301.13 129.259 300.955 129.259 306.897 L 129.259 310.37 L 130.556 310.37 L 131.852 310.37 L 131.896 306.944 C 131.951 302.636 131.946 302.597 131.146 301.481 C 130.455 300.518 128.065 299.977 127.627 300.685 M 140.582 300.952 C 140.262 301.272 140 301.356 140 301.138 C 140 300.919 139.417 300.741 138.704 300.741 L 137.407 300.741 L 137.407 305.556 L 137.407 310.37 L 138.889 310.37 L 140.37 310.37 L 140.37 307.108 C 140.37 304.797 140.53 303.636 140.919 303.126 C 141.818 301.948 142.21 303.103 142.217 306.944 L 142.222 310.37 L 143.744 310.37 L 145.265 310.37 L 145.127 306.204 C 144.948 300.848 142.971 298.563 140.582 300.952 M 147.268 301.216 C 145.957 302.528 145.694 303.876 146.444 305.449 C 146.926 306.459 146.966 306.862 146.625 307.272 C 146.302 307.661 146.293 308.032 146.59 308.684 C 146.905 309.374 146.881 309.61 146.48 309.764 C 145.633 310.089 145.38 312.455 146.078 313.52 C 146.894 314.766 151.12 314.875 152.546 313.687 C 154.913 311.715 153.694 308.101 150.631 308.013 C 148.55 307.953 148.545 307.35 150.623 306.939 C 152.253 306.617 152.963 305.637 152.963 303.708 C 152.963 303.119 153.13 302.533 153.333 302.407 C 154.075 301.949 153.74 300.741 152.87 300.738 C 152.412 300.736 151.176 300.631 150.124 300.504 C 148.407 300.298 148.113 300.372 147.268 301.216 M 183.948 301.276 C 181.869 303.064 182.234 309.042 184.494 310.211 C 186.821 311.414 189.63 310.595 189.63 308.712 C 189.63 307.821 189.524 307.725 188.796 307.959 C 187.051 308.518 186.159 308.361 185.676 307.407 L 185.207 306.481 L 187.603 306.372 C 189.936 306.265 190 306.235 190 305.258 C 190 301.098 186.689 298.919 183.948 301.276 M 191.438 301.072 C 189.886 302.329 190.211 304.604 192.186 306.305 C 194.372 308.188 193.726 309.109 191.019 307.971 C 190.487 307.748 190.37 307.893 190.37 308.775 C 190.37 310.274 190.986 310.741 192.967 310.741 C 196.573 310.741 197.706 307.105 194.815 304.815 C 192.917 303.312 192.833 302.465 194.613 302.799 C 195.78 303.018 195.915 302.951 196.145 302.035 C 196.582 300.295 193.242 299.611 191.438 301.072 M 202.392 301.278 C 201.512 302.158 201.433 302.453 201.618 304.184 C 202.103 308.714 202.065 309.688 201.389 310.05 C 199.022 311.316 201.255 314.444 204.526 314.444 C 209.652 314.444 211.087 308.362 206.051 307.986 C 204.181 307.847 204.06 307.295 205.821 306.936 C 207.512 306.591 208.148 305.831 208.148 304.154 C 208.148 303.455 208.478 302.475 208.889 301.953 L 209.63 301.011 L 209.63 305.691 L 209.63 310.37 L 211.111 310.37 L 212.593 310.37 L 212.593 306.897 C 212.593 304.444 212.738 303.303 213.09 303.012 C 213.915 302.326 214.074 302.925 214.074 306.728 L 214.074 310.37 L 215.556 310.37 L 217.037 310.37 L 217.037 306.181 C 217.037 301.144 216.509 300.121 214.12 300.53 C 212.457 300.816 209.12 300.811 205.852 300.52 C 203.521 300.312 203.312 300.358 202.392 301.278 M 231.612 300.913 C 228.147 303.34 229.519 310.741 233.434 310.741 C 236.265 310.741 237.615 308.675 237.333 304.775 C 237.069 301.127 234.135 299.146 231.612 300.913 M 263.108 300.799 C 260.435 302.095 260.49 309.092 263.183 310.319 C 266.482 311.822 268.889 309.783 268.889 305.486 C 268.889 301.405 266.259 299.272 263.108 300.799 M 273.175 300.952 C 272.854 301.272 272.593 301.356 272.593 301.138 C 272.593 300.919 272.009 300.741 271.296 300.741 L 270 300.741 L 270 305.556 L 270 310.37 L 271.481 310.37 L 272.963 310.37 L 272.963 307.253 C 272.963 303.862 273.157 302.963 273.889 302.963 C 274.621 302.963 274.815 303.862 274.815 307.253 L 274.815 310.37 L 276.328 310.37 L 277.842 310.37 L 277.717 306.078 C 277.565 300.841 275.555 298.572 273.175 300.952 M 279.286 301.346 C 277.856 303.165 278.656 305.974 280.833 306.775 C 281.19 306.906 281.481 307.372 281.481 307.809 C 281.481 308.624 280.829 308.67 279.167 307.971 C 278.621 307.742 278.519 307.903 278.519 308.995 C 278.519 310.478 278.939 310.746 281.234 310.729 C 283.332 310.713 284.121 310.025 284.347 308.011 C 284.545 306.256 284.686 306.485 281.755 303.793 C 280.853 302.966 281.524 302.324 282.721 302.87 C 283.509 303.229 283.662 303.163 284.055 302.301 C 284.981 300.27 280.792 299.432 279.286 301.346 M 133.333 305.556 L 133.333 310.37 L 134.63 310.37 L 135.926 310.37 L 135.926 305.556 L 135.926 300.741 L 134.63 300.741 L 133.333 300.741 L 133.333 305.556 M 197.407 305.556 L 197.407 310.37 L 198.889 310.37 L 200.37 310.37 L 200.37 305.556 L 200.37 300.741 L 198.889 300.741 L 197.407 300.741 L 197.407 305.556 M 242.654 305.17 C 242.798 310.326 243.121 310.892 245.741 310.573 C 246.556 310.473 247.889 310.345 248.704 310.289 L 250.185 310.185 L 250.185 305.556 L 250.185 300.926 L 248.796 300.811 L 247.407 300.696 L 247.38 303.404 C 247.346 306.694 247.155 307.846 246.582 308.2 C 245.735 308.724 245.556 308.065 245.556 304.423 L 245.556 300.741 L 244.043 300.741 L 242.531 300.741 L 242.654 305.17 M 257.119 305.463 L 257.222 310.185 L 258.611 310.3 L 260 310.415 L 260 305.578 L 260 300.741 L 258.507 300.741 L 257.015 300.741 L 257.119 305.463 M 150.08 302.87 C 150.295 303.911 149.944 305.228 149.491 305.079 C 149.01 304.921 148.736 303.526 149.033 302.751 C 149.314 302.019 149.918 302.088 150.08 302.87 M 205.185 303.704 C 205.185 305.169 204.62 305.704 204.208 304.629 C 203.928 303.9 204.357 302.222 204.822 302.222 C 205.022 302.222 205.185 302.889 205.185 303.704 M 106.296 302.933 C 106.296 303.12 106.397 303.536 106.521 303.859 C 106.682 304.279 106.525 304.444 105.966 304.444 C 105.206 304.444 104.862 303.41 105.432 302.84 C 105.79 302.482 106.296 302.537 106.296 302.933 M 186.97 303.64 C 187.059 304.245 186.898 304.444 186.322 304.444 C 185.826 304.444 185.556 304.205 185.556 303.765 C 185.556 302.357 186.766 302.25 186.97 303.64 M 234.557 305.488 C 234.589 307.594 233.922 308.791 233.099 308.107 C 232.46 307.577 232.414 303.66 233.04 303.034 C 233.808 302.266 234.526 303.427 234.557 305.488 M 265.852 305.085 C 265.994 307.544 265.347 309.007 264.581 307.959 C 263.633 306.663 264.069 302.838 265.14 303.041 C 265.584 303.125 265.77 303.658 265.852 305.085 M 92.469 304.691 C 92.333 304.827 92.222 305.418 92.222 306.005 L 92.222 307.071 L 94.722 306.961 C 97.283 306.849 98.457 305.708 96.977 304.77 C 96.39 304.398 92.825 304.336 92.469 304.691 M 162.955 307.711 C 162.967 308.459 161.325 308.073 161.176 307.293 C 160.897 305.831 161.467 305.297 162.237 306.299 C 162.627 306.807 162.95 307.442 162.955 307.711 M 114.308 307.13 C 114.185 307.588 114.082 308.088 114.079 308.241 C 114.076 308.394 113.824 308.519 113.519 308.519 C 112.958 308.519 112.725 307.028 113.21 306.543 C 113.816 305.937 114.525 306.316 114.308 307.13 M 150.525 310.595 C 151.411 310.935 151.228 311.814 150.172 312.296 C 149.402 312.646 149.123 312.615 148.629 312.121 C 147.589 311.081 148.946 309.989 150.525 310.595 M 205.71 310.595 C 206.596 310.935 206.413 311.814 205.357 312.296 C 204.587 312.646 204.308 312.615 203.814 312.121 C 202.775 311.081 204.132 309.989 205.71 310.595" stroke-linecap="round" />
</g>
<g transform="matrix(1.44 0 0 1.44 250 153.5)" id="DsF-YyQ-Umod-HhP0AvGP"  >
<path style="stroke: none; stroke-width: 1; stroke-dasharray: none; stroke-linecap: butt; stroke-dashoffset: 0; stroke-linejoin: miter; stroke-miterlimit: 4; fill: rgb(44,44,44); fill-rule: evenodd; opacity: 1;" vector-effect="non-scaling-stroke"  transform=" translate(-200.16, -185.01)" d="M 101.217 86.624 C 83.665 92.734 80.586 116.283 96 126.53 C 113.107 137.904 134.841 123.03 130.569 102.872 C 127.882 90.194 113.628 82.304 101.217 86.624 M 243.603 97.051 C 232.746 98.877 222.902 108.578 219.109 121.19 C 218.106 124.526 202.482 197.799 201.87 202.037 C 200.097 214.322 205.263 224.017 214.815 226.329 C 230.296 230.077 245.927 219.556 251.294 201.775 C 251.751 200.263 255.556 182.902 255.556 182.331 C 255.556 182.264 251.691 182.253 246.968 182.308 L 238.381 182.407 L 237.751 185.37 C 237.405 187 236.509 191.25 235.76 194.815 C 233.453 205.796 231.208 208.917 225.553 209.002 C 222.086 209.055 220.535 206.875 220.596 202.037 C 220.641 198.484 236.033 125.564 237.608 121.441 C 241.34 111.673 251.805 112.134 250.992 122.03 C 250.824 124.071 249.016 132.99 247.219 140.648 L 247.023 141.481 L 255.641 141.48 L 264.259 141.479 L 266.259 132.128 C 267.81 124.871 268.295 121.824 268.421 118.519 C 269.02 102.894 259.228 94.423 243.603 97.051 M 345.178 98.241 C 344.978 98.699 340.893 111.241 336.099 126.111 C 321.535 171.282 322.252 169.264 320.961 168.768 C 320.558 168.614 320.44 168.235 320.573 167.514 C 320.677 166.946 322.088 151.898 323.707 134.074 C 325.327 116.25 326.755 100.875 326.88 99.907 L 327.107 98.148 L 320.417 98.148 L 313.728 98.148 L 302.386 132.315 C 289.676 170.606 290.294 168.889 289.218 168.889 C 288.527 168.889 288.461 168.729 288.638 167.5 C 288.845 166.066 295.556 99.132 295.556 98.502 C 295.556 98.288 292.231 98.148 287.118 98.148 L 278.681 98.148 L 273.936 159.537 C 271.326 193.301 269.098 221.968 268.986 223.241 L 268.782 225.556 L 275.851 225.556 C 279.738 225.556 283.009 225.41 283.119 225.232 C 283.229 225.054 287.998 211.679 293.717 195.51 C 306.731 158.713 307.109 157.689 307.744 157.479 C 308.18 157.335 308.225 157.88 308.016 160.783 C 307.384 169.551 303.704 224.256 303.704 224.875 C 303.704 225.536 304.067 225.566 310.821 225.471 L 317.939 225.37 L 327.844 196.852 C 333.292 181.167 339.443 163.461 341.513 157.506 C 343.582 151.551 345.388 146.748 345.525 146.833 C 345.662 146.918 349.6 135.983 354.276 122.534 C 358.952 109.085 362.833 97.93 362.901 97.745 C 363.224 96.862 345.562 97.357 345.178 98.241 M 148.915 108.367 C 143.064 109.94 137.634 114.404 134.314 120.37 C 125.824 135.626 110.139 140.766 94.764 133.331 C 81.824 127.073 67.192 132.926 62.759 146.131 C 56.437 164.966 75.926 182.153 93.878 173.575 C 98.698 171.272 101.331 168.477 105.502 161.239 C 113.267 147.761 128.579 143.449 144.184 150.346 C 158.563 156.701 173.08 149.888 176.848 135.015 C 180.915 118.964 165.214 103.985 148.915 108.367 M 124.861 153.177 C 119.108 154.724 113.075 159.713 110.044 165.428 C 102.089 180.432 86.321 185.695 70.776 178.535 C 54.094 170.852 37.778 180.666 37.778 198.383 C 37.778 221.874 68.973 229.672 79.777 208.882 C 87.768 193.504 103.745 187.672 118.881 194.607 C 129.86 199.637 138.641 198.407 146.335 190.762 C 162.332 174.863 146.601 147.33 124.861 153.177 M 102.407 198.186 C 84.109 200.808 76.787 223.39 90.041 236.325 C 100.439 246.472 117.211 244.774 124.768 232.808 C 135.157 216.358 121.641 195.431 102.407 198.186 M 42.593 263.253 C 32.079 268.408 35.167 284.444 46.673 284.444 C 50.221 284.444 53.508 282.84 54.921 280.419 L 55.582 279.285 L 54.18 278.411 C 53.409 277.931 52.274 277.244 51.658 276.886 L 50.538 276.236 L 49.132 277.562 C 46.673 279.881 43.973 278.831 43.05 275.197 C 41.752 270.084 45.748 266.284 49.1 269.444 C 50.771 271.021 50.374 271.046 52.997 269.206 C 55.463 267.475 55.413 267.574 54.527 266.231 C 52.342 262.918 46.333 261.419 42.593 263.253 M 59.63 273.519 L 59.63 284.444 L 62.778 284.444 L 65.926 284.444 L 65.926 281.111 C 65.926 277.079 66.85 276.44 68.543 279.302 C 69.039 280.141 69.734 281.266 70.087 281.802 C 70.441 282.339 70.895 283.153 71.096 283.611 C 71.616 284.791 78.519 284.92 78.519 283.749 C 78.519 283.367 78.269 282.846 77.963 282.593 C 77.657 282.339 77.407 281.988 77.407 281.813 C 77.407 281.638 76.741 280.405 75.926 279.074 C 74.183 276.227 74.193 276.291 75.33 275.224 C 77.374 273.303 77.564 268.481 75.7 265.838 C 73.695 262.997 72.546 262.627 65.648 262.609 L 59.63 262.593 L 59.63 273.519 M 82.593 273.519 L 82.593 284.444 L 90.572 284.444 L 98.551 284.444 L 98.442 281.759 L 98.333 279.074 L 93.796 278.97 L 89.259 278.866 L 89.259 277.409 L 89.259 275.952 L 93.056 275.846 L 96.852 275.741 L 96.961 273.241 L 97.071 270.741 L 93.165 270.741 L 89.259 270.741 L 89.259 269.444 L 89.259 268.148 L 93.704 268.148 L 98.148 268.148 L 98.148 265.37 L 98.148 262.593 L 90.37 262.593 L 82.593 262.593 L 82.593 273.519 M 108.569 263.781 C 108.37 264.451 107.848 265.917 107.409 267.037 C 106.97 268.157 106.469 269.491 106.296 270 C 106.123 270.509 105.628 271.843 105.195 272.963 C 103.711 276.806 101.111 284.036 101.111 284.319 C 101.111 284.388 102.681 284.444 104.6 284.444 L 108.089 284.444 L 108.327 283.241 C 108.929 280.195 109.129 280 111.655 280 L 113.962 280 L 114.556 281.389 C 114.883 282.153 115.202 283.111 115.265 283.519 C 115.382 284.282 122.222 284.93 122.222 284.178 C 122.222 283.727 121.621 281.883 120.741 279.63 C 120.303 278.509 119.803 277.176 119.63 276.667 C 119.456 276.157 118.961 274.824 118.529 273.704 C 118.097 272.583 117.398 270.667 116.975 269.444 C 116.553 268.222 115.992 266.722 115.729 266.111 C 115.467 265.5 115.098 264.5 114.911 263.889 C 114.576 262.795 114.525 262.776 111.751 262.67 L 108.932 262.562 L 108.569 263.781 M 122.593 265.37 L 122.593 268.148 L 125.556 268.148 L 128.519 268.148 L 128.519 276.296 L 128.519 284.444 L 131.852 284.444 L 135.185 284.444 L 135.185 276.296 L 135.185 268.148 L 138.148 268.148 L 141.111 268.148 L 141.111 265.37 L 141.111 262.593 L 131.852 262.593 L 122.593 262.593 L 122.593 265.37 M 145.185 273.519 L 145.185 284.444 L 148.333 284.444 L 151.481 284.444 L 151.481 273.519 L 151.481 262.593 L 148.333 262.593 L 145.185 262.593 L 145.185 273.519 M 155.185 262.69 C 155.185 262.744 155.531 263.703 155.954 264.82 C 156.376 265.938 156.864 267.269 157.037 267.778 C 157.21 268.287 157.71 269.62 158.148 270.741 C 158.586 271.861 159.086 273.194 159.259 273.704 C 159.432 274.213 159.93 275.546 160.364 276.667 C 160.798 277.787 161.597 279.995 162.139 281.574 L 163.125 284.444 L 165.989 284.444 L 168.854 284.444 L 169.212 283.241 C 169.41 282.579 169.93 281.12 170.369 280 C 170.808 278.88 171.306 277.546 171.477 277.037 C 172.083 275.228 174.052 269.784 174.826 267.778 C 175.258 266.657 175.748 265.324 175.915 264.815 C 176.082 264.306 176.338 263.597 176.483 263.241 C 176.723 262.65 176.43 262.593 173.195 262.593 L 169.644 262.593 L 169.416 263.611 C 169.291 264.171 168.97 265.296 168.702 266.111 C 168.434 266.926 167.757 269.211 167.198 271.19 C 165.912 275.743 165.968 275.772 164.196 269.63 C 163.873 268.509 163.396 266.926 163.136 266.111 C 162.876 265.296 162.561 264.171 162.436 263.611 L 162.208 262.593 L 158.697 262.593 C 156.765 262.593 155.185 262.637 155.185 262.69 M 180 273.519 L 180 284.444 L 187.979 284.444 L 195.958 284.444 L 195.85 281.759 L 195.741 279.074 L 191.204 278.97 L 186.667 278.866 L 186.667 277.396 L 186.667 275.926 L 190.556 275.926 L 194.444 275.926 L 194.444 273.333 L 194.444 270.741 L 190.556 270.741 L 186.667 270.741 L 186.667 269.444 L 186.667 268.148 L 191.111 268.148 L 195.556 268.148 L 195.556 265.37 L 195.556 262.593 L 187.778 262.593 L 180 262.593 L 180 273.519 M 207.778 262.69 C 207.778 262.744 208.125 263.703 208.55 264.82 C 208.974 265.938 209.42 267.181 209.54 267.583 C 209.661 267.984 209.979 268.734 210.248 269.249 C 210.516 269.764 210.737 270.327 210.738 270.5 C 210.74 270.672 210.976 271.339 211.264 271.981 C 211.552 272.623 212.32 274.565 212.971 276.296 C 213.622 278.028 214.368 279.944 214.629 280.556 C 214.89 281.167 215.369 282.292 215.694 283.056 L 216.284 284.444 L 218.889 284.444 C 221.828 284.444 221.446 284.831 223.374 279.912 C 224.359 277.397 224.302 277.366 225.739 281.224 L 226.87 284.259 L 229.64 284.366 L 232.409 284.472 L 233.677 281.218 C 234.374 279.428 235.149 277.463 235.399 276.852 C 235.648 276.241 236.63 273.741 237.58 271.296 C 238.531 268.852 239.537 266.269 239.818 265.556 C 241.056 262.406 241.214 262.593 237.319 262.593 L 233.848 262.593 L 232.078 268.241 C 231.104 271.347 230.12 274.435 229.891 275.102 L 229.474 276.316 L 228.976 274.607 C 228.492 272.948 228.527 272.753 230.165 267.925 C 231.093 265.19 231.852 262.871 231.852 262.772 C 231.852 262.673 230.539 262.593 228.934 262.593 C 225.646 262.593 225.842 262.413 224.716 266.481 L 224.204 268.333 L 223.79 266.468 C 222.909 262.504 223.005 262.593 219.599 262.593 C 216.882 262.593 216.612 262.656 216.839 263.241 C 218.61 267.81 219.984 272.865 219.773 274.039 C 219.343 276.437 219.054 276.359 218.208 273.617 C 217.751 272.137 216.786 269.051 216.064 266.759 L 214.75 262.593 L 211.264 262.593 C 209.347 262.593 207.778 262.637 207.778 262.69 M 244.074 273.519 L 244.074 284.444 L 247.407 284.444 L 250.741 284.444 L 250.741 273.519 L 250.741 262.593 L 247.407 262.593 L 244.074 262.593 L 244.074 273.519 M 255.926 265.37 L 255.926 268.148 L 260.401 268.148 L 264.877 268.148 L 263.652 269.722 C 262.978 270.588 262.333 271.38 262.219 271.481 C 262.105 271.583 261.359 272.5 260.562 273.519 C 259.764 274.537 258.937 275.537 258.723 275.741 C 256.369 277.979 255.556 279.59 255.556 282.007 L 255.556 284.444 L 264.275 284.444 L 272.995 284.444 L 272.887 281.759 L 272.778 279.074 L 268.426 278.97 C 266.032 278.912 264.074 278.776 264.074 278.667 C 264.074 278.467 265.928 275.897 266.319 275.556 C 266.435 275.454 267.895 273.595 269.562 271.425 L 272.593 267.48 L 272.593 265.037 L 272.593 262.593 L 264.259 262.593 L 255.926 262.593 L 255.926 265.37 M 283.306 263.385 C 283.072 263.821 282.746 264.612 282.58 265.144 C 282.414 265.676 281.919 267.028 281.481 268.148 C 281.044 269.269 280.544 270.602 280.37 271.111 C 280.197 271.62 279.697 272.954 279.259 274.074 C 278.821 275.194 278.32 276.528 278.145 277.037 C 277.97 277.546 277.316 279.357 276.692 281.061 C 276.067 282.765 275.556 284.223 275.556 284.302 C 275.556 284.38 277.06 284.444 278.898 284.444 C 282.59 284.444 282.611 284.429 283.302 281.296 C 283.543 280.203 283.588 280.183 286.174 280.077 L 288.801 279.969 L 289.053 281.314 C 289.623 284.354 289.749 284.444 293.393 284.444 C 297.007 284.444 297.097 284.369 296.148 282.142 C 295.653 280.979 295.052 279.42 293.931 276.389 C 293.648 275.625 293.158 274.333 292.842 273.519 C 292.527 272.704 291.747 270.537 291.111 268.704 C 290.474 266.87 289.672 264.747 289.328 263.986 L 288.704 262.601 L 286.217 262.597 C 284.052 262.593 283.675 262.695 283.306 263.385 M 300.168 263.061 C 300.069 263.318 300.032 268.193 300.087 273.894 L 300.185 284.259 L 303.426 284.366 L 306.667 284.473 L 306.667 281.101 L 306.667 277.729 L 307.633 277.846 C 308.318 277.929 308.836 278.394 309.413 279.444 C 309.86 280.259 310.716 281.718 311.314 282.685 L 312.402 284.444 L 316.016 284.444 C 318.003 284.444 319.63 284.358 319.63 284.252 C 319.63 284.146 319.213 283.399 318.704 282.593 C 318.194 281.786 317.778 281.054 317.778 280.966 C 317.778 280.877 317.194 279.92 316.481 278.837 C 315.024 276.625 314.937 276.222 315.768 275.533 C 319.266 272.63 318.096 265.769 313.709 263.465 C 311.744 262.433 300.537 262.098 300.168 263.061 M 323.333 273.519 L 323.333 284.444 L 328.856 284.444 C 338.784 284.444 342.963 281.208 342.963 273.519 C 342.963 265.829 338.784 262.593 328.856 262.593 L 323.333 262.593 L 323.333 273.519 M 351.048 263.261 C 344.247 266.483 345.308 273.733 352.956 276.298 C 356.031 277.329 356.667 277.68 356.667 278.346 C 356.667 279.281 353.922 278.995 351.246 277.782 C 348.35 276.469 348.499 276.408 347.037 279.503 C 345.695 282.342 345.689 282.33 349.047 283.548 C 358.363 286.93 367.124 281.464 363.215 274.708 C 362.102 272.784 357.622 270.37 355.163 270.37 C 354.095 270.37 353.203 269.087 353.88 268.526 C 354.602 267.927 356.179 268.234 358.586 269.443 C 360.811 270.561 360.708 270.612 362.165 267.653 C 363.578 264.782 363.582 265.108 362.13 264.38 C 358.273 262.448 353.734 261.989 351.048 263.261 M 69.926 268.593 C 71.454 270.121 69.996 272.593 67.566 272.593 L 65.926 272.593 L 65.926 270.37 L 65.926 268.148 L 67.704 268.148 C 68.681 268.148 69.681 268.348 69.926 268.593 M 310.667 268.593 C 312.163 270.089 310.667 272.593 308.276 272.593 L 306.667 272.593 L 306.667 270.37 L 306.667 268.148 L 308.444 268.148 C 309.422 268.148 310.422 268.348 310.667 268.593 M 334.257 268.887 C 338.406 271.452 336.368 278.889 331.517 278.889 L 330 278.889 L 330 273.519 L 330 268.148 L 331.53 268.148 C 332.413 268.148 333.567 268.461 334.257 268.887 M 286.986 273.426 L 287.678 275.926 L 286.078 275.926 L 284.477 275.926 L 284.962 274.537 C 285.229 273.773 285.576 272.481 285.734 271.667 C 286.055 270.01 286.031 269.976 286.986 273.426 M 112.864 274.72 C 113.056 275.899 113.03 275.926 111.686 275.926 C 110.172 275.926 110.119 275.499 111.229 272.277 L 111.657 271.036 L 112.163 272.275 C 112.441 272.957 112.757 274.057 112.864 274.72" stroke-linecap="round" />
</g>
<g transform="matrix(1.44 0 0 1.44 325.61 180.86)" id="OfCiUVkXZwimOBmO9OWai"  >
<path style="stroke: none; stroke-width: 1; stroke-dasharray: none; stroke-linecap: butt; stroke-dashoffset: 0; stroke-linejoin: miter; stroke-miterlimit: 4; fill: rgb(103,100,100); fill-rule: evenodd; opacity: 1;" vector-effect="non-scaling-stroke"  transform=" translate(-252.8, -204.06)" d="M 287.104 98.052 C 294.185 98.144 295.531 98.249 295.677 98.718 C 295.795 99.095 295.831 99.064 295.791 98.618 C 295.736 98.012 295.088 97.962 287.217 97.953 L 278.704 97.942 L 287.104 98.052 M 316.944 98.054 C 318.829 98.121 321.912 98.121 323.796 98.054 C 325.681 97.987 324.139 97.932 320.37 97.932 C 316.602 97.932 315.06 97.987 316.944 98.054 M 262.947 101.574 C 263.856 102.542 264.647 103.333 264.707 103.333 C 264.985 103.333 264.691 103.001 263.056 101.466 L 261.296 99.815 L 262.947 101.574 M 326.753 101.111 C 326.753 101.824 326.829 102.116 326.922 101.759 C 327.015 101.403 327.015 100.819 326.922 100.463 C 326.829 100.106 326.753 100.398 326.753 101.111 M 295.271 101.852 C 295.271 102.565 295.347 102.856 295.44 102.5 C 295.534 102.144 295.534 101.56 295.44 101.204 C 295.347 100.847 295.271 101.139 295.271 101.852 M 326.39 105 C 326.394 105.815 326.47 106.105 326.558 105.644 C 326.647 105.183 326.643 104.516 326.551 104.162 C 326.458 103.808 326.386 104.185 326.39 105 M 294.901 105.556 C 294.901 106.269 294.977 106.56 295.07 106.204 C 295.163 105.847 295.163 105.264 295.07 104.907 C 294.977 104.551 294.901 104.843 294.901 105.556 M 326.019 109.074 C 326.023 109.889 326.099 110.179 326.188 109.718 C 326.276 109.257 326.273 108.591 326.18 108.236 C 326.088 107.882 326.015 108.259 326.019 109.074 M 294.53 109.259 C 294.53 109.972 294.607 110.264 294.7 109.907 C 294.793 109.551 294.793 108.968 294.7 108.611 C 294.607 108.255 294.53 108.546 294.53 109.259 M 294.167 113.148 C 294.172 113.963 294.247 114.253 294.336 113.792 C 294.425 113.331 294.421 112.665 294.329 112.31 C 294.236 111.956 294.163 112.333 294.167 113.148 M 325.649 113.148 C 325.653 113.963 325.729 114.253 325.818 113.792 C 325.906 113.331 325.903 112.665 325.81 112.31 C 325.717 111.956 325.645 112.333 325.649 113.148 M 268.637 117.037 C 268.637 118.361 268.704 118.903 268.786 118.241 C 268.869 117.579 268.869 116.495 268.786 115.833 C 268.704 115.171 268.637 115.713 268.637 117.037 M 293.797 116.852 C 293.801 117.667 293.877 117.956 293.966 117.496 C 294.054 117.035 294.051 116.368 293.958 116.014 C 293.865 115.66 293.793 116.037 293.797 116.852 M 325.279 117.222 C 325.283 118.037 325.359 118.327 325.447 117.866 C 325.536 117.405 325.532 116.739 325.44 116.385 C 325.347 116.03 325.274 116.407 325.279 117.222 M 293.419 120.741 C 293.419 121.454 293.495 121.745 293.589 121.389 C 293.682 121.032 293.682 120.449 293.589 120.093 C 293.495 119.736 293.419 120.028 293.419 120.741 M 324.908 121.296 C 324.912 122.111 324.988 122.401 325.077 121.94 C 325.165 121.479 325.162 120.813 325.069 120.459 C 324.977 120.105 324.904 120.481 324.908 121.296 M 293.049 124.444 C 293.049 125.157 293.125 125.449 293.218 125.093 C 293.311 124.736 293.311 124.153 293.218 123.796 C 293.125 123.44 293.049 123.731 293.049 124.444 M 324.53 125.185 C 324.53 125.898 324.607 126.19 324.7 125.833 C 324.793 125.477 324.793 124.894 324.7 124.537 C 324.607 124.181 324.53 124.472 324.53 125.185 M 292.679 128.148 C 292.679 128.861 292.755 129.153 292.848 128.796 C 292.941 128.44 292.941 127.856 292.848 127.5 C 292.755 127.144 292.679 127.435 292.679 128.148 M 324.16 129.259 C 324.16 129.972 324.236 130.264 324.329 129.907 C 324.423 129.551 324.423 128.968 324.329 128.611 C 324.236 128.255 324.16 128.546 324.16 129.259 M 292.308 131.852 C 292.308 132.565 292.384 132.856 292.478 132.5 C 292.571 132.144 292.571 131.56 292.478 131.204 C 292.384 130.847 292.308 131.139 292.308 131.852 M 323.79 133.333 C 323.79 134.046 323.866 134.338 323.959 133.981 C 324.052 133.625 324.052 133.042 323.959 132.685 C 323.866 132.329 323.79 132.62 323.79 133.333 M 291.938 135.556 C 291.938 136.269 292.014 136.56 292.107 136.204 C 292.2 135.847 292.2 135.264 292.107 134.907 C 292.014 134.551 291.938 134.843 291.938 135.556 M 323.419 137.407 C 323.419 138.12 323.495 138.412 323.589 138.056 C 323.682 137.699 323.682 137.116 323.589 136.759 C 323.495 136.403 323.419 136.694 323.419 137.407 M 291.567 139.259 C 291.567 139.972 291.644 140.264 291.737 139.907 C 291.83 139.551 291.83 138.968 291.737 138.611 C 291.644 138.255 291.567 138.546 291.567 139.259 M 323.056 141.296 C 323.06 142.111 323.136 142.401 323.225 141.94 C 323.314 141.479 323.31 140.813 323.217 140.459 C 323.125 140.105 323.052 140.481 323.056 141.296 M 291.197 142.963 C 291.197 143.676 291.273 143.968 291.366 143.611 C 291.46 143.255 291.46 142.671 291.366 142.315 C 291.273 141.958 291.197 142.25 291.197 142.963 M 322.686 145.37 C 322.69 146.185 322.766 146.475 322.855 146.014 C 322.943 145.553 322.94 144.887 322.847 144.533 C 322.754 144.179 322.682 144.556 322.686 145.37 M 322.316 149.444 C 322.32 150.259 322.396 150.549 322.484 150.088 C 322.573 149.628 322.569 148.961 322.477 148.607 C 322.384 148.253 322.312 148.63 322.316 149.444 M 290.456 150.741 C 290.456 151.454 290.533 151.745 290.626 151.389 C 290.719 151.032 290.719 150.449 290.626 150.093 C 290.533 149.736 290.456 150.028 290.456 150.741 M 321.945 153.519 C 321.949 154.333 322.025 154.623 322.114 154.162 C 322.202 153.702 322.199 153.035 322.106 152.681 C 322.014 152.327 321.941 152.704 321.945 153.519 M 290.086 154.444 C 290.086 155.157 290.162 155.449 290.255 155.093 C 290.348 154.736 290.348 154.153 290.255 153.796 C 290.162 153.44 290.086 153.731 290.086 154.444 M 321.567 157.407 C 321.567 158.12 321.644 158.412 321.737 158.056 C 321.83 157.699 321.83 157.116 321.737 156.759 C 321.644 156.403 321.567 156.694 321.567 157.407 M 289.716 158.148 C 289.716 158.861 289.792 159.153 289.885 158.796 C 289.978 158.44 289.978 157.856 289.885 157.5 C 289.792 157.144 289.716 157.435 289.716 158.148 M 321.197 161.481 C 321.197 162.194 321.273 162.486 321.366 162.13 C 321.46 161.773 321.46 161.19 321.366 160.833 C 321.273 160.477 321.197 160.769 321.197 161.481 M 289.345 161.852 C 289.345 162.565 289.421 162.856 289.515 162.5 C 289.608 162.144 289.608 161.56 289.515 161.204 C 289.421 160.847 289.345 161.139 289.345 161.852 M 238.391 182.13 C 238.296 182.282 242.187 182.407 247.037 182.407 C 251.887 182.407 255.778 182.282 255.684 182.13 C 255.589 181.977 251.698 181.852 247.037 181.852 C 242.376 181.852 238.485 181.977 238.391 182.13 M 220.481 202.222 C 220.481 203.343 220.551 203.801 220.636 203.241 C 220.721 202.681 220.721 201.764 220.636 201.204 C 220.551 200.644 220.481 201.102 220.481 202.222 M 206.667 222.037 C 207.358 222.75 208.006 223.333 208.108 223.333 C 208.21 223.333 207.728 222.75 207.037 222.037 C 206.346 221.324 205.697 220.741 205.595 220.741 C 205.494 220.741 205.976 221.324 206.667 222.037 M 223.426 226.922 C 223.782 227.015 224.366 227.015 224.722 226.922 C 225.079 226.829 224.787 226.753 224.074 226.753 C 223.361 226.753 223.069 226.829 223.426 226.922 M 209.206 301.574 C 209.134 301.829 209.166 303.87 209.279 306.111 L 209.483 310.185 L 209.556 305.648 C 209.624 301.436 209.537 300.417 209.206 301.574 M 178.604 304.074 C 178.604 304.787 178.681 305.079 178.774 304.722 C 178.867 304.366 178.867 303.782 178.774 303.426 C 178.681 303.069 178.604 303.361 178.604 304.074 M 254.569 305.556 C 254.569 307.083 254.634 307.708 254.714 306.944 C 254.794 306.181 254.794 304.931 254.714 304.167 C 254.634 303.403 254.569 304.028 254.569 305.556" stroke-linecap="round" />
</g>
<g transform="matrix(1.44 0 0 1.44 285.51 179.13)" id="CZe1l_Q8sm7-IN_SX0DSN"  >
<path style="stroke: none; stroke-width: 1; stroke-dasharray: none; stroke-linecap: butt; stroke-dashoffset: 0; stroke-linejoin: miter; stroke-miterlimit: 4; fill: rgb(126,124,124); fill-rule: evenodd; opacity: 1;" vector-effect="non-scaling-stroke"  transform=" translate(-224.88, -202.85)" d="M 246.759 96.552 C 247.116 96.645 247.699 96.645 248.056 96.552 C 248.412 96.458 248.12 96.382 247.407 96.382 C 246.694 96.382 246.403 96.458 246.759 96.552 M 249.722 96.552 C 250.079 96.645 250.662 96.645 251.019 96.552 C 251.375 96.458 251.083 96.382 250.37 96.382 C 249.657 96.382 249.366 96.458 249.722 96.552 M 244.907 114.7 C 245.264 114.793 245.847 114.793 246.204 114.7 C 246.56 114.607 246.269 114.53 245.556 114.53 C 244.843 114.53 244.551 114.607 244.907 114.7 M 303.452 225 C 303.525 225.712 303.805 225.741 310.653 225.753 L 317.778 225.765 L 310.767 225.653 C 304.5 225.552 303.735 225.472 303.565 224.899 C 303.422 224.415 303.394 224.439 303.452 225 M 268.613 225.185 C 268.741 225.654 269.886 225.743 275.956 225.754 L 283.148 225.766 L 276.128 225.653 C 271.115 225.571 269.015 225.409 268.785 225.084 C 268.551 224.755 268.504 224.783 268.613 225.185 M 131.983 306.852 C 131.982 308.685 132.045 309.482 132.122 308.622 C 132.2 307.763 132.201 306.263 132.125 305.289 C 132.048 304.315 131.984 305.019 131.983 306.852 M 222.308 308.519 C 222.308 309.231 222.384 309.523 222.478 309.167 C 222.571 308.81 222.571 308.227 222.478 307.87 C 222.384 307.514 222.308 307.806 222.308 308.519" stroke-linecap="round" />
</g>
</svg>