<svg id="svg" version="1.1" xmlns="http://www.w3.org/2000/svg" xmlns:xlink="http://www.w3.org/1999/xlink" width="400" height="400" viewBox="0, 0, 400,400"><g id="svgg"><path id="path0" d="M190.741 163.148 L 190.741 240.741 268.148 240.741 L 345.556 240.741 345.530 194.167 C 345.515 165.442,345.375 147.876,345.164 148.333 C 344.976 148.741,338.838 166.324,331.523 187.407 L 318.223 225.741 310.778 225.841 C 303.459 225.940,303.333 225.928,303.333 225.173 C 303.333 224.750,304.251 210.872,305.373 194.332 C 308.097 154.175,307.932 157.304,307.236 158.889 C 306.923 159.602,301.434 174.935,295.040 192.963 L 283.413 225.741 275.966 225.841 C 271.870 225.896,268.514 225.813,268.508 225.656 C 268.479 224.869,278.219 98.956,278.364 98.241 L 278.533 97.407 287.056 97.407 C 294.207 97.407,295.612 97.495,295.787 97.951 C 295.991 98.481,289.483 165.105,289.030 167.130 C 288.859 167.896,288.943 168.148,289.369 168.148 C 290.182 168.148,290.902 166.114,302.216 131.852 C 307.766 115.046,312.633 100.421,313.032 99.352 L 313.757 97.407 320.375 97.407 C 324.134 97.407,327.087 97.559,327.210 97.758 C 327.329 97.950,326.005 113.590,324.269 132.512 C 322.532 151.434,321.111 167.193,321.111 167.532 C 321.111 168.611,322.083 168.194,322.483 166.944 C 330.199 142.845,344.926 97.889,345.192 97.623 C 345.399 97.416,345.556 94.738,345.556 91.407 L 345.556 85.556 268.148 85.556 L 190.741 85.556 190.741 163.148 M255.015 96.863 C 267.918 100.176,271.364 110.891,266.566 132.778 L 264.618 141.667 255.945 141.766 C 251.176 141.821,247.153 141.738,247.006 141.581 C 246.859 141.424,247.636 137.213,248.732 132.222 C 249.829 127.231,250.726 122.231,250.725 121.111 C 250.722 112.445,241.298 112.712,237.972 121.473 C 236.401 125.612,221.014 198.524,220.970 202.037 C 220.910 206.947,222.109 208.512,225.926 208.505 C 231.386 208.495,233.209 205.547,235.961 192.273 C 236.960 187.458,237.863 183.144,237.969 182.685 L 238.162 181.852 247.044 181.852 C 251.929 181.852,255.926 181.994,255.926 182.167 C 255.926 183.889,251.876 201.318,250.795 204.251 C 244.880 220.285,231.723 229.171,216.982 227.085 C 206.062 225.540,200.038 216.379,201.463 203.484 C 201.970 198.900,217.863 123.784,219.125 120.011 C 224.776 103.107,240.311 93.088,255.015 96.863 " stroke="none" fill="#7c8494" fill-rule="evenodd"></path><path id="path1" d="M101.217 86.624 C 83.665 92.734,80.586 116.283,96.000 126.530 C 113.107 137.904,134.841 123.030,130.569 102.872 C 127.882 90.194,113.628 82.304,101.217 86.624 M244.011 97.020 C 232.870 99.063,223.716 107.663,219.489 120.057 C 218.387 123.287,202.502 197.692,201.829 202.775 C 199.866 217.598,207.282 226.827,221.111 226.773 C 238.413 226.704,248.418 215.976,253.486 192.056 C 254.433 187.585,255.305 183.541,255.424 183.068 L 255.639 182.208 247.010 182.308 L 238.381 182.407 236.451 191.722 C 233.730 204.843,232.150 207.818,227.326 208.898 C 222.956 209.876,220.430 207.486,220.387 202.335 C 220.367 199.989,236.231 124.956,237.475 121.513 C 240.703 112.580,250.417 111.759,251.005 120.370 C 251.147 122.448,248.563 136.282,247.181 140.840 C 246.995 141.456,247.505 141.489,255.597 141.396 L 264.211 141.296 266.162 132.407 C 269.864 115.542,268.932 107.262,262.672 101.407 C 258.593 97.591,250.838 95.768,244.011 97.020 M345.402 97.727 C 345.293 97.903,340.438 112.778,334.614 130.783 C 321.543 171.188,322.322 168.956,321.334 168.815 C 320.691 168.723,320.571 168.478,320.646 167.407 C 320.815 164.999,326.632 101.310,326.828 99.722 L 327.023 98.148 320.385 98.148 L 313.747 98.148 302.404 132.315 C 289.763 170.392,290.305 168.889,289.219 168.889 C 288.536 168.889,288.462 168.719,288.614 167.500 C 288.772 166.230,295.556 98.591,295.556 98.282 C 295.556 98.209,291.764 98.148,287.129 98.148 L 278.703 98.148 273.949 159.722 C 271.335 193.588,269.103 222.258,268.989 223.434 L 268.782 225.572 275.936 225.471 L 283.090 225.370 285.656 218.148 C 287.067 214.176,292.266 199.509,297.209 185.556 C 307.148 157.501,307.183 157.407,307.815 157.407 C 308.146 157.407,308.201 158.284,308.029 160.833 C 307.901 162.718,306.876 177.805,305.750 194.360 C 304.625 210.916,303.704 224.711,303.704 225.016 C 303.704 225.494,304.697 225.557,310.801 225.471 L 317.897 225.370 330.616 188.704 C 345.793 144.949,345.195 146.629,345.517 146.828 C 345.659 146.916,349.600 135.983,354.276 122.534 C 358.952 109.085,362.833 97.930,362.901 97.745 C 363.060 97.311,345.669 97.294,345.402 97.727 M148.915 108.367 C 143.064 109.940,137.634 114.404,134.314 120.370 C 125.824 135.626,110.139 140.766,94.764 133.331 C 81.824 127.073,67.192 132.926,62.759 146.131 C 56.437 164.966,75.926 182.153,93.878 173.575 C 98.698 171.272,101.331 168.477,105.502 161.239 C 113.267 147.761,128.579 143.449,144.184 150.346 C 158.563 156.701,173.080 149.888,176.848 135.015 C 180.915 118.964,165.214 103.985,148.915 108.367 M124.861 153.177 C 119.108 154.724,113.075 159.713,110.044 165.428 C 102.089 180.432,86.321 185.695,70.776 178.535 C 54.094 170.852,37.778 180.666,37.778 198.383 C 37.778 221.874,68.973 229.672,79.777 208.882 C 87.768 193.504,103.745 187.672,118.881 194.607 C 129.860 199.637,138.641 198.407,146.335 190.762 C 162.332 174.863,146.601 147.330,124.861 153.177 M102.407 198.186 C 84.109 200.808,76.787 223.390,90.041 236.325 C 100.439 246.472,117.211 244.774,124.768 232.808 C 135.157 216.358,121.641 195.431,102.407 198.186 M41.852 263.571 C 29.683 270.484,38.976 289.694,51.447 283.403 C 56.099 281.056,56.346 279.354,52.345 277.228 L 50.431 276.211 49.092 277.550 C 45.785 280.857,41.644 276.663,43.163 271.547 C 44.191 268.087,46.785 267.180,49.081 269.477 C 50.570 270.965,50.664 270.956,53.297 269.065 C 55.456 267.514,55.419 267.610,54.458 266.035 C 52.440 262.724,45.671 261.401,41.852 263.571 M59.630 273.519 L 59.630 284.444 62.778 284.444 L 65.926 284.444 65.926 281.111 C 65.926 275.949,67.053 276.352,70.589 282.778 L 71.405 284.259 75.147 284.365 C 79.099 284.476,79.328 284.362,78.148 282.862 C 77.741 282.344,77.407 281.824,77.407 281.707 C 77.407 281.590,76.741 280.405,75.926 279.074 C 74.188 276.234,74.205 276.350,75.353 275.261 C 77.445 273.278,77.619 268.563,75.702 265.835 C 73.683 262.963,72.573 262.606,65.648 262.599 L 59.630 262.593 59.630 273.519 M82.593 273.519 L 82.593 284.444 90.556 284.444 L 98.519 284.444 98.519 281.667 L 98.519 278.889 93.889 278.889 L 89.259 278.889 89.259 277.407 L 89.259 275.926 93.148 275.926 L 97.037 275.926 97.037 273.333 L 97.037 270.741 93.148 270.741 L 89.259 270.741 89.259 269.444 L 89.259 268.148 93.704 268.148 L 98.148 268.148 98.148 265.370 L 98.148 262.593 90.370 262.593 L 82.593 262.593 82.593 273.519 M108.565 263.796 C 108.368 264.458,107.848 265.917,107.409 267.037 C 106.970 268.157,106.469 269.491,106.296 270.000 C 106.123 270.509,105.623 271.843,105.185 272.963 C 104.747 274.083,104.244 275.417,104.067 275.926 C 103.890 276.435,103.494 277.519,103.187 278.333 C 101.536 282.712,101.111 283.905,101.111 284.161 C 101.111 284.317,102.667 284.444,104.569 284.444 L 108.027 284.444 108.645 282.222 L 109.262 280.000 111.600 280.000 C 114.127 280.000,115.185 281.043,115.185 283.531 C 115.185 284.438,115.209 284.444,118.733 284.444 L 122.281 284.444 122.017 283.242 C 121.872 282.581,121.525 281.498,121.247 280.835 C 120.968 280.172,120.491 279.041,120.185 278.321 C 119.880 277.601,119.630 276.834,119.630 276.617 C 119.630 276.401,119.402 275.698,119.124 275.056 C 118.246 273.026,117.488 271.025,116.298 267.593 C 114.388 262.085,114.855 262.593,111.692 262.593 L 108.924 262.593 108.565 263.796 M122.593 265.370 L 122.593 268.148 125.556 268.148 L 128.519 268.148 128.519 276.296 L 128.519 284.444 131.852 284.444 L 135.185 284.444 135.185 276.296 L 135.185 268.148 138.148 268.148 L 141.111 268.148 141.111 265.370 L 141.111 262.593 131.852 262.593 L 122.593 262.593 122.593 265.370 M145.185 273.519 L 145.185 284.444 148.333 284.444 L 151.481 284.444 151.481 273.519 L 151.481 262.593 148.333 262.593 L 145.185 262.593 145.185 273.519 M155.185 262.690 C 155.185 262.744,155.526 263.703,155.942 264.820 C 157.100 267.930,158.519 271.854,159.155 273.704 C 159.470 274.620,159.873 275.529,160.049 275.722 C 160.226 275.916,160.376 276.416,160.382 276.833 C 160.389 277.251,160.639 277.916,160.938 278.312 C 161.237 278.707,161.481 279.405,161.481 279.864 C 161.481 280.322,161.625 280.786,161.801 280.895 C 161.977 281.003,162.332 281.846,162.590 282.768 L 163.059 284.444 165.957 284.444 L 168.854 284.444 169.212 283.241 C 169.410 282.579,169.925 281.120,170.358 280.000 C 170.791 278.880,171.623 276.630,172.208 275.000 C 173.717 270.793,175.033 267.175,175.910 264.820 C 176.326 263.703,176.667 262.744,176.667 262.690 C 176.667 261.993,169.648 262.709,169.456 263.426 C 169.075 264.851,168.075 268.264,167.586 269.815 C 167.328 270.630,166.912 272.085,166.661 273.049 C 166.131 275.082,165.744 275.032,165.153 272.855 C 164.921 271.998,164.500 270.546,164.217 269.630 C 163.935 268.713,163.354 266.755,162.927 265.278 L 162.150 262.593 158.668 262.593 C 156.752 262.593,155.185 262.637,155.185 262.690 M180.000 273.519 L 180.000 284.444 187.979 284.444 L 195.958 284.444 195.850 281.759 L 195.741 279.074 191.204 278.970 L 186.667 278.866 186.667 277.396 L 186.667 275.926 190.556 275.926 L 194.444 275.926 194.444 273.333 L 194.444 270.741 190.556 270.741 L 186.667 270.741 186.667 269.456 L 186.667 268.171 191.204 268.067 L 195.741 267.963 195.850 265.278 L 195.958 262.593 187.979 262.593 L 180.000 262.593 180.000 273.519 M207.778 262.939 C 207.778 263.129,208.177 264.254,208.665 265.439 C 209.153 266.623,209.912 268.509,210.352 269.630 C 210.791 270.750,211.289 272.000,211.457 272.407 C 211.625 272.815,212.033 273.856,212.363 274.722 C 214.232 279.625,214.178 279.491,215.694 283.056 L 216.284 284.444 218.889 284.444 L 221.493 284.444 222.084 283.056 C 223.202 280.428,223.611 279.442,223.946 278.578 C 224.252 277.787,224.354 277.898,225.129 279.875 C 227.082 284.852,226.673 284.446,229.716 284.435 L 232.407 284.425 233.006 283.046 C 233.335 282.287,234.138 280.250,234.791 278.519 C 235.444 276.787,236.124 275.037,236.303 274.630 C 236.618 273.909,237.633 271.341,238.790 268.333 C 239.103 267.519,239.574 266.352,239.837 265.741 C 240.099 265.130,240.428 264.171,240.567 263.611 L 240.821 262.593 237.328 262.593 L 233.834 262.593 232.795 265.833 C 231.266 270.601,230.523 272.954,229.976 274.757 L 229.488 276.365 228.996 274.678 C 228.521 273.047,228.561 272.820,230.178 268.005 C 231.099 265.263,231.852 262.923,231.852 262.806 C 231.852 262.689,230.514 262.593,228.880 262.593 C 225.520 262.593,225.608 262.511,224.730 266.468 L 224.316 268.333 223.990 267.037 C 223.810 266.324,223.449 265.074,223.187 264.259 L 222.711 262.778 219.643 262.669 C 216.817 262.570,216.597 262.613,216.849 263.225 C 216.999 263.590,217.255 264.389,217.418 265.000 C 217.777 266.351,218.423 268.209,219.219 270.175 C 219.547 270.984,219.789 272.460,219.757 273.455 C 219.692 275.531,219.100 276.480,218.713 275.130 C 218.576 274.651,217.709 271.843,216.786 268.889 C 215.864 265.935,215.048 263.310,214.974 263.056 C 214.811 262.501,207.778 262.386,207.778 262.939 M244.074 273.519 L 244.074 284.444 247.407 284.444 L 250.741 284.444 250.741 273.519 L 250.741 262.593 247.407 262.593 L 244.074 262.593 244.074 273.519 M255.926 265.359 L 255.926 268.125 260.381 268.229 L 264.835 268.333 263.714 269.560 C 263.097 270.235,262.593 270.943,262.593 271.134 C 262.593 271.325,262.454 271.481,262.285 271.481 C 262.116 271.481,261.412 272.268,260.722 273.230 C 260.031 274.191,259.211 275.240,258.900 275.560 C 256.140 278.394,255.556 279.520,255.556 282.007 L 255.556 284.444 264.259 284.444 L 272.963 284.444 272.963 281.667 L 272.963 278.889 268.519 278.889 C 263.730 278.889,263.604 278.833,265.000 277.327 C 265.509 276.778,265.926 276.215,265.926 276.076 C 265.926 275.936,266.150 275.637,266.424 275.411 C 266.698 275.185,268.198 273.315,269.758 271.255 L 272.593 267.511 272.593 265.052 L 272.593 262.593 264.259 262.593 L 255.926 262.593 255.926 265.359 M283.015 263.981 C 282.758 264.745,282.326 265.954,282.056 266.667 C 281.786 267.380,281.315 268.630,281.009 269.444 C 280.704 270.259,280.185 271.634,279.857 272.500 C 279.096 274.504,278.288 276.658,277.634 278.426 C 277.352 279.190,276.861 280.481,276.545 281.296 C 275.234 284.668,275.060 284.444,279.000 284.444 L 282.495 284.444 283.119 282.222 L 283.742 280.000 286.315 280.000 C 288.633 280.000,288.889 280.073,288.889 280.733 C 288.889 281.137,289.157 282.137,289.485 282.955 L 290.080 284.444 293.417 284.444 C 297.235 284.444,297.114 284.654,295.563 280.741 C 295.119 279.620,294.587 278.120,294.381 277.407 C 294.174 276.694,293.854 275.953,293.669 275.759 C 293.485 275.566,293.333 275.121,293.333 274.771 C 293.333 274.421,293.088 273.662,292.788 273.086 C 292.488 272.509,291.727 270.537,291.098 268.704 C 290.468 266.870,289.672 264.747,289.328 263.986 L 288.704 262.601 286.093 262.597 L 283.482 262.593 283.015 263.981 M300.000 273.519 L 300.000 284.444 303.333 284.444 L 306.667 284.444 306.667 281.111 C 306.667 277.549,307.842 276.242,308.914 278.611 C 309.371 279.622,309.884 280.511,311.294 282.742 L 312.370 284.444 316.000 284.444 C 317.996 284.444,319.630 284.387,319.630 284.316 C 319.630 284.111,318.542 282.137,317.761 280.926 C 317.367 280.315,316.932 279.565,316.793 279.259 C 316.654 278.954,316.236 278.306,315.863 277.820 C 315.059 276.773,315.031 276.508,315.660 275.860 C 318.569 272.859,318.489 267.298,315.499 264.580 C 313.521 262.783,312.623 262.593,306.130 262.593 L 300.000 262.593 300.000 273.519 M323.333 273.519 L 323.333 284.444 328.856 284.444 C 338.689 284.444,342.567 281.645,342.910 274.298 C 343.299 265.967,339.297 262.593,329.028 262.593 L 323.333 262.593 323.333 273.519 M351.048 263.261 C 343.859 266.667,345.525 274.486,353.898 276.634 C 355.577 277.065,356.667 277.739,356.667 278.346 C 356.667 279.246,354.144 278.978,351.335 277.779 C 348.317 276.492,348.497 276.423,347.006 279.451 C 345.575 282.359,345.701 282.598,349.245 283.674 C 356.256 285.804,362.100 284.271,363.544 279.925 C 365.022 275.473,362.960 272.640,356.881 270.772 C 353.818 269.831,353.145 269.377,353.744 268.655 C 354.372 267.898,355.313 268.031,358.013 269.255 C 359.356 269.864,360.576 270.287,360.725 270.195 C 360.976 270.040,363.333 265.463,363.333 265.131 C 363.333 264.971,361.755 264.171,359.524 263.202 C 357.601 262.366,352.869 262.399,351.048 263.261 M69.987 268.865 C 71.103 270.950,70.036 272.593,67.566 272.593 L 65.926 272.593 65.926 270.370 L 65.926 268.148 67.765 268.148 C 69.204 268.148,69.687 268.304,69.987 268.865 M310.667 268.593 C 312.163 270.089,310.667 272.593,308.276 272.593 L 306.667 272.593 306.667 270.370 L 306.667 268.148 308.444 268.148 C 309.422 268.148,310.422 268.348,310.667 268.593 M334.078 268.765 C 338.245 271.226,336.448 278.889,331.704 278.889 L 330.000 278.889 330.000 273.519 L 330.000 268.148 331.517 268.148 C 332.351 268.148,333.504 268.426,334.078 268.765 M287.143 273.981 L 287.710 275.926 286.100 275.926 L 284.489 275.926 284.992 274.352 C 285.268 273.486,285.610 272.278,285.752 271.667 C 286.048 270.393,286.145 270.554,287.143 273.981 M112.942 275.093 C 112.960 275.805,112.771 275.926,111.642 275.926 C 110.565 275.926,110.352 275.806,110.491 275.278 C 110.585 274.921,110.874 273.816,111.133 272.822 L 111.605 271.014 112.263 272.637 C 112.625 273.529,112.931 274.634,112.942 275.093 M209.402 305.556 C 209.402 308.102,209.461 309.144,209.533 307.870 C 209.606 306.597,209.606 304.514,209.533 303.241 C 209.461 301.968,209.402 303.009,209.402 305.556 M254.566 305.370 C 254.568 306.796,254.635 307.334,254.715 306.566 C 254.795 305.797,254.794 304.631,254.712 303.973 C 254.630 303.316,254.564 303.944,254.566 305.370 " stroke="none" fill="#fbfbfb" fill-rule="evenodd"></path><path id="path2" d="M287.020 98.052 C 293.072 98.133,295.424 98.287,295.659 98.618 C 295.894 98.950,295.941 98.922,295.831 98.519 C 295.702 98.046,294.416 97.961,287.192 97.952 L 278.704 97.941 287.020 98.052 M316.944 98.054 C 318.829 98.121,321.912 98.121,323.796 98.054 C 325.681 97.987,324.139 97.932,320.370 97.932 C 316.602 97.932,315.060 97.987,316.944 98.054 M326.753 100.370 C 326.753 101.083,326.829 101.375,326.922 101.019 C 327.015 100.662,327.015 100.079,326.922 99.722 C 326.829 99.366,326.753 99.657,326.753 100.370 M261.852 100.486 C 261.852 100.550,262.394 101.092,263.056 101.690 L 264.259 102.778 263.171 101.574 C 262.157 100.452,261.852 100.200,261.852 100.486 M295.271 101.481 C 295.271 102.194,295.347 102.486,295.440 102.130 C 295.534 101.773,295.534 101.190,295.440 100.833 C 295.347 100.477,295.271 100.769,295.271 101.481 M326.382 104.444 C 326.382 105.157,326.458 105.449,326.552 105.093 C 326.645 104.736,326.645 104.153,326.552 103.796 C 326.458 103.440,326.382 103.731,326.382 104.444 M294.901 105.185 C 294.901 105.898,294.977 106.190,295.070 105.833 C 295.163 105.477,295.163 104.894,295.070 104.537 C 294.977 104.181,294.901 104.472,294.901 105.185 M326.012 108.519 C 326.012 109.231,326.088 109.523,326.181 109.167 C 326.274 108.810,326.274 108.227,326.181 107.870 C 326.088 107.514,326.012 107.806,326.012 108.519 M294.530 108.889 C 294.530 109.602,294.607 109.894,294.700 109.537 C 294.793 109.181,294.793 108.597,294.700 108.241 C 294.607 107.884,294.530 108.176,294.530 108.889 M294.160 112.593 C 294.160 113.306,294.236 113.597,294.329 113.241 C 294.423 112.884,294.423 112.301,294.329 111.944 C 294.236 111.588,294.160 111.880,294.160 112.593 M325.641 112.593 C 325.641 113.306,325.718 113.597,325.811 113.241 C 325.904 112.884,325.904 112.301,325.811 111.944 C 325.718 111.588,325.641 111.880,325.641 112.593 M293.790 116.296 C 293.790 117.009,293.866 117.301,293.959 116.944 C 294.052 116.588,294.052 116.005,293.959 115.648 C 293.866 115.292,293.790 115.583,293.790 116.296 M268.619 117.037 C 268.619 117.954,268.692 118.329,268.780 117.870 C 268.868 117.412,268.868 116.662,268.780 116.204 C 268.692 115.745,268.619 116.120,268.619 117.037 M325.271 116.667 C 325.271 117.380,325.347 117.671,325.440 117.315 C 325.534 116.958,325.534 116.375,325.440 116.019 C 325.347 115.662,325.271 115.954,325.271 116.667 M293.419 120.000 C 293.419 120.713,293.495 121.005,293.589 120.648 C 293.682 120.292,293.682 119.708,293.589 119.352 C 293.495 118.995,293.419 119.287,293.419 120.000 M324.901 120.741 C 324.901 121.454,324.977 121.745,325.070 121.389 C 325.163 121.032,325.163 120.449,325.070 120.093 C 324.977 119.736,324.901 120.028,324.901 120.741 M293.049 123.704 C 293.049 124.417,293.125 124.708,293.218 124.352 C 293.311 123.995,293.311 123.412,293.218 123.056 C 293.125 122.699,293.049 122.991,293.049 123.704 M292.679 127.778 C 292.679 128.491,292.755 128.782,292.848 128.426 C 292.941 128.069,292.941 127.486,292.848 127.130 C 292.755 126.773,292.679 127.065,292.679 127.778 M324.160 128.519 C 324.160 129.231,324.236 129.523,324.329 129.167 C 324.423 128.810,324.423 128.227,324.329 127.870 C 324.236 127.514,324.160 127.806,324.160 128.519 M292.308 131.481 C 292.308 132.194,292.384 132.486,292.478 132.130 C 292.571 131.773,292.571 131.190,292.478 130.833 C 292.384 130.477,292.308 130.769,292.308 131.481 M323.790 132.593 C 323.790 133.306,323.866 133.597,323.959 133.241 C 324.052 132.884,324.052 132.301,323.959 131.944 C 323.866 131.588,323.790 131.880,323.790 132.593 M291.938 135.185 C 291.938 135.898,292.014 136.190,292.107 135.833 C 292.200 135.477,292.200 134.894,292.107 134.537 C 292.014 134.181,291.938 134.472,291.938 135.185 M323.419 136.667 C 323.419 137.380,323.495 137.671,323.589 137.315 C 323.682 136.958,323.682 136.375,323.589 136.019 C 323.495 135.662,323.419 135.954,323.419 136.667 M291.567 138.889 C 291.567 139.602,291.644 139.894,291.737 139.537 C 291.830 139.181,291.830 138.597,291.737 138.241 C 291.644 137.884,291.567 138.176,291.567 138.889 M323.049 140.741 C 323.049 141.454,323.125 141.745,323.218 141.389 C 323.311 141.032,323.311 140.449,323.218 140.093 C 323.125 139.736,323.049 140.028,323.049 140.741 M291.197 142.593 C 291.197 143.306,291.273 143.597,291.366 143.241 C 291.460 142.884,291.460 142.301,291.366 141.944 C 291.273 141.588,291.197 141.880,291.197 142.593 M322.679 144.815 C 322.679 145.528,322.755 145.819,322.848 145.463 C 322.941 145.106,322.941 144.523,322.848 144.167 C 322.755 143.810,322.679 144.102,322.679 144.815 M290.827 146.296 C 290.827 147.009,290.903 147.301,290.996 146.944 C 291.089 146.588,291.089 146.005,290.996 145.648 C 290.903 145.292,290.827 145.583,290.827 146.296 M322.308 148.889 C 322.308 149.602,322.384 149.894,322.478 149.537 C 322.571 149.181,322.571 148.597,322.478 148.241 C 322.384 147.884,322.308 148.176,322.308 148.889 M290.456 150.000 C 290.456 150.713,290.533 151.005,290.626 150.648 C 290.719 150.292,290.719 149.708,290.626 149.352 C 290.533 148.995,290.456 149.287,290.456 150.000 M321.938 152.963 C 321.938 153.676,322.014 153.968,322.107 153.611 C 322.200 153.255,322.200 152.671,322.107 152.315 C 322.014 151.958,321.938 152.250,321.938 152.963 M321.567 157.037 C 321.567 157.750,321.644 158.042,321.737 157.685 C 321.830 157.329,321.830 156.745,321.737 156.389 C 321.644 156.032,321.567 156.324,321.567 157.037 M321.197 161.111 C 321.197 161.824,321.273 162.116,321.366 161.759 C 321.460 161.403,321.460 160.819,321.366 160.463 C 321.273 160.106,321.197 160.398,321.197 161.111 M289.345 161.481 C 289.345 162.194,289.421 162.486,289.515 162.130 C 289.608 161.773,289.608 161.190,289.515 160.833 C 289.421 160.477,289.345 160.769,289.345 161.481 M320.488 167.963 C 320.539 168.466,320.859 168.723,321.485 168.764 C 322.258 168.815,322.276 168.797,321.597 168.649 C 321.151 168.552,320.702 168.192,320.600 167.848 C 320.465 167.398,320.434 167.430,320.488 167.963 M220.492 202.037 C 220.494 203.463,220.560 204.001,220.641 203.232 C 220.721 202.464,220.719 201.297,220.638 200.640 C 220.556 199.982,220.490 200.611,220.492 202.037 M224.907 209.144 C 225.264 209.237,225.847 209.237,226.204 209.144 C 226.560 209.051,226.269 208.975,225.556 208.975 C 224.843 208.975,224.551 209.051,224.907 209.144 M205.556 220.857 C 205.556 220.920,206.097 221.462,206.759 222.060 L 207.963 223.148 206.875 221.944 C 205.861 220.822,205.556 220.570,205.556 220.857 M98.148 303.704 L 98.148 310.370 99.630 310.370 L 101.111 310.370 101.111 303.704 L 101.111 297.037 99.630 297.037 L 98.148 297.037 98.148 303.704 M133.353 297.569 C 133.020 297.970,133.015 298.294,133.333 298.887 C 134.132 300.381,136.787 299.221,136.182 297.643 C 135.890 296.884,133.963 296.833,133.353 297.569 M197.550 297.571 C 197.121 298.687,197.574 299.444,198.668 299.444 C 199.849 299.444,200.614 298.577,200.256 297.643 C 199.962 296.876,197.838 296.820,197.550 297.571 M238.519 303.704 L 238.519 310.370 240.000 310.370 L 241.481 310.370 241.481 303.704 L 241.481 297.037 240.000 297.037 L 238.519 297.037 238.519 303.704 M257.152 297.643 C 256.793 298.578,257.559 299.444,258.744 299.444 C 259.681 299.444,259.829 299.294,259.931 298.241 C 260.065 296.855,257.653 296.336,257.152 297.643 M160.065 298.265 C 159.169 299.218,158.974 301.406,159.684 302.543 C 160.030 303.096,159.965 303.368,159.335 303.999 C 157.821 305.512,157.820 308.580,159.334 309.990 C 160.165 310.764,163.447 311.085,163.851 310.431 C 163.957 310.261,164.966 310.198,166.095 310.292 C 168.307 310.475,168.496 310.289,167.461 308.943 C 166.815 308.103,166.815 308.001,167.465 306.030 C 168.212 303.764,168.123 303.333,166.904 303.333 C 165.893 303.333,165.185 303.985,165.185 304.915 C 165.185 305.531,165.123 305.547,164.630 305.053 C 163.903 304.327,163.928 303.738,164.722 302.861 C 167.471 299.823,162.867 295.281,160.065 298.265 M223.573 298.316 C 221.783 299.974,222.133 302.610,224.444 304.885 C 227.248 307.644,226.377 309.154,222.870 307.613 C 221.881 307.178,221.947 309.826,222.939 310.357 C 227.823 312.971,231.699 306.265,227.088 303.179 C 224.820 301.662,224.693 299.763,226.882 300.118 C 227.953 300.292,229.814 298.871,229.196 298.351 C 227.724 297.111,224.891 297.093,223.573 298.316 M85.556 304.074 L 85.556 310.370 88.727 310.370 L 91.899 310.370 91.783 309.172 C 91.670 308.006,91.624 307.977,90.093 308.089 L 88.519 308.205 88.519 306.695 L 88.519 305.185 90.000 305.185 C 91.446 305.185,91.481 305.154,91.481 303.889 C 91.481 302.623,91.446 302.593,90.000 302.593 C 87.615 302.593,87.701 300.102,90.093 299.929 C 91.501 299.827,91.679 299.708,91.784 298.796 L 91.901 297.778 88.728 297.778 L 85.556 297.778 85.556 304.074 M173.333 304.074 L 173.333 310.370 175.833 310.365 C 180.184 310.355,182.040 308.244,181.744 303.641 C 181.459 299.214,180.025 297.792,175.833 297.783 L 173.333 297.778 173.333 304.074 M252.063 300.185 C 251.679 300.898,251.224 301.481,251.053 301.481 C 250.881 301.481,250.741 301.815,250.741 302.222 C 250.741 302.630,250.886 302.963,251.064 302.963 C 251.241 302.963,251.463 304.282,251.556 305.895 C 251.788 309.902,252.400 310.819,254.743 310.668 C 256.415 310.560,256.486 310.509,256.600 309.324 C 256.696 308.318,256.595 308.106,256.044 308.163 C 254.517 308.322,254.444 308.204,254.444 305.556 C 254.444 303.037,254.471 302.963,255.370 302.963 C 256.152 302.963,256.296 302.790,256.296 301.852 C 256.296 300.914,256.152 300.741,255.370 300.741 C 254.630 300.741,254.444 300.556,254.444 299.815 C 254.444 298.332,252.934 298.567,252.063 300.185 M162.839 300.901 C 162.716 301.220,162.444 301.481,162.234 301.481 C 161.808 301.481,161.710 300.265,162.105 299.870 C 162.512 299.464,163.082 300.266,162.839 300.901 M177.960 300.737 C 179.489 302.427,178.829 307.417,177.012 307.892 C 176.337 308.068,176.296 307.850,176.296 304.039 C 176.296 299.734,176.567 299.198,177.960 300.737 M103.527 301.254 C 102.507 302.274,101.750 304.716,101.993 306.200 C 102.086 306.762,102.175 307.482,102.192 307.800 C 102.309 310.020,107.080 311.756,108.677 310.159 C 109.476 309.360,109.469 307.618,108.669 307.925 C 106.460 308.773,105.185 308.431,105.185 306.992 C 105.185 306.392,105.478 306.296,107.315 306.297 L 109.444 306.297 109.377 304.723 C 109.340 303.857,109.298 302.932,109.284 302.668 C 109.175 300.575,105.186 299.595,103.527 301.254 M111.551 300.833 C 110.868 301.162,110.742 301.438,110.933 302.196 C 111.256 303.484,111.294 303.501,112.615 302.954 C 113.584 302.552,113.826 302.559,114.103 302.996 C 114.738 303.999,114.432 304.350,112.758 304.538 C 108.802 304.984,108.643 310.675,112.593 310.468 C 113.509 310.420,114.989 310.387,115.881 310.394 L 117.502 310.406 117.339 306.152 C 117.130 300.694,115.311 299.023,111.551 300.833 M121.713 300.633 C 121.568 300.778,120.790 300.848,119.984 300.790 L 118.519 300.684 118.519 305.527 L 118.519 310.370 120.000 310.370 L 121.481 310.370 121.481 307.438 C 121.481 303.901,121.666 303.333,122.817 303.333 C 123.413 303.333,123.705 303.120,123.709 302.685 C 123.712 302.329,123.814 301.662,123.937 301.204 C 124.162 300.363,122.428 299.918,121.713 300.633 M127.639 300.633 C 127.494 300.778,126.716 300.848,125.910 300.790 L 124.444 300.684 124.444 305.527 L 124.444 310.370 125.689 310.370 L 126.934 310.370 127.124 307.039 C 127.463 301.096,129.259 301.155,129.259 307.108 L 129.259 310.370 130.741 310.370 L 132.222 310.370 132.213 307.315 C 132.203 303.658,131.754 301.485,130.875 300.843 C 130.183 300.337,128.072 300.199,127.639 300.633 M140.582 300.952 C 140.262 301.272,140.000 301.356,140.000 301.138 C 140.000 300.919,139.417 300.741,138.704 300.741 L 137.407 300.741 137.407 305.556 L 137.407 310.370 138.889 310.370 L 140.370 310.370 140.382 307.130 C 140.390 305.055,140.568 303.660,140.877 303.254 C 141.782 302.062,142.222 303.263,142.222 306.926 L 142.222 310.370 143.704 310.370 L 145.185 310.370 145.184 306.574 C 145.182 301.120,143.036 298.499,140.582 300.952 M147.329 301.089 C 146.033 302.114,145.618 304.105,146.439 305.357 C 146.909 306.074,146.949 306.456,146.627 307.161 C 146.334 307.805,146.332 308.264,146.622 308.805 C 146.933 309.387,146.905 309.601,146.495 309.758 C 145.636 310.088,145.374 312.446,146.078 313.520 C 147.074 315.040,151.402 314.901,152.745 313.305 C 154.762 310.908,153.640 308.099,150.631 308.013 C 148.876 307.962,148.023 307.042,149.722 307.032 C 151.952 307.018,152.963 305.981,152.963 303.708 C 152.963 303.119,153.130 302.533,153.333 302.407 C 154.075 301.949,153.740 300.741,152.870 300.738 C 152.412 300.736,151.204 300.635,150.185 300.514 C 148.643 300.331,148.165 300.427,147.329 301.089 M184.259 301.031 C 179.914 304.760,184.015 312.979,188.913 310.357 C 190.033 309.758,189.927 307.596,188.796 307.959 C 187.051 308.518,186.159 308.361,185.676 307.407 L 185.207 306.481 187.603 306.372 C 190.273 306.250,190.476 305.915,189.645 303.018 C 188.947 300.584,186.032 299.509,184.259 301.031 M191.324 301.235 C 189.794 302.765,190.018 304.250,192.070 306.160 C 194.287 308.225,193.765 309.125,191.019 307.971 C 190.473 307.742,190.370 307.903,190.370 308.995 C 190.370 310.478,190.792 310.747,193.086 310.728 C 196.599 310.700,197.661 307.069,194.815 304.815 C 193.284 303.602,192.795 302.354,193.981 302.689 C 194.338 302.790,194.868 302.935,195.158 303.010 C 195.722 303.157,196.616 301.307,196.188 300.880 C 195.383 300.074,192.256 300.303,191.324 301.235 M202.249 301.346 C 201.319 302.528,201.197 305.229,202.042 305.930 C 202.466 306.282,202.500 306.517,202.184 306.898 C 201.955 307.174,201.840 307.902,201.930 308.516 C 202.043 309.281,201.882 309.823,201.417 310.243 C 199.418 312.052,201.225 314.444,204.590 314.444 C 209.864 314.444,211.020 308.604,205.881 307.922 C 203.971 307.669,203.755 307.037,205.577 307.037 C 207.143 307.037,208.148 305.874,208.148 304.062 C 208.148 303.077,208.337 302.497,208.704 302.356 C 210.189 301.786,209.265 300.847,206.983 300.608 C 203.455 300.240,203.073 300.299,202.249 301.346 M212.800 300.705 C 212.686 300.890,211.926 300.951,211.111 300.842 L 209.630 300.643 209.630 305.507 L 209.630 310.370 211.111 310.370 L 212.593 310.370 212.593 306.897 C 212.593 304.444,212.738 303.303,213.090 303.012 C 213.915 302.326,214.074 302.925,214.074 306.728 L 214.074 310.370 215.556 310.370 L 217.037 310.370 217.037 306.176 C 217.037 302.270,216.978 301.926,216.180 301.176 C 215.311 300.360,213.195 300.066,212.800 300.705 M231.562 300.948 C 228.802 302.882,229.017 309.196,231.884 310.384 C 235.213 311.763,237.222 310.001,237.222 305.701 C 237.222 301.209,234.478 298.906,231.562 300.948 M262.506 301.451 C 259.505 304.132,261.358 310.761,265.098 310.729 C 267.568 310.708,268.889 308.993,268.889 305.807 C 268.889 300.990,265.563 298.720,262.506 301.451 M273.194 300.633 C 273.050 300.778,272.272 300.848,271.466 300.790 L 270.000 300.684 270.000 305.527 L 270.000 310.370 271.481 310.370 L 272.963 310.370 273.009 307.407 C 273.035 305.778,273.097 304.278,273.148 304.074 C 273.199 303.870,273.262 303.525,273.287 303.306 C 273.350 302.762,274.618 303.045,274.676 303.616 C 274.701 303.868,274.743 305.491,274.769 307.222 L 274.815 310.370 276.296 310.370 L 277.778 310.370 277.776 306.574 C 277.775 301.756,277.128 300.370,274.882 300.370 C 274.098 300.370,273.339 300.489,273.194 300.633 M279.494 301.138 C 277.871 302.415,278.216 304.895,280.206 306.259 C 282.308 307.699,281.788 309.039,279.469 308.157 C 278.565 307.814,278.519 307.858,278.519 309.044 C 278.519 310.427,278.966 310.741,280.939 310.741 C 284.651 310.741,285.787 307.438,282.963 304.857 C 280.989 303.052,281.006 301.916,282.991 302.978 C 284.040 303.539,284.826 301.565,283.840 300.844 C 282.841 300.114,280.604 300.265,279.494 301.138 M133.333 305.556 L 133.333 310.370 134.630 310.370 L 135.926 310.370 135.926 305.556 L 135.926 300.741 134.630 300.741 L 133.333 300.741 133.333 305.556 M197.407 305.556 L 197.407 310.370 198.889 310.370 L 200.370 310.370 200.370 305.556 L 200.370 300.741 198.889 300.741 L 197.407 300.741 197.407 305.556 M242.593 304.935 C 242.593 309.974,243.189 311.023,245.811 310.598 C 246.587 310.472,247.889 310.375,248.704 310.382 L 250.185 310.395 250.185 305.568 L 250.185 300.741 248.796 300.741 L 247.407 300.741 247.404 302.500 C 247.398 306.151,246.988 308.148,246.245 308.148 C 245.619 308.148,245.556 307.809,245.556 304.444 L 245.556 300.741 244.074 300.741 L 242.593 300.741 242.593 304.935 M257.037 305.556 L 257.037 310.370 258.519 310.370 L 260.000 310.370 260.000 305.556 L 260.000 300.741 258.519 300.741 L 257.037 300.741 257.037 305.556 M150.085 303.489 C 150.180 303.988,150.136 304.595,149.985 304.838 C 149.554 305.536,148.889 304.872,148.889 303.744 C 148.889 301.983,149.762 301.797,150.085 303.489 M205.185 303.704 C 205.185 305.269,204.655 305.692,204.259 304.444 C 203.985 303.580,204.340 302.222,204.840 302.222 C 205.030 302.222,205.185 302.889,205.185 303.704 M106.296 302.933 C 106.296 303.120,106.397 303.536,106.521 303.859 C 106.682 304.279,106.525 304.444,105.966 304.444 C 105.206 304.444,104.862 303.410,105.432 302.840 C 105.790 302.482,106.296 302.537,106.296 302.933 M186.970 303.640 C 187.059 304.245,186.898 304.444,186.322 304.444 C 185.826 304.444,185.556 304.205,185.556 303.765 C 185.556 302.357,186.766 302.250,186.970 303.640 M234.280 303.367 C 235.205 304.863,234.174 308.999,233.099 308.107 C 232.576 307.673,232.364 303.685,232.840 303.210 C 233.218 302.831,234.002 302.916,234.280 303.367 M265.701 303.549 C 266.302 305.114,265.839 308.148,265.000 308.148 C 264.375 308.148,264.074 307.305,264.074 305.556 C 264.074 303.806,264.375 302.963,265.000 302.963 C 265.262 302.963,265.577 303.227,265.701 303.549 M92.685 304.681 C 92.431 304.789,92.222 305.370,92.222 305.974 L 92.222 307.071 94.722 306.961 L 97.222 306.852 97.222 305.741 C 97.222 304.634,94.376 303.969,92.685 304.681 M162.955 307.711 C 162.967 308.459,161.325 308.073,161.176 307.293 C 160.897 305.831,161.467 305.297,162.237 306.299 C 162.627 306.807,162.950 307.442,162.955 307.711 M114.444 306.822 C 114.444 307.752,114.009 308.519,113.479 308.519 C 112.955 308.519,112.749 307.004,113.210 306.543 C 113.650 306.103,114.444 306.282,114.444 306.822 M150.525 310.595 C 151.947 311.141,150.363 312.875,148.875 312.403 C 148.053 312.142,147.934 311.474,148.593 310.815 C 149.086 310.321,149.646 310.258,150.525 310.595 M205.710 310.595 C 206.645 310.954,206.413 312.113,205.353 312.379 C 204.214 312.665,203.704 312.400,203.704 311.521 C 203.704 310.420,204.408 310.095,205.710 310.595 " stroke="none" fill="#e3e4e4" fill-rule="evenodd"></path><path id="path3" d="M245.097 96.558 C 245.558 96.647,246.224 96.643,246.578 96.551 C 246.932 96.458,246.556 96.386,245.741 96.390 C 244.926 96.394,244.636 96.470,245.097 96.558 M251.393 96.558 C 251.854 96.647,252.521 96.643,252.875 96.551 C 253.229 96.458,252.852 96.386,252.037 96.390 C 251.222 96.394,250.932 96.470,251.393 96.558 M282.685 97.684 C 285.079 97.749,288.995 97.749,291.389 97.684 C 293.782 97.619,291.824 97.567,287.037 97.567 C 282.250 97.567,280.292 97.619,282.685 97.684 M315.926 97.661 C 321.850 97.928,327.324 97.940,327.166 97.685 C 327.071 97.532,323.961 97.440,320.256 97.480 C 316.550 97.520,314.602 97.601,315.926 97.661 M278.234 99.259 C 278.234 99.972,278.310 100.264,278.403 99.907 C 278.497 99.551,278.497 98.968,278.403 98.611 C 278.310 98.255,278.234 98.546,278.234 99.259 M262.963 101.296 C 263.654 102.009,264.303 102.593,264.405 102.593 C 264.506 102.593,264.024 102.009,263.333 101.296 C 262.642 100.583,261.994 100.000,261.892 100.000 C 261.790 100.000,262.272 100.583,262.963 101.296 M228.506 104.722 L 226.481 106.852 228.611 104.827 C 229.782 103.714,230.741 102.756,230.741 102.698 C 230.741 102.423,230.387 102.744,228.506 104.722 M277.864 104.074 C 277.864 104.787,277.940 105.079,278.033 104.722 C 278.126 104.366,278.126 103.782,278.033 103.426 C 277.940 103.069,277.864 103.361,277.864 104.074 M277.493 108.889 C 277.493 109.602,277.570 109.894,277.663 109.537 C 277.756 109.181,277.756 108.597,277.663 108.241 C 277.570 107.884,277.493 108.176,277.493 108.889 M277.123 113.704 C 277.123 114.417,277.199 114.708,277.292 114.352 C 277.386 113.995,277.386 113.412,277.292 113.056 C 277.199 112.699,277.123 112.991,277.123 113.704 M276.753 118.519 C 276.753 119.231,276.829 119.523,276.922 119.167 C 277.015 118.810,277.015 118.227,276.922 117.870 C 276.829 117.514,276.753 117.806,276.753 118.519 M250.847 120.926 C 250.849 121.944,250.921 122.317,251.007 121.754 C 251.092 121.191,251.089 120.358,251.001 119.902 C 250.914 119.447,250.844 119.907,250.847 120.926 M276.382 123.333 C 276.382 124.046,276.458 124.338,276.552 123.981 C 276.645 123.625,276.645 123.042,276.552 122.685 C 276.458 122.329,276.382 122.620,276.382 123.333 M276.012 128.148 C 276.012 128.861,276.088 129.153,276.181 128.796 C 276.274 128.440,276.274 127.856,276.181 127.500 C 276.088 127.144,276.012 127.435,276.012 128.148 M275.641 132.963 C 275.641 133.676,275.718 133.968,275.811 133.611 C 275.904 133.255,275.904 132.671,275.811 132.315 C 275.718 131.958,275.641 132.250,275.641 132.963 M275.271 137.778 C 275.271 138.491,275.347 138.782,275.440 138.426 C 275.534 138.069,275.534 137.486,275.440 137.130 C 275.347 136.773,275.271 137.065,275.271 137.778 M246.818 141.194 C 246.892 141.561,248.884 141.667,255.741 141.667 C 262.598 141.667,264.589 141.561,264.664 141.194 C 264.716 140.935,264.675 140.893,264.571 141.102 C 264.450 141.345,261.273 141.481,255.741 141.481 C 250.208 141.481,247.031 141.345,246.910 141.102 C 246.807 140.893,246.765 140.935,246.818 141.194 M274.908 142.407 C 274.912 143.222,274.988 143.512,275.077 143.051 C 275.165 142.591,275.162 141.924,275.069 141.570 C 274.977 141.216,274.904 141.593,274.908 142.407 M274.530 147.037 C 274.530 147.750,274.607 148.042,274.700 147.685 C 274.793 147.329,274.793 146.745,274.700 146.389 C 274.607 146.032,274.530 146.324,274.530 147.037 M274.160 151.852 C 274.160 152.565,274.236 152.856,274.329 152.500 C 274.423 152.144,274.423 151.560,274.329 151.204 C 274.236 150.847,274.160 151.139,274.160 151.852 M273.790 156.667 C 273.790 157.380,273.866 157.671,273.959 157.315 C 274.052 156.958,274.052 156.375,273.959 156.019 C 273.866 155.662,273.790 155.954,273.790 156.667 M307.871 159.074 C 307.875 159.889,307.951 160.179,308.040 159.718 C 308.128 159.257,308.125 158.591,308.032 158.236 C 307.940 157.882,307.867 158.259,307.871 159.074 M273.419 161.481 C 273.419 162.194,273.495 162.486,273.589 162.130 C 273.682 161.773,273.682 161.190,273.589 160.833 C 273.495 160.477,273.419 160.769,273.419 161.481 M307.493 163.333 C 307.493 164.046,307.570 164.338,307.663 163.981 C 307.756 163.625,307.756 163.042,307.663 162.685 C 307.570 162.329,307.493 162.620,307.493 163.333 M273.049 166.296 C 273.049 167.009,273.125 167.301,273.218 166.944 C 273.311 166.588,273.311 166.005,273.218 165.648 C 273.125 165.292,273.049 165.583,273.049 166.296 M307.138 168.148 C 307.138 169.065,307.210 169.440,307.298 168.981 C 307.387 168.523,307.387 167.773,307.298 167.315 C 307.210 166.856,307.138 167.231,307.138 168.148 M320.784 167.685 C 320.751 168.327,320.933 168.509,321.574 168.476 C 322.165 168.445,322.225 168.385,321.782 168.268 C 321.438 168.177,321.082 167.821,320.992 167.477 C 320.875 167.034,320.814 167.095,320.784 167.685 M290.000 167.716 C 290.000 167.954,289.625 168.167,289.167 168.191 C 288.481 168.226,288.455 168.265,289.021 168.411 C 289.760 168.601,290.671 167.955,290.253 167.537 C 290.114 167.398,290.000 167.478,290.000 167.716 M272.679 171.111 C 272.679 171.824,272.755 172.116,272.848 171.759 C 272.941 171.403,272.941 170.819,272.848 170.463 C 272.755 170.106,272.679 170.398,272.679 171.111 M306.768 173.704 C 306.768 174.620,306.840 174.995,306.928 174.537 C 307.016 174.079,307.016 173.329,306.928 172.870 C 306.840 172.412,306.768 172.787,306.768 173.704 M272.308 175.926 C 272.308 176.639,272.384 176.931,272.478 176.574 C 272.571 176.218,272.571 175.634,272.478 175.278 C 272.384 174.921,272.308 175.213,272.308 175.926 M306.397 179.259 C 306.397 180.176,306.469 180.551,306.558 180.093 C 306.646 179.634,306.646 178.884,306.558 178.426 C 306.469 177.968,306.397 178.343,306.397 179.259 M271.945 180.556 C 271.949 181.370,272.025 181.660,272.114 181.199 C 272.202 180.739,272.199 180.072,272.106 179.718 C 272.014 179.364,271.941 179.741,271.945 180.556 M306.027 184.815 C 306.027 185.731,306.099 186.106,306.187 185.648 C 306.276 185.190,306.276 184.440,306.187 183.981 C 306.099 183.523,306.027 183.898,306.027 184.815 M271.575 185.370 C 271.579 186.185,271.655 186.475,271.743 186.014 C 271.832 185.553,271.829 184.887,271.736 184.533 C 271.643 184.179,271.571 184.556,271.575 185.370 M271.205 190.185 C 271.209 191.000,271.284 191.290,271.373 190.829 C 271.462 190.368,271.458 189.702,271.366 189.348 C 271.273 188.993,271.200 189.370,271.205 190.185 M305.656 190.370 C 305.656 191.287,305.729 191.662,305.817 191.204 C 305.905 190.745,305.905 189.995,305.817 189.537 C 305.729 189.079,305.656 189.454,305.656 190.370 M270.834 195.000 C 270.838 195.815,270.914 196.105,271.003 195.644 C 271.091 195.183,271.088 194.516,270.995 194.162 C 270.903 193.808,270.830 194.185,270.834 195.000 M305.291 195.741 C 305.294 196.759,305.366 197.132,305.451 196.569 C 305.536 196.006,305.534 195.173,305.446 194.717 C 305.358 194.262,305.288 194.722,305.291 195.741 M270.464 199.815 C 270.468 200.630,270.544 200.919,270.632 200.459 C 270.721 199.998,270.718 199.331,270.625 198.977 C 270.532 198.623,270.460 199.000,270.464 199.815 M304.921 201.296 C 304.924 202.315,304.995 202.688,305.081 202.125 C 305.166 201.562,305.163 200.728,305.076 200.273 C 304.988 199.817,304.918 200.278,304.921 201.296 M270.093 204.630 C 270.098 205.444,270.173 205.734,270.262 205.273 C 270.351 204.813,270.347 204.146,270.254 203.792 C 270.162 203.438,270.089 203.815,270.093 204.630 M201.222 207.037 C 201.222 208.157,201.292 208.616,201.376 208.056 C 201.461 207.495,201.461 206.579,201.376 206.019 C 201.292 205.458,201.222 205.917,201.222 207.037 M304.545 206.667 C 304.545 207.583,304.618 207.958,304.706 207.500 C 304.794 207.042,304.794 206.292,304.706 205.833 C 304.618 205.375,304.545 205.750,304.545 206.667 M269.723 209.444 C 269.727 210.259,269.803 210.549,269.892 210.088 C 269.980 209.628,269.977 208.961,269.884 208.607 C 269.791 208.253,269.719 208.630,269.723 209.444 M224.722 208.780 C 225.181 208.868,225.931 208.868,226.389 208.780 C 226.847 208.692,226.472 208.619,225.556 208.619 C 224.639 208.619,224.264 208.692,224.722 208.780 M304.175 212.222 C 304.175 213.139,304.247 213.514,304.335 213.056 C 304.424 212.597,304.424 211.847,304.335 211.389 C 304.247 210.931,304.175 211.306,304.175 212.222 M269.353 214.259 C 269.357 215.074,269.433 215.364,269.521 214.903 C 269.610 214.442,269.606 213.776,269.514 213.422 C 269.421 213.068,269.349 213.444,269.353 214.259 M303.805 217.778 C 303.805 218.694,303.877 219.069,303.965 218.611 C 304.053 218.153,304.053 217.403,303.965 216.944 C 303.877 216.486,303.805 216.861,303.805 217.778 M241.481 218.704 C 240.582 219.620,239.929 220.370,240.031 220.370 C 240.133 220.370,240.952 219.620,241.852 218.704 C 242.751 217.787,243.404 217.037,243.302 217.037 C 243.201 217.037,242.381 217.787,241.481 218.704 M268.982 219.074 C 268.986 219.889,269.062 220.179,269.151 219.718 C 269.239 219.257,269.236 218.591,269.143 218.236 C 269.051 217.882,268.978 218.259,268.982 219.074 M205.556 221.227 C 205.556 221.291,206.097 221.832,206.759 222.431 L 207.963 223.519 206.875 222.315 C 205.861 221.193,205.556 220.941,205.556 221.227 M303.434 223.333 C 303.434 224.250,303.506 224.625,303.595 224.167 C 303.683 223.708,303.683 222.958,303.595 222.500 C 303.506 222.042,303.434 222.417,303.434 223.333 M268.612 223.889 C 268.616 224.704,268.692 224.993,268.780 224.533 C 268.869 224.072,268.866 223.405,268.773 223.051 C 268.680 222.697,268.608 223.074,268.612 223.889 M209.630 224.626 C 209.630 224.880,211.897 226.004,212.067 225.834 C 212.147 225.754,211.632 225.411,210.921 225.072 C 210.211 224.734,209.630 224.533,209.630 224.626 M219.547 227.309 C 220.418 227.387,221.751 227.386,222.510 227.306 C 223.268 227.227,222.556 227.163,220.926 227.164 C 219.296 227.165,218.676 227.230,219.547 227.309 " stroke="none" fill="#b4bcc3" fill-rule="evenodd"></path><path id="path4" d="M247.870 96.562 C 248.431 96.646,249.347 96.646,249.907 96.562 C 250.468 96.477,250.009 96.407,248.889 96.407 C 247.769 96.407,247.310 96.477,247.870 96.562 M242.685 182.128 C 245.079 182.193,248.995 182.193,251.389 182.128 C 253.782 182.064,251.824 182.011,247.037 182.011 C 242.250 182.011,240.292 182.064,242.685 182.128 M303.428 225.185 C 303.556 225.654,304.700 225.743,310.771 225.754 L 317.963 225.766 310.943 225.653 C 305.930 225.571,303.830 225.409,303.600 225.084 C 303.366 224.755,303.319 224.783,303.428 225.185 M268.841 225.657 C 268.999 225.814,272.282 225.897,276.138 225.841 L 283.148 225.739 275.851 225.555 C 271.838 225.453,268.683 225.499,268.841 225.657 M250.143 305.556 C 250.143 308.102,250.202 309.144,250.274 307.870 C 250.347 306.597,250.347 304.514,250.274 303.241 C 250.202 301.968,250.143 303.009,250.143 305.556 M109.345 304.815 C 109.345 305.528,109.421 305.819,109.515 305.463 C 109.608 305.106,109.608 304.523,109.515 304.167 C 109.421 303.810,109.345 304.102,109.345 304.815 M89.171 308.040 C 89.632 308.128,90.298 308.125,90.652 308.032 C 91.007 307.940,90.630 307.867,89.815 307.871 C 89.000 307.875,88.710 307.951,89.171 308.040 " stroke="none" fill="#cbd0d4" fill-rule="evenodd"></path></g></svg>