<svg id="svg" version="1.1" xmlns="http://www.w3.org/2000/svg" xmlns:xlink="http://www.w3.org/1999/xlink" width="400" height="400" viewBox="0, 0, 400,400"><g id="svgg"><path id="path0" d="M190.741 163.148 L 190.741 240.741 268.148 240.741 L 345.556 240.741 345.526 194.167 C 345.510 168.551,345.421 147.759,345.329 147.963 C 345.237 148.167,339.103 165.750,331.699 187.037 L 318.236 225.741 310.785 225.841 L 303.333 225.941 303.333 224.803 C 303.333 223.926,305.791 186.938,307.602 160.556 L 307.805 157.593 306.987 159.630 C 306.536 160.750,301.052 176.083,294.800 193.704 L 283.432 225.741 275.975 225.841 L 268.519 225.941 268.516 225.100 C 268.513 223.586,278.163 99.096,278.350 98.241 L 278.533 97.407 287.229 97.407 L 295.926 97.407 295.926 98.466 C 295.926 99.653,289.749 162.788,289.435 164.815 C 289.324 165.528,289.143 166.569,289.032 167.130 C 288.885 167.872,288.978 168.148,289.377 168.148 C 290.088 168.148,289.900 168.684,302.724 130.185 L 313.580 97.593 320.317 97.492 C 325.551 97.413,327.095 97.497,327.237 97.869 C 327.338 98.131,326.001 113.813,324.266 132.717 C 320.703 171.529,320.958 168.148,321.594 168.148 C 321.888 168.148,322.745 166.086,323.788 162.870 C 324.729 159.968,329.780 144.343,335.012 128.148 C 340.245 111.954,344.758 98.335,345.041 97.883 C 345.423 97.275,345.556 95.580,345.556 91.309 L 345.556 85.556 268.148 85.556 L 190.741 85.556 190.741 163.148 M255.162 96.900 C 267.907 100.064,271.374 110.969,266.567 132.778 L 264.608 141.667 255.941 141.766 C 251.174 141.821,247.149 141.738,246.996 141.581 C 246.844 141.424,247.621 137.130,248.724 132.037 C 249.827 126.944,250.728 121.944,250.727 120.926 C 250.716 112.305,241.103 112.905,237.902 121.726 C 236.984 124.253,221.329 197.287,220.909 200.997 C 220.210 207.182,224.102 210.296,229.271 207.685 C 232.542 206.033,233.623 203.465,236.095 191.481 C 237.040 186.898,237.900 182.856,238.006 182.500 C 238.240 181.711,255.926 181.475,255.926 182.261 C 255.926 183.719,252.039 200.836,251.093 203.543 C 245.552 219.403,233.279 228.395,218.702 227.275 C 206.365 226.326,199.610 216.728,201.459 202.775 C 202.127 197.739,217.962 123.464,219.079 120.129 C 224.828 102.968,240.072 93.154,255.162 96.900 M300.163 273.519 C 300.164 279.426,300.215 281.791,300.277 278.774 C 300.339 275.757,300.339 270.923,300.277 268.033 C 300.214 265.143,300.163 267.611,300.163 273.519 " stroke="none" fill="#e4e3e3" fill-rule="evenodd"></path><path id="path1" d="M101.217 86.624 C 83.665 92.734,80.586 116.283,96.000 126.530 C 113.107 137.904,134.841 123.030,130.569 102.872 C 127.882 90.194,113.628 82.304,101.217 86.624 M243.704 96.905 C 232.405 99.132,223.739 107.536,219.230 120.640 C 218.497 122.771,203.505 192.609,202.194 200.000 C 198.799 219.147,209.674 230.263,227.963 226.341 C 237.852 224.220,247.008 214.799,251.043 202.593 C 251.977 199.765,255.556 183.878,255.556 182.557 C 255.556 182.367,251.817 182.222,246.938 182.222 L 238.320 182.222 236.695 190.278 C 234.061 203.333,232.844 206.247,229.268 208.056 C 224.192 210.623,220.691 208.197,220.706 202.122 C 220.715 198.919,236.027 126.011,237.620 121.590 C 240.897 112.497,251.062 111.935,251.103 120.845 C 251.109 122.216,249.013 132.896,247.216 140.648 L 247.023 141.481 255.734 141.481 C 260.525 141.481,264.444 141.348,264.444 141.185 C 264.444 141.022,265.280 137.064,266.302 132.389 C 269.825 116.267,269.347 109.761,264.128 102.855 C 260.566 98.140,251.232 95.421,243.704 96.905 M345.245 98.056 C 345.060 98.412,340.867 111.204,335.926 126.481 C 330.985 141.759,325.917 157.426,324.665 161.296 C 322.672 167.451,322.283 168.348,321.564 168.452 C 320.517 168.602,320.249 172.694,323.889 133.051 C 325.620 114.195,327.037 98.628,327.037 98.458 C 327.037 98.287,324.053 98.148,320.405 98.148 L 313.773 98.148 302.033 133.333 C 290.818 166.946,290.254 168.519,289.406 168.519 C 288.387 168.519,288.394 168.556,288.900 165.895 C 289.256 164.022,295.556 100.639,295.556 98.929 C 295.556 98.157,295.456 98.148,287.037 98.148 L 278.519 98.148 278.517 99.167 C 278.516 99.727,278.184 104.352,277.780 109.444 C 276.041 131.347,268.889 224.157,268.889 224.824 C 268.889 225.527,269.164 225.556,276.027 225.556 L 283.166 225.556 291.658 201.574 C 309.030 152.517,308.549 153.729,308.020 160.413 C 307.580 165.980,303.704 223.622,303.704 224.602 L 303.704 225.556 310.833 225.554 L 317.963 225.553 331.481 186.603 C 338.917 165.180,345.185 147.467,345.410 147.239 C 345.636 147.011,349.583 135.998,354.181 122.764 C 358.780 109.531,362.654 98.412,362.792 98.056 C 363.026 97.450,362.475 97.407,354.312 97.407 C 346.372 97.407,345.551 97.466,345.245 98.056 M148.915 108.367 C 143.064 109.940,137.634 114.404,134.314 120.370 C 125.824 135.626,110.139 140.766,94.764 133.331 C 81.824 127.073,67.192 132.926,62.759 146.131 C 56.437 164.966,75.926 182.153,93.878 173.575 C 98.698 171.272,101.331 168.477,105.502 161.239 C 113.267 147.761,128.579 143.449,144.184 150.346 C 158.563 156.701,173.080 149.888,176.848 135.015 C 180.915 118.964,165.214 103.985,148.915 108.367 M124.861 153.177 C 119.108 154.724,113.075 159.713,110.044 165.428 C 102.089 180.432,86.321 185.695,70.776 178.535 C 54.094 170.852,37.778 180.666,37.778 198.383 C 37.778 221.874,68.973 229.672,79.777 208.882 C 87.768 193.504,103.745 187.672,118.881 194.607 C 129.860 199.637,138.641 198.407,146.335 190.762 C 162.332 174.863,146.601 147.330,124.861 153.177 M102.407 198.186 C 84.109 200.808,76.787 223.390,90.041 236.325 C 100.439 246.472,117.211 244.774,124.768 232.808 C 135.157 216.358,121.641 195.431,102.407 198.186 M42.593 263.253 C 34.133 267.401,33.962 279.322,42.303 283.557 C 46.390 285.633,52.802 284.051,54.903 280.448 C 55.644 279.178,55.685 279.229,52.550 277.468 L 50.471 276.299 49.098 277.594 C 46.750 279.809,43.964 278.785,43.099 275.390 C 41.747 270.083,45.672 266.212,49.114 269.458 C 50.681 270.936,50.753 270.929,53.321 269.011 C 55.477 267.402,55.438 267.521,54.349 265.906 C 52.367 262.964,46.077 261.545,42.593 263.253 M59.630 273.519 L 59.630 284.444 62.778 284.444 L 65.926 284.444 65.926 281.111 C 65.926 277.079,66.850 276.440,68.543 279.302 C 69.039 280.141,69.734 281.266,70.087 281.802 C 70.441 282.339,70.895 283.153,71.096 283.611 C 71.616 284.791,78.519 284.920,78.519 283.749 C 78.519 283.367,78.269 282.846,77.963 282.593 C 77.657 282.339,77.407 281.973,77.407 281.779 C 77.407 281.585,76.672 280.289,75.773 278.900 L 74.139 276.373 75.164 275.390 C 77.760 272.904,77.646 267.639,74.938 264.937 C 72.760 262.762,72.085 262.593,65.591 262.593 L 59.630 262.593 59.630 273.519 M82.593 273.519 L 82.593 284.444 90.556 284.444 L 98.519 284.444 98.519 281.667 L 98.519 278.889 93.889 278.889 L 89.259 278.889 89.259 277.407 L 89.259 275.926 93.148 275.926 L 97.037 275.926 97.037 273.333 L 97.037 270.741 93.148 270.741 L 89.259 270.741 89.259 269.444 L 89.259 268.148 93.704 268.148 L 98.148 268.148 98.148 265.370 L 98.148 262.593 90.370 262.593 L 82.593 262.593 82.593 273.519 M108.569 263.781 C 108.370 264.451,107.848 265.917,107.409 267.037 C 106.970 268.157,106.469 269.491,106.296 270.000 C 106.123 270.509,105.623 271.843,105.185 272.963 C 104.747 274.083,104.246 275.417,104.071 275.926 C 103.896 276.435,103.225 278.269,102.578 280.000 C 101.932 281.731,101.318 283.440,101.214 283.796 C 101.043 284.381,101.366 284.444,104.526 284.444 L 108.027 284.444 108.649 282.205 L 109.272 279.966 111.732 280.076 L 114.193 280.185 114.743 281.852 C 115.045 282.769,115.346 283.727,115.412 283.981 C 115.560 284.550,122.222 284.649,122.222 284.083 C 122.222 283.750,120.372 278.519,119.009 275.000 C 118.693 274.185,118.204 272.894,117.921 272.130 C 117.209 270.204,116.393 268.031,115.766 266.389 C 115.474 265.625,115.086 264.500,114.903 263.889 C 114.575 262.795,114.527 262.776,111.751 262.670 L 108.932 262.562 108.569 263.781 M122.593 265.370 L 122.593 268.148 125.556 268.148 L 128.519 268.148 128.519 276.296 L 128.519 284.444 131.852 284.444 L 135.185 284.444 135.185 276.296 L 135.185 268.148 138.148 268.148 L 141.111 268.148 141.111 265.370 L 141.111 262.593 131.852 262.593 L 122.593 262.593 122.593 265.370 M145.185 273.519 L 145.185 284.444 148.333 284.444 L 151.481 284.444 151.481 273.519 L 151.481 262.593 148.333 262.593 L 145.185 262.593 145.185 273.519 M155.185 262.690 C 155.185 262.744,155.530 263.703,155.951 264.820 C 157.858 269.880,158.963 272.849,159.256 273.704 C 159.431 274.213,159.928 275.546,160.360 276.667 C 160.792 277.787,161.494 279.704,161.919 280.926 C 163.194 284.593,163.019 284.444,166.069 284.444 L 168.779 284.444 169.732 281.759 C 170.256 280.282,171.194 277.688,171.817 275.994 C 172.440 274.300,173.195 272.216,173.493 271.364 C 173.792 270.512,174.390 268.898,174.824 267.778 C 175.257 266.657,175.748 265.324,175.915 264.815 C 176.082 264.306,176.338 263.597,176.483 263.241 C 176.723 262.650,176.430 262.593,173.195 262.593 L 169.644 262.593 169.419 263.611 C 169.296 264.171,168.734 266.130,168.172 267.963 C 167.609 269.796,166.936 272.088,166.675 273.056 C 166.414 274.023,166.077 274.815,165.926 274.815 C 165.775 274.815,165.445 274.023,165.193 273.056 C 164.940 272.088,164.523 270.630,164.266 269.815 C 163.777 268.264,162.777 264.851,162.396 263.426 C 162.203 262.709,155.185 261.993,155.185 262.690 M180.000 273.511 L 180.000 284.444 187.979 284.444 L 195.958 284.444 195.850 281.759 L 195.741 279.074 191.204 278.970 L 186.667 278.866 186.667 277.396 L 186.667 275.926 190.556 275.926 L 194.444 275.926 194.444 273.333 L 194.444 270.741 190.556 270.741 L 186.667 270.741 186.667 269.456 L 186.667 268.171 191.204 268.067 L 195.741 267.963 195.741 265.370 L 195.741 262.778 187.870 262.678 L 180.000 262.578 180.000 273.511 M207.778 262.760 C 207.778 262.853,207.932 263.311,208.121 263.779 C 208.834 265.547,211.824 273.272,212.966 276.296 C 213.620 278.028,214.368 279.944,214.629 280.556 C 214.890 281.167,215.369 282.292,215.694 283.056 L 216.284 284.444 218.889 284.444 C 221.828 284.444,221.447 284.828,223.369 279.924 C 224.106 278.041,224.811 277.413,224.817 278.633 C 224.818 278.876,225.292 280.241,225.870 281.667 L 226.922 284.259 229.665 284.365 L 232.407 284.472 234.201 279.921 C 235.188 277.418,236.742 273.454,237.656 271.111 C 238.569 268.769,239.637 266.071,240.028 265.117 C 241.080 262.554,241.123 262.593,237.299 262.593 L 233.857 262.593 233.228 264.537 C 232.409 267.069,231.400 270.261,230.347 273.652 L 229.501 276.378 228.975 274.732 C 228.462 273.123,228.489 272.970,230.151 268.045 C 231.086 265.273,231.852 262.912,231.852 262.799 C 231.852 262.685,230.539 262.593,228.934 262.593 C 225.650 262.593,225.949 262.316,224.737 266.481 L 224.198 268.333 223.787 266.468 C 222.913 262.507,223.005 262.593,219.599 262.593 C 216.882 262.593,216.612 262.656,216.839 263.241 C 218.477 267.466,219.992 272.909,219.800 273.874 C 219.191 276.917,219.247 277.026,215.935 266.389 L 214.752 262.593 211.265 262.593 C 209.347 262.593,207.778 262.668,207.778 262.760 M244.074 273.519 L 244.074 284.444 247.407 284.444 L 250.741 284.444 250.741 273.519 L 250.741 262.593 247.407 262.593 L 244.074 262.593 244.074 273.519 M255.926 265.370 L 255.926 268.148 260.401 268.148 L 264.877 268.148 263.642 269.721 C 262.149 271.623,261.937 271.882,258.374 276.169 L 255.556 279.559 255.556 282.002 L 255.556 284.444 264.275 284.444 L 272.995 284.444 272.887 281.759 L 272.778 279.074 268.426 278.970 C 263.713 278.857,263.622 278.813,265.000 277.327 C 265.509 276.778,265.926 276.169,265.926 275.973 C 265.926 275.777,266.061 275.562,266.225 275.494 C 266.390 275.426,267.890 273.595,269.559 271.425 L 272.593 267.480 272.593 265.037 L 272.593 262.593 264.259 262.593 L 255.926 262.593 255.926 265.370 M283.180 263.796 C 282.898 264.458,282.419 265.667,282.116 266.481 C 281.321 268.620,280.540 270.699,279.857 272.500 C 279.528 273.366,278.990 274.782,278.662 275.648 C 278.333 276.514,277.852 277.806,277.593 278.519 C 277.333 279.231,276.861 280.481,276.545 281.296 C 275.237 284.660,275.078 284.444,278.873 284.444 C 282.593 284.444,282.610 284.432,283.302 281.296 C 283.625 279.832,288.889 279.286,288.889 280.717 C 288.889 281.129,289.157 282.137,289.485 282.955 L 290.080 284.444 293.374 284.444 C 297.009 284.444,297.098 284.371,296.148 282.142 C 295.653 280.979,295.052 279.420,293.931 276.389 C 293.648 275.625,293.158 274.333,292.842 273.519 C 292.527 272.704,291.747 270.537,291.111 268.704 C 290.474 266.870,289.672 264.747,289.328 263.986 L 288.704 262.601 286.198 262.597 C 283.721 262.593,283.686 262.607,283.180 263.796 M300.370 273.519 L 300.370 284.444 303.519 284.444 L 306.667 284.444 306.667 281.111 C 306.667 277.846,306.685 277.778,307.549 277.778 C 308.329 277.778,311.069 281.419,311.123 282.527 C 311.195 283.990,319.630 285.701,319.630 284.252 C 319.630 284.146,319.213 283.399,318.704 282.593 C 318.194 281.786,317.778 281.054,317.778 280.966 C 317.778 280.877,317.194 279.920,316.481 278.837 C 315.024 276.625,314.937 276.222,315.768 275.533 C 318.085 273.610,318.441 268.674,316.464 265.872 C 314.435 262.994,313.301 262.627,306.389 262.609 L 300.370 262.593 300.370 273.519 M323.333 273.519 L 323.333 284.444 328.856 284.444 C 338.745 284.444,342.963 281.234,342.963 273.707 C 342.963 265.835,338.848 262.593,328.856 262.593 L 323.333 262.593 323.333 273.519 M350.920 263.374 C 344.341 266.856,345.326 273.836,352.736 276.238 C 355.943 277.278,356.667 277.666,356.667 278.346 C 356.667 279.470,353.087 278.894,350.082 277.286 C 348.545 276.464,348.435 276.544,347.035 279.506 C 345.665 282.406,345.711 282.493,349.239 283.657 C 356.104 285.922,362.251 284.230,363.564 279.714 C 364.820 275.394,362.917 272.773,357.161 270.894 C 353.759 269.784,353.143 269.380,353.744 268.655 C 354.366 267.905,355.454 268.046,358.240 269.235 C 359.790 269.895,360.828 270.158,360.972 269.926 C 361.427 269.190,363.324 265.367,363.329 265.177 C 363.335 264.927,361.360 263.940,359.344 263.185 C 356.989 262.303,352.765 262.397,350.920 263.374 M69.926 268.593 C 71.454 270.121,69.996 272.593,67.566 272.593 L 65.926 272.593 65.926 270.370 L 65.926 268.148 67.704 268.148 C 68.681 268.148,69.681 268.348,69.926 268.593 M310.667 268.593 C 312.163 270.089,310.667 272.593,308.276 272.593 L 306.667 272.593 306.667 270.370 L 306.667 268.148 308.444 268.148 C 309.422 268.148,310.422 268.348,310.667 268.593 M334.287 268.845 C 338.413 271.361,336.337 278.889,331.517 278.889 L 330.000 278.889 330.000 273.519 L 330.000 268.148 331.574 268.150 C 332.459 268.150,333.647 268.455,334.287 268.845 M286.986 273.426 L 287.678 275.926 286.078 275.926 L 284.477 275.926 284.962 274.537 C 285.229 273.773,285.576 272.481,285.734 271.667 C 286.055 270.010,286.031 269.976,286.986 273.426 M112.934 275.093 C 112.959 275.804,112.773 275.926,111.660 275.926 C 110.213 275.926,110.221 275.994,111.222 272.298 L 111.653 270.707 112.279 272.483 C 112.624 273.460,112.918 274.634,112.934 275.093 " stroke="none" fill="#dc6464" fill-rule="evenodd"></path><path id="path2" d="M98.148 303.704 L 98.148 310.370 99.630 310.370 L 101.111 310.370 101.111 303.704 L 101.111 297.037 99.630 297.037 L 98.148 297.037 98.148 303.704 M133.189 297.619 C 133.066 297.940,133.143 298.533,133.360 298.938 C 134.136 300.389,136.772 299.180,136.182 297.643 C 135.870 296.830,133.499 296.811,133.189 297.619 M197.407 298.160 C 197.407 299.420,198.041 299.830,199.445 299.477 C 201.201 299.037,200.745 297.037,198.889 297.037 C 197.486 297.037,197.407 297.097,197.407 298.160 M238.519 303.704 L 238.519 310.370 240.000 310.370 L 241.481 310.370 241.481 303.704 L 241.481 297.037 240.000 297.037 L 238.519 297.037 238.519 303.704 M257.152 297.643 C 256.793 298.578,257.559 299.444,258.744 299.444 C 259.681 299.444,259.829 299.294,259.931 298.241 C 260.065 296.855,257.653 296.336,257.152 297.643 M160.065 298.265 C 159.149 299.239,158.981 301.390,159.722 302.646 C 160.094 303.276,160.092 303.464,159.714 303.600 C 159.014 303.854,158.148 305.734,158.148 307.001 C 158.148 309.706,159.628 310.945,162.459 310.607 C 163.449 310.489,165.134 310.396,166.204 310.401 C 168.326 310.409,168.465 310.248,167.461 308.943 C 166.815 308.102,166.815 308.001,167.470 306.016 C 168.368 303.292,168.362 303.271,166.774 303.404 C 165.677 303.495,165.358 303.697,165.193 304.401 C 165.002 305.220,164.949 305.237,164.459 304.648 C 164.043 304.146,164.025 303.882,164.374 303.395 C 167.154 299.517,163.252 294.872,160.065 298.265 M223.573 298.316 C 221.773 299.984,222.132 302.609,224.469 304.874 C 227.099 307.421,226.401 308.789,223.056 307.643 C 222.295 307.382,222.222 307.471,222.222 308.666 C 222.222 312.371,229.202 311.065,229.288 307.343 L 229.316 306.111 229.751 307.524 C 230.619 310.346,233.244 311.608,235.611 310.341 C 237.910 309.110,238.055 302.944,235.828 301.086 C 233.776 299.374,229.642 301.188,229.624 303.809 C 229.618 304.630,228.905 306.111,228.895 305.323 C 228.891 305.094,228.048 304.087,227.019 303.085 C 224.818 300.940,224.764 299.775,226.882 300.118 C 227.953 300.292,229.814 298.871,229.196 298.351 C 227.724 297.111,224.891 297.093,223.573 298.316 M85.556 304.074 L 85.556 310.370 88.727 310.370 L 91.899 310.370 91.783 309.167 C 91.674 308.037,91.570 307.956,90.093 307.849 C 87.701 307.676,87.615 305.185,90.000 305.185 C 91.446 305.185,91.481 305.154,91.481 303.889 C 91.481 302.623,91.446 302.593,90.000 302.593 C 88.554 302.593,88.519 302.562,88.519 301.296 C 88.519 300.007,88.527 300.000,90.185 300.000 C 91.790 300.000,91.852 299.959,91.852 298.889 L 91.852 297.778 88.704 297.778 L 85.556 297.778 85.556 304.074 M173.333 304.074 L 173.333 310.370 175.833 310.365 C 180.054 310.356,181.847 308.424,181.842 303.889 C 181.838 299.604,180.055 297.792,175.833 297.783 L 173.333 297.778 173.333 304.074 M252.423 299.581 C 252.302 299.961,251.874 300.570,251.472 300.934 C 250.736 301.601,250.462 302.963,251.065 302.963 C 251.243 302.963,251.463 304.375,251.553 306.101 C 251.761 310.059,252.307 310.828,254.795 310.665 C 256.415 310.560,256.486 310.506,256.601 309.303 C 256.713 308.136,256.656 308.064,255.768 308.234 L 254.815 308.416 254.815 305.689 C 254.815 303.210,254.882 302.963,255.556 302.963 C 256.132 302.963,256.296 302.716,256.296 301.852 C 256.296 300.988,256.132 300.741,255.556 300.741 C 255.012 300.741,254.815 300.494,254.815 299.815 C 254.815 298.631,252.787 298.433,252.423 299.581 M162.898 300.617 C 162.717 301.547,161.852 301.674,161.852 300.772 C 161.852 300.317,162.091 300.000,162.435 300.000 C 162.779 300.000,162.968 300.252,162.898 300.617 M177.841 300.613 C 179.309 301.942,178.546 307.778,176.904 307.778 C 176.379 307.778,176.296 307.246,176.296 303.889 C 176.296 299.814,176.494 299.394,177.841 300.613 M103.621 301.019 C 100.299 304.807,101.867 310.741,106.190 310.741 C 108.416 310.741,109.259 310.228,109.259 308.876 C 109.259 307.697,108.911 307.542,107.707 308.186 C 106.681 308.735,105.185 308.058,105.185 307.045 C 105.185 306.377,105.424 306.296,107.407 306.296 L 109.630 306.296 109.630 305.055 C 109.630 301.305,105.690 298.659,103.621 301.019 M111.389 300.770 C 109.818 301.685,110.904 303.663,112.593 302.963 C 113.587 302.551,113.824 302.556,114.103 302.996 C 114.771 304.052,114.466 304.444,112.977 304.444 C 109.135 304.444,108.552 310.361,112.364 310.673 C 113.154 310.738,113.961 310.631,114.157 310.435 C 114.353 310.240,115.186 310.170,116.009 310.280 L 117.505 310.481 117.338 306.126 C 117.182 302.047,117.114 301.727,116.271 301.079 C 115.276 300.314,112.476 300.137,111.389 300.770 M121.713 300.633 C 121.568 300.778,120.790 300.848,119.984 300.790 L 118.519 300.684 118.519 305.527 L 118.519 310.370 120.000 310.370 L 121.481 310.370 121.481 307.438 C 121.481 303.901,121.666 303.333,122.817 303.333 C 123.413 303.333,123.705 303.120,123.709 302.685 C 123.712 302.329,123.814 301.662,123.937 301.204 C 124.162 300.363,122.428 299.918,121.713 300.633 M127.639 300.633 C 127.494 300.778,126.716 300.848,125.910 300.790 L 124.444 300.684 124.444 305.527 L 124.444 310.370 125.741 310.370 L 127.037 310.370 127.041 308.241 C 127.047 305.236,127.425 303.303,128.054 303.062 C 128.950 302.718,129.248 303.728,129.254 307.130 L 129.259 310.370 130.741 310.370 L 132.222 310.370 132.220 307.130 C 132.218 303.365,131.736 301.273,130.749 300.745 C 129.944 300.314,128.027 300.245,127.639 300.633 M140.400 301.019 C 140.191 301.378,140.018 301.461,140.011 301.204 C 140.004 300.924,139.488 300.741,138.704 300.741 L 137.407 300.741 137.407 305.556 L 137.407 310.370 138.889 310.370 L 140.370 310.370 140.370 307.082 C 140.370 304.656,140.512 303.677,140.910 303.347 C 141.919 302.509,142.222 303.324,142.222 306.874 L 142.222 310.370 143.736 310.370 L 145.249 310.370 145.124 306.149 C 145.021 302.629,144.883 301.798,144.294 301.149 C 143.387 300.147,140.955 300.066,140.400 301.019 M146.885 301.510 C 145.827 302.766,145.683 304.144,146.461 305.549 C 146.821 306.200,146.863 306.671,146.602 307.158 C 146.399 307.537,146.321 308.206,146.428 308.646 C 146.535 309.085,146.383 309.768,146.089 310.163 C 143.808 313.237,149.263 316.277,152.539 313.757 C 154.914 311.931,153.718 308.226,150.641 307.879 C 148.650 307.655,148.626 307.237,150.586 306.919 C 152.239 306.650,152.936 305.792,152.951 304.003 C 152.958 303.251,153.130 302.533,153.333 302.407 C 154.438 301.725,153.662 300.839,151.759 300.610 C 148.381 300.205,147.910 300.292,146.885 301.510 M183.891 301.204 C 182.096 302.754,182.143 308.165,183.967 309.855 C 185.840 311.591,189.630 310.906,189.630 308.833 C 189.630 307.817,189.538 307.721,188.796 307.959 C 187.051 308.518,186.159 308.361,185.676 307.407 L 185.207 306.481 187.652 306.371 L 190.098 306.260 189.861 304.149 C 189.566 301.523,188.478 300.370,186.296 300.370 C 185.336 300.370,184.535 300.648,183.891 301.204 M191.234 301.324 C 190.026 302.533,190.176 304.905,191.521 305.847 C 194.401 307.864,194.071 309.254,191.019 307.971 C 190.473 307.742,190.370 307.903,190.370 308.995 C 190.370 310.464,190.789 310.741,193.006 310.741 C 196.631 310.741,197.730 307.113,194.815 304.770 C 192.625 303.011,192.852 302.144,195.243 303.132 C 196.059 303.470,196.649 301.192,195.873 300.700 C 194.757 299.993,192.225 300.334,191.234 301.324 M202.227 301.375 C 201.561 302.221,201.457 302.718,201.623 304.255 C 201.980 307.553,201.847 309.788,201.274 310.109 C 200.489 310.548,200.587 313.079,201.418 313.831 C 202.572 314.876,206.831 314.684,207.980 313.535 C 210.154 311.361,208.942 308.230,205.790 307.875 C 203.991 307.672,203.777 307.037,205.507 307.037 C 207.131 307.037,207.895 306.222,208.126 304.242 C 208.531 300.771,209.226 301.879,209.339 306.177 L 209.444 310.185 211.019 310.299 L 212.593 310.413 212.593 306.918 C 212.593 304.447,212.738 303.303,213.090 303.012 C 213.915 302.326,214.074 302.925,214.074 306.728 L 214.074 310.370 215.556 310.370 L 217.037 310.370 217.037 306.062 C 217.037 302.113,216.971 301.696,216.240 301.062 C 215.392 300.327,213.161 300.121,212.777 300.742 C 212.651 300.947,212.182 301.040,211.737 300.950 C 211.291 300.860,209.150 300.689,206.979 300.569 L 203.032 300.351 202.227 301.375 M262.946 300.845 C 259.376 303.658,260.845 310.717,265.000 310.717 C 267.696 310.717,268.889 309.073,268.889 305.358 C 268.889 301.343,265.541 298.800,262.946 300.845 M273.194 300.633 C 273.050 300.778,272.272 300.848,271.466 300.790 L 270.000 300.684 270.000 305.527 L 270.000 310.370 271.481 310.370 L 272.963 310.370 272.963 307.824 C 272.963 304.654,273.286 302.963,273.892 302.963 C 274.553 302.963,274.804 304.202,274.810 307.500 L 274.815 310.370 276.296 310.370 L 277.778 310.370 277.778 306.346 C 277.778 301.494,277.227 300.370,274.850 300.370 C 274.084 300.370,273.339 300.489,273.194 300.633 M279.329 301.126 C 277.704 302.640,278.600 305.952,280.861 306.786 C 281.758 307.117,281.499 308.347,280.544 308.291 C 280.143 308.267,279.523 308.125,279.167 307.973 C 278.620 307.742,278.519 307.902,278.519 308.995 C 278.519 310.478,278.939 310.746,281.234 310.729 C 284.815 310.702,285.684 307.316,282.791 304.661 C 281.013 303.028,280.998 302.286,282.758 302.955 C 283.909 303.393,284.852 301.863,284.037 300.881 C 283.360 300.065,280.296 300.224,279.329 301.126 M133.333 305.556 L 133.333 310.370 134.630 310.370 L 135.926 310.370 135.926 305.556 L 135.926 300.741 134.630 300.741 L 133.333 300.741 133.333 305.556 M197.407 305.556 L 197.407 310.370 198.889 310.370 L 200.370 310.370 200.370 305.556 L 200.370 300.741 198.889 300.741 L 197.407 300.741 197.407 305.556 M242.593 304.986 C 242.593 308.875,242.660 309.294,243.403 309.986 C 244.202 310.729,246.611 311.044,247.176 310.478 C 247.321 310.334,248.099 310.263,248.905 310.321 L 250.370 310.427 250.370 305.584 L 250.370 300.741 248.945 300.741 L 247.519 300.741 247.284 304.327 C 246.905 310.083,245.571 309.959,245.561 304.167 L 245.556 300.741 244.074 300.741 L 242.593 300.741 242.593 304.986 M257.037 305.556 L 257.037 310.370 258.519 310.370 L 260.000 310.370 260.000 305.556 L 260.000 300.741 258.519 300.741 L 257.037 300.741 257.037 305.556 M149.936 303.855 C 149.870 304.396,149.648 304.874,149.444 304.919 C 148.999 305.016,148.739 303.517,149.057 302.689 C 149.404 301.785,150.081 302.684,149.936 303.855 M205.185 303.749 C 205.185 305.064,205.108 305.212,204.630 304.815 C 203.961 304.260,203.910 303.275,204.519 302.667 C 205.160 302.025,205.185 302.067,205.185 303.749 M106.296 302.933 C 106.296 303.120,106.397 303.536,106.521 303.859 C 106.682 304.279,106.525 304.444,105.966 304.444 C 105.206 304.444,104.862 303.410,105.432 302.840 C 105.790 302.482,106.296 302.537,106.296 302.933 M187.037 303.934 C 187.037 304.215,186.704 304.444,186.296 304.444 C 185.520 304.444,185.405 304.158,185.784 303.169 C 186.053 302.469,187.037 303.070,187.037 303.934 M234.476 304.354 C 234.851 306.191,234.374 307.963,233.503 307.963 C 232.760 307.963,232.236 304.797,232.756 303.443 C 233.116 302.503,234.216 303.086,234.476 304.354 M265.701 303.549 C 266.302 305.114,265.839 308.148,265.000 308.148 C 264.146 308.148,263.772 305.795,264.308 303.796 C 264.565 302.834,265.372 302.691,265.701 303.549 M92.222 305.741 L 92.222 307.037 94.815 307.037 L 97.407 307.037 97.407 305.741 L 97.407 304.444 94.815 304.444 L 92.222 304.444 92.222 305.741 M162.955 307.711 C 162.967 308.459,161.325 308.073,161.176 307.293 C 160.897 305.831,161.467 305.297,162.237 306.299 C 162.627 306.807,162.950 307.442,162.955 307.711 M114.444 306.691 C 114.444 307.324,113.710 308.519,113.320 308.519 C 112.918 308.519,112.829 306.924,113.210 306.543 C 113.599 306.154,114.444 306.255,114.444 306.691 M150.525 310.595 C 151.434 310.944,151.217 311.830,150.121 312.247 C 148.822 312.740,147.737 311.867,148.503 310.945 C 149.012 310.332,149.582 310.233,150.525 310.595 M205.710 310.595 C 206.566 310.924,206.426 311.828,205.463 312.185 C 204.394 312.583,203.704 312.315,203.704 311.504 C 203.704 310.420,204.416 310.098,205.710 310.595 " stroke="none" fill="#7b8493" fill-rule="evenodd"></path><path id="path3" d="M247.325 96.568 C 248.196 96.646,249.529 96.645,250.288 96.566 C 251.046 96.486,250.333 96.422,248.704 96.423 C 247.074 96.425,246.453 96.490,247.325 96.568 M286.920 98.055 L 295.508 98.162 295.661 99.173 C 295.803 100.107,295.819 100.092,295.870 98.981 L 295.926 97.778 287.130 97.863 L 278.333 97.949 286.920 98.055 M320.252 98.055 C 326.265 98.153,327.004 98.233,327.154 98.805 C 327.277 99.276,327.333 99.225,327.364 98.611 L 327.407 97.778 320.463 97.861 L 313.519 97.945 320.252 98.055 M278.234 101.111 C 278.234 101.824,278.310 102.116,278.403 101.759 C 278.497 101.403,278.497 100.819,278.403 100.463 C 278.310 100.106,278.234 100.398,278.234 101.111 M326.760 102.037 C 326.764 102.852,326.840 103.142,326.929 102.681 C 327.017 102.220,327.014 101.553,326.921 101.199 C 326.828 100.845,326.756 101.222,326.760 102.037 M295.271 102.593 C 295.271 103.306,295.347 103.597,295.440 103.241 C 295.534 102.884,295.534 102.301,295.440 101.944 C 295.347 101.588,295.271 101.880,295.271 102.593 M266.183 106.106 C 266.522 106.817,266.865 107.332,266.946 107.252 C 267.115 107.083,265.991 104.815,265.737 104.815 C 265.644 104.815,265.845 105.396,266.183 106.106 M277.864 105.926 C 277.864 106.639,277.940 106.931,278.033 106.574 C 278.126 106.218,278.126 105.634,278.033 105.278 C 277.940 104.921,277.864 105.213,277.864 105.926 M326.382 105.926 C 326.382 106.639,326.458 106.931,326.552 106.574 C 326.645 106.218,326.645 105.634,326.552 105.278 C 326.458 104.921,326.382 105.213,326.382 105.926 M294.901 106.296 C 294.901 107.009,294.977 107.301,295.070 106.944 C 295.163 106.588,295.163 106.005,295.070 105.648 C 294.977 105.292,294.901 105.583,294.901 106.296 M326.012 110.000 C 326.012 110.713,326.088 111.005,326.181 110.648 C 326.274 110.292,326.274 109.708,326.181 109.352 C 326.088 108.995,326.012 109.287,326.012 110.000 M294.530 110.370 C 294.530 111.083,294.607 111.375,294.700 111.019 C 294.793 110.662,294.793 110.079,294.700 109.722 C 294.607 109.366,294.530 109.657,294.530 110.370 M277.493 110.741 C 277.493 111.454,277.570 111.745,277.663 111.389 C 277.756 111.032,277.756 110.449,277.663 110.093 C 277.570 109.736,277.493 110.028,277.493 110.741 M294.160 114.074 C 294.160 114.787,294.236 115.079,294.329 114.722 C 294.423 114.366,294.423 113.782,294.329 113.426 C 294.236 113.069,294.160 113.361,294.160 114.074 M325.641 114.074 C 325.641 114.787,325.718 115.079,325.811 114.722 C 325.904 114.366,325.904 113.782,325.811 113.426 C 325.718 113.069,325.641 113.361,325.641 114.074 M244.722 114.706 C 245.181 114.794,245.931 114.794,246.389 114.706 C 246.847 114.618,246.472 114.545,245.556 114.545 C 244.639 114.545,244.264 114.618,244.722 114.706 M277.123 115.556 C 277.123 116.269,277.199 116.560,277.292 116.204 C 277.386 115.847,277.386 115.264,277.292 114.907 C 277.199 114.551,277.123 114.843,277.123 115.556 M240.350 116.944 L 239.074 118.333 240.463 117.057 C 241.756 115.869,242.022 115.556,241.739 115.556 C 241.677 115.556,241.052 116.181,240.350 116.944 M293.790 117.778 C 293.790 118.491,293.866 118.782,293.959 118.426 C 294.052 118.069,294.052 117.486,293.959 117.130 C 293.866 116.773,293.790 117.065,293.790 117.778 M325.271 118.148 C 325.271 118.861,325.347 119.153,325.440 118.796 C 325.534 118.440,325.534 117.856,325.440 117.500 C 325.347 117.144,325.271 117.435,325.271 118.148 M268.619 118.889 C 268.619 119.806,268.692 120.181,268.780 119.722 C 268.868 119.264,268.868 118.514,268.780 118.056 C 268.692 117.597,268.619 117.972,268.619 118.889 M293.419 121.481 C 293.419 122.194,293.495 122.486,293.589 122.130 C 293.682 121.773,293.682 121.190,293.589 120.833 C 293.495 120.477,293.419 120.769,293.419 121.481 M324.908 122.037 C 324.912 122.852,324.988 123.142,325.077 122.681 C 325.165 122.220,325.162 121.553,325.069 121.199 C 324.977 120.845,324.904 121.222,324.908 122.037 M276.382 124.815 C 276.382 125.528,276.458 125.819,276.552 125.463 C 276.645 125.106,276.645 124.523,276.552 124.167 C 276.458 123.810,276.382 124.102,276.382 124.815 M293.049 125.185 C 293.049 125.898,293.125 126.190,293.218 125.833 C 293.311 125.477,293.311 124.894,293.218 124.537 C 293.125 124.181,293.049 124.472,293.049 125.185 M324.538 126.111 C 324.542 126.926,324.618 127.216,324.706 126.755 C 324.795 126.294,324.792 125.628,324.699 125.273 C 324.606 124.919,324.534 125.296,324.538 126.111 M292.679 128.889 C 292.679 129.602,292.755 129.894,292.848 129.537 C 292.941 129.181,292.941 128.597,292.848 128.241 C 292.755 127.884,292.679 128.176,292.679 128.889 M276.012 129.630 C 276.012 130.343,276.088 130.634,276.181 130.278 C 276.274 129.921,276.274 129.338,276.181 128.981 C 276.088 128.625,276.012 128.917,276.012 129.630 M324.167 130.185 C 324.172 131.000,324.247 131.290,324.336 130.829 C 324.425 130.368,324.421 129.702,324.329 129.348 C 324.236 128.993,324.163 129.370,324.167 130.185 M323.797 134.259 C 323.801 135.074,323.877 135.364,323.966 134.903 C 324.054 134.442,324.051 133.776,323.958 133.422 C 323.865 133.068,323.793 133.444,323.797 134.259 M275.641 134.444 C 275.641 135.157,275.718 135.449,275.811 135.093 C 275.904 134.736,275.904 134.153,275.811 133.796 C 275.718 133.440,275.641 133.731,275.641 134.444 M323.419 138.148 C 323.419 138.861,323.495 139.153,323.589 138.796 C 323.682 138.440,323.682 137.856,323.589 137.500 C 323.495 137.144,323.419 137.435,323.419 138.148 M275.271 139.259 C 275.271 139.972,275.347 140.264,275.440 139.907 C 275.534 139.551,275.534 138.968,275.440 138.611 C 275.347 138.255,275.271 138.546,275.271 139.259 M323.049 142.222 C 323.049 142.935,323.125 143.227,323.218 142.870 C 323.311 142.514,323.311 141.931,323.218 141.574 C 323.125 141.218,323.049 141.509,323.049 142.222 M251.204 141.758 C 253.597 141.823,257.514 141.823,259.907 141.758 C 262.301 141.694,260.343 141.641,255.556 141.641 C 250.769 141.641,248.810 141.694,251.204 141.758 M274.901 144.074 C 274.901 144.787,274.977 145.079,275.070 144.722 C 275.163 144.366,275.163 143.782,275.070 143.426 C 274.977 143.069,274.901 143.361,274.901 144.074 M322.679 146.296 C 322.679 147.009,322.755 147.301,322.848 146.944 C 322.941 146.588,322.941 146.005,322.848 145.648 C 322.755 145.292,322.679 145.583,322.679 146.296 M290.827 147.778 C 290.827 148.491,290.903 148.782,290.996 148.426 C 291.089 148.069,291.089 147.486,290.996 147.130 C 290.903 146.773,290.827 147.065,290.827 147.778 M274.530 148.889 C 274.530 149.602,274.607 149.894,274.700 149.537 C 274.793 149.181,274.793 148.597,274.700 148.241 C 274.607 147.884,274.530 148.176,274.530 148.889 M322.308 150.370 C 322.308 151.083,322.384 151.375,322.478 151.019 C 322.571 150.662,322.571 150.079,322.478 149.722 C 322.384 149.366,322.308 149.657,322.308 150.370 M290.456 151.481 C 290.456 152.194,290.533 152.486,290.626 152.130 C 290.719 151.773,290.719 151.190,290.626 150.833 C 290.533 150.477,290.456 150.769,290.456 151.481 M274.160 153.704 C 274.160 154.417,274.236 154.708,274.329 154.352 C 274.423 153.995,274.423 153.412,274.329 153.056 C 274.236 152.699,274.160 152.991,274.160 153.704 M321.938 154.444 C 321.938 155.157,322.014 155.449,322.107 155.093 C 322.200 154.736,322.200 154.153,322.107 153.796 C 322.014 153.440,321.938 153.731,321.938 154.444 M273.790 158.519 C 273.790 159.231,273.866 159.523,273.959 159.167 C 274.052 158.810,274.052 158.227,273.959 157.870 C 273.866 157.514,273.790 157.806,273.790 158.519 M321.567 158.519 C 321.567 159.231,321.644 159.523,321.737 159.167 C 321.830 158.810,321.830 158.227,321.737 157.870 C 321.644 157.514,321.567 157.806,321.567 158.519 M321.197 162.593 C 321.197 163.306,321.273 163.597,321.366 163.241 C 321.460 162.884,321.460 162.301,321.366 161.944 C 321.273 161.588,321.197 161.880,321.197 162.593 M320.827 166.296 C 320.827 167.009,320.903 167.301,320.996 166.944 C 321.089 166.588,321.089 166.005,320.996 165.648 C 320.903 165.292,320.827 165.583,320.827 166.296 M307.123 170.370 C 307.123 171.083,307.199 171.375,307.292 171.019 C 307.386 170.662,307.386 170.079,307.292 169.722 C 307.199 169.366,307.123 169.657,307.123 170.370 M306.760 175.741 C 306.764 176.556,306.840 176.845,306.929 176.385 C 307.017 175.924,307.014 175.257,306.921 174.903 C 306.828 174.549,306.756 174.926,306.760 175.741 M306.390 181.296 C 306.394 182.111,306.470 182.401,306.558 181.940 C 306.647 181.479,306.643 180.813,306.551 180.459 C 306.458 180.105,306.386 180.481,306.390 181.296 M246.649 182.129 C 253.025 182.208,255.412 182.358,255.625 182.692 C 255.828 183.012,255.916 182.954,255.920 182.500 C 255.926 181.898,255.286 181.858,246.944 181.937 L 237.963 182.023 246.649 182.129 M306.012 186.667 C 306.012 187.380,306.088 187.671,306.181 187.315 C 306.274 186.958,306.274 186.375,306.181 186.019 C 306.088 185.662,306.012 185.954,306.012 186.667 M305.641 192.222 C 305.641 192.935,305.718 193.227,305.811 192.870 C 305.904 192.514,305.904 191.931,305.811 191.574 C 305.718 191.218,305.641 191.509,305.641 192.222 M305.271 197.778 C 305.271 198.491,305.347 198.782,305.440 198.426 C 305.534 198.069,305.534 197.486,305.440 197.130 C 305.347 196.773,305.271 197.065,305.271 197.778 M304.901 203.333 C 304.901 204.046,304.977 204.338,305.070 203.981 C 305.163 203.625,305.163 203.042,305.070 202.685 C 304.977 202.329,304.901 202.620,304.901 203.333 M230.903 206.759 L 229.815 207.963 231.019 206.875 C 231.681 206.277,232.222 205.735,232.222 205.671 C 232.222 205.385,231.917 205.637,230.903 206.759 M304.530 208.889 C 304.530 209.602,304.607 209.894,304.700 209.537 C 304.793 209.181,304.793 208.597,304.700 208.241 C 304.607 207.884,304.530 208.176,304.530 208.889 M304.160 214.444 C 304.160 215.157,304.236 215.449,304.329 215.093 C 304.423 214.736,304.423 214.153,304.329 213.796 C 304.236 213.440,304.160 213.731,304.160 214.444 M303.790 220.000 C 303.790 220.713,303.866 221.005,303.959 220.648 C 304.052 220.292,304.052 219.708,303.959 219.352 C 303.866 218.995,303.790 219.287,303.790 220.000 M303.452 225.000 C 303.525 225.712,303.805 225.741,310.653 225.753 L 317.778 225.765 310.767 225.653 C 304.500 225.552,303.735 225.472,303.565 224.899 C 303.422 224.415,303.394 224.439,303.452 225.000 M268.613 225.185 C 268.741 225.654,269.886 225.743,275.956 225.754 L 283.148 225.766 276.128 225.653 C 271.115 225.571,269.015 225.409,268.785 225.084 C 268.551 224.755,268.504 224.783,268.613 225.185 M224.167 226.922 C 224.523 227.015,225.106 227.015,225.463 226.922 C 225.819 226.829,225.528 226.753,224.815 226.753 C 224.102 226.753,223.810 226.829,224.167 226.922 " stroke="none" fill="#e0a4a4" fill-rule="evenodd"></path><path id="path4" d="M282.892 97.684 C 285.399 97.748,289.399 97.748,291.780 97.684 C 294.162 97.619,292.111 97.567,287.222 97.567 C 282.333 97.567,280.385 97.620,282.892 97.684 M313.580 97.654 C 313.444 97.790,313.336 98.082,313.339 98.302 C 313.342 98.547,313.457 98.526,313.633 98.250 C 313.839 97.926,315.828 97.764,320.572 97.685 L 327.222 97.574 320.525 97.491 C 316.841 97.445,313.716 97.519,313.580 97.654 M263.148 101.481 C 263.944 102.296,264.678 102.963,264.780 102.963 C 264.882 102.963,264.314 102.296,263.519 101.481 C 262.723 100.667,261.989 100.000,261.887 100.000 C 261.785 100.000,262.353 100.667,263.148 101.481 M277.871 103.519 C 277.875 104.333,277.951 104.623,278.040 104.162 C 278.128 103.702,278.125 103.035,278.032 102.681 C 277.940 102.327,277.867 102.704,277.871 103.519 M277.501 108.333 C 277.505 109.148,277.581 109.438,277.669 108.977 C 277.758 108.516,277.755 107.850,277.662 107.496 C 277.569 107.142,277.497 107.519,277.501 108.333 M277.130 113.148 C 277.135 113.963,277.210 114.253,277.299 113.792 C 277.388 113.331,277.384 112.665,277.292 112.310 C 277.199 111.956,277.126 112.333,277.130 113.148 M276.760 117.963 C 276.764 118.778,276.840 119.068,276.929 118.607 C 277.017 118.146,277.014 117.479,276.921 117.125 C 276.828 116.771,276.756 117.148,276.760 117.963 M250.834 120.926 C 250.838 121.741,250.914 122.030,251.003 121.570 C 251.091 121.109,251.088 120.442,250.995 120.088 C 250.903 119.734,250.830 120.111,250.834 120.926 M276.382 122.593 C 276.382 123.306,276.458 123.597,276.552 123.241 C 276.645 122.884,276.645 122.301,276.552 121.944 C 276.458 121.588,276.382 121.880,276.382 122.593 M276.012 127.407 C 276.012 128.120,276.088 128.412,276.181 128.056 C 276.274 127.699,276.274 127.116,276.181 126.759 C 276.088 126.403,276.012 126.694,276.012 127.407 M275.641 132.222 C 275.641 132.935,275.718 133.227,275.811 132.870 C 275.904 132.514,275.904 131.931,275.811 131.574 C 275.718 131.218,275.641 131.509,275.641 132.222 M275.271 137.037 C 275.271 137.750,275.347 138.042,275.440 137.685 C 275.534 137.329,275.534 136.745,275.440 136.389 C 275.347 136.032,275.271 136.324,275.271 137.037 M274.901 141.852 C 274.901 142.565,274.977 142.856,275.070 142.500 C 275.163 142.144,275.163 141.560,275.070 141.204 C 274.977 140.847,274.901 141.139,274.901 141.852 M274.538 146.481 C 274.542 147.296,274.618 147.586,274.706 147.125 C 274.795 146.665,274.792 145.998,274.699 145.644 C 274.606 145.290,274.534 145.667,274.538 146.481 M274.167 151.296 C 274.172 152.111,274.247 152.401,274.336 151.940 C 274.425 151.479,274.421 150.813,274.329 150.459 C 274.236 150.105,274.163 150.481,274.167 151.296 M273.797 156.111 C 273.801 156.926,273.877 157.216,273.966 156.755 C 274.054 156.294,274.051 155.628,273.958 155.273 C 273.865 154.919,273.793 155.296,273.797 156.111 M273.427 160.926 C 273.431 161.741,273.507 162.030,273.595 161.570 C 273.684 161.109,273.681 160.442,273.588 160.088 C 273.495 159.734,273.423 160.111,273.427 160.926 M307.501 162.778 C 307.505 163.593,307.581 163.882,307.669 163.422 C 307.758 162.961,307.755 162.294,307.662 161.940 C 307.569 161.586,307.497 161.963,307.501 162.778 M273.056 165.741 C 273.060 166.556,273.136 166.845,273.225 166.385 C 273.314 165.924,273.310 165.257,273.217 164.903 C 273.125 164.549,273.052 164.926,273.056 165.741 M307.143 167.593 C 307.146 168.611,307.218 168.984,307.303 168.421 C 307.388 167.858,307.386 167.025,307.298 166.569 C 307.210 166.113,307.140 166.574,307.143 167.593 M272.686 170.556 C 272.690 171.370,272.766 171.660,272.855 171.199 C 272.943 170.739,272.940 170.072,272.847 169.718 C 272.754 169.364,272.682 169.741,272.686 170.556 M306.768 172.963 C 306.768 173.880,306.840 174.255,306.928 173.796 C 307.016 173.338,307.016 172.588,306.928 172.130 C 306.840 171.671,306.768 172.046,306.768 172.963 M272.316 175.370 C 272.320 176.185,272.396 176.475,272.484 176.014 C 272.573 175.553,272.569 174.887,272.477 174.533 C 272.384 174.179,272.312 174.556,272.316 175.370 M306.397 178.519 C 306.397 179.435,306.469 179.810,306.558 179.352 C 306.646 178.894,306.646 178.144,306.558 177.685 C 306.469 177.227,306.397 177.602,306.397 178.519 M271.945 180.185 C 271.949 181.000,272.025 181.290,272.114 180.829 C 272.202 180.368,272.199 179.702,272.106 179.348 C 272.014 178.993,271.941 179.370,271.945 180.185 M306.027 184.074 C 306.027 184.991,306.099 185.366,306.187 184.907 C 306.276 184.449,306.276 183.699,306.187 183.241 C 306.099 182.782,306.027 183.157,306.027 184.074 M271.575 185.000 C 271.579 185.815,271.655 186.105,271.743 185.644 C 271.832 185.183,271.829 184.516,271.736 184.162 C 271.643 183.808,271.571 184.185,271.575 185.000 M305.656 189.630 C 305.656 190.546,305.729 190.921,305.817 190.463 C 305.905 190.005,305.905 189.255,305.817 188.796 C 305.729 188.338,305.656 188.713,305.656 189.630 M271.205 189.815 C 271.209 190.630,271.284 190.919,271.373 190.459 C 271.462 189.998,271.458 189.331,271.366 188.977 C 271.273 188.623,271.200 189.000,271.205 189.815 M270.842 194.444 C 270.842 195.361,270.914 195.736,271.002 195.278 C 271.090 194.819,271.090 194.069,271.002 193.611 C 270.914 193.153,270.842 193.528,270.842 194.444 M305.291 195.000 C 305.294 196.019,305.366 196.391,305.451 195.828 C 305.536 195.265,305.534 194.432,305.446 193.976 C 305.358 193.521,305.288 193.981,305.291 195.000 M270.471 199.259 C 270.471 200.176,270.543 200.551,270.632 200.093 C 270.720 199.634,270.720 198.884,270.632 198.426 C 270.543 197.968,270.471 198.343,270.471 199.259 M304.921 200.556 C 304.924 201.574,304.995 201.947,305.081 201.384 C 305.166 200.821,305.163 199.987,305.076 199.532 C 304.988 199.076,304.918 199.537,304.921 200.556 M270.101 204.074 C 270.101 204.991,270.173 205.366,270.261 204.907 C 270.350 204.449,270.350 203.699,270.261 203.241 C 270.173 202.782,270.101 203.157,270.101 204.074 M201.238 206.852 C 201.239 208.481,201.305 209.102,201.383 208.231 C 201.461 207.360,201.460 206.026,201.380 205.268 C 201.301 204.509,201.237 205.222,201.238 206.852 M304.550 206.111 C 304.553 207.130,304.625 207.502,304.710 206.939 C 304.795 206.376,304.793 205.543,304.705 205.088 C 304.617 204.632,304.548 205.093,304.550 206.111 M269.731 208.889 C 269.731 209.806,269.803 210.181,269.891 209.722 C 269.979 209.264,269.979 208.514,269.891 208.056 C 269.803 207.597,269.731 207.972,269.731 208.889 M224.907 208.774 C 225.264 208.867,225.847 208.867,226.204 208.774 C 226.560 208.681,226.269 208.604,225.556 208.604 C 224.843 208.604,224.551 208.681,224.907 208.774 M304.180 211.667 C 304.183 212.685,304.255 213.058,304.340 212.495 C 304.425 211.932,304.423 211.099,304.335 210.643 C 304.247 210.188,304.177 210.648,304.180 211.667 M269.360 213.704 C 269.360 214.620,269.432 214.995,269.521 214.537 C 269.609 214.079,269.609 213.329,269.521 212.870 C 269.432 212.412,269.360 212.787,269.360 213.704 M303.810 217.222 C 303.812 218.241,303.884 218.613,303.969 218.050 C 304.055 217.487,304.052 216.654,303.964 216.199 C 303.877 215.743,303.807 216.204,303.810 217.222 M241.285 218.981 L 239.074 221.296 241.389 219.086 C 242.662 217.870,243.704 216.828,243.704 216.771 C 243.704 216.497,243.338 216.831,241.285 218.981 M268.990 218.519 C 268.990 219.435,269.062 219.810,269.150 219.352 C 269.239 218.894,269.239 218.144,269.150 217.685 C 269.062 217.227,268.990 217.602,268.990 218.519 M206.296 222.037 C 206.987 222.750,207.636 223.333,207.738 223.333 C 207.840 223.333,207.358 222.750,206.667 222.037 C 205.976 221.324,205.327 220.741,205.225 220.741 C 205.123 220.741,205.605 221.324,206.296 222.037 M303.439 222.778 C 303.442 223.796,303.514 224.169,303.599 223.606 C 303.684 223.043,303.682 222.210,303.594 221.754 C 303.506 221.299,303.436 221.759,303.439 222.778 M268.619 223.333 C 268.619 224.250,268.692 224.625,268.780 224.167 C 268.868 223.708,268.868 222.958,268.780 222.500 C 268.692 222.042,268.619 222.417,268.619 223.333 M219.363 227.310 C 220.337 227.386,221.837 227.385,222.696 227.308 C 223.556 227.230,222.759 227.167,220.926 227.169 C 219.093 227.170,218.389 227.233,219.363 227.310 " stroke="none" fill="#e3acac" fill-rule="evenodd"></path></g></svg>