<?xml version="1.0" standalone="no"?>
<!DOCTYPE svg PUBLIC "-//W3C//DTD SVG 20010904//EN"
 "http://www.w3.org/TR/2001/REC-SVG-20010904/DTD/svg10.dtd">
<svg version="1.0" xmlns="http://www.w3.org/2000/svg"
 width="738.000000pt" height="647.000000pt" viewBox="0 0 738.000000 647.000000"
 preserveAspectRatio="xMidYMid meet">

<g transform="translate(0.000000,647.000000) scale(0.100000,-0.100000)"
fill="#000000" stroke="none">
<path d="M3429 6360 c-639 -44 -1233 -271 -1734 -663 -126 -99 -144 -115 -295
-267 -347 -347 -594 -749 -750 -1220 -65 -194 -98 -334 -131 -550 -20 -126
-23 -184 -23 -440 0 -320 12 -442 70 -697 149 -670 519 -1274 1055 -1725 300
-254 713 -478 1092 -592 869 -263 1814 -142 2578 330 1131 700 1699 2025 1428
3332 -273 1316 -1374 2322 -2709 2476 -167 19 -427 26 -581 16z m461 -60
c1036 -93 1924 -662 2441 -1565 191 -334 314 -704 376 -1130 24 -170 24 -600
0 -775 -89 -631 -336 -1181 -736 -1640 -117 -133 -154 -171 -271 -274 -371
-326 -757 -541 -1213 -672 -434 -125 -932 -151 -1377 -73 -1286 224 -2295
1234 -2519 2519 -58 332 -60 676 -5 1025 142 906 708 1721 1519 2188 528 303
1187 450 1785 397z"/>
<path d="M3745 6180 c-18 -20 -18 -21 1 -40 18 -18 20 -18 41 -1 20 17 21 20
7 40 -19 26 -26 26 -49 1z"/>
<path d="M3470 6070 c-139 -7 -399 -38 -412 -49 -4 -4 -1 -17 8 -30 12 -16 23
-22 40 -18 26 5 28 -1 40 -108 11 -96 10 -95 138 -149 101 -42 116 -52 116
-72 0 -16 10 -28 30 -39 29 -15 31 -15 41 8 19 41 -2 61 -111 107 -56 23 -110
50 -120 59 -19 16 -40 108 -40 177 0 30 3 32 41 36 22 2 42 1 44 -2 2 -3 7
-38 10 -78 7 -69 7 -72 -14 -72 -26 0 -27 -12 -2 -34 12 -11 31 -16 53 -14 31
3 33 5 33 43 0 22 -4 70 -8 106 l-8 66 68 6 c37 4 110 7 161 7 l92 0 0 -41 c0
-41 0 -41 -22 -25 -84 61 -188 28 -188 -60 0 -67 89 -131 149 -107 14 6 34 14
44 18 13 6 17 2 17 -18 0 -17 10 -33 30 -47 l30 -21 0 150 0 151 35 0 c40 0
41 2 19 35 -18 28 -31 29 -314 15z m166 -156 c19 -9 34 -20 34 -24 0 -11 -100
-60 -122 -60 -39 0 -41 66 -1 89 26 15 50 13 89 -5z"/>
<path d="M4072 6020 c7 -22 18 -33 39 -37 31 -6 33 -13 22 -76 -4 -28 -12 -41
-29 -48 -29 -11 -29 -14 -1 -64 24 -43 67 -61 67 -29 0 14 6 16 38 10 20 -3
43 -6 51 -6 10 0 12 -10 7 -43 -6 -37 -3 -46 18 -66 30 -29 26 -38 62 136 l27
131 33 -5 34 -6 -11 31 c-9 27 -17 32 -67 42 -31 7 -108 23 -170 36 -63 13
-118 24 -122 24 -5 0 -4 -14 2 -30z m198 -70 c35 -1 41 -14 29 -73 -9 -45 -15
-56 -28 -53 -9 2 -31 7 -48 11 -37 7 -41 22 -22 88 9 33 14 38 32 33 12 -3 29
-6 37 -6z"/>
<path d="M2655 5911 c-60 -21 -146 -52 -190 -70 -88 -36 -445 -222 -445 -232
0 -4 13 -12 29 -19 27 -11 38 -7 161 59 72 39 135 71 139 71 7 0 31 -43 31
-55 0 -2 -15 -5 -32 -7 -25 -2 -37 -10 -48 -34 -13 -24 -20 -29 -35 -23 -86
33 -152 -62 -94 -135 44 -56 179 -102 187 -63 2 12 -3 17 -17 17 -68 0 -141
64 -126 111 13 41 75 48 75 8 0 -14 7 -19 30 -19 27 0 30 3 30 33 0 35 24 77
43 77 7 0 27 -29 45 -65 34 -69 45 -79 85 -73 23 3 22 6 -46 132 -73 135 -73
138 -19 152 16 5 29 0 43 -15 11 -11 29 -21 40 -21 15 0 19 -5 15 -15 -3 -8
-8 -21 -11 -28 -8 -19 33 -67 71 -83 47 -20 69 -17 101 10 l28 24 22 -24 c12
-13 32 -24 44 -24 l22 0 -23 -25 c-26 -27 -26 -27 10 -45 15 -8 25 -9 27 -3 8
24 31 45 41 39 20 -12 13 -44 -14 -65 -33 -26 -85 -27 -141 -2 -36 17 -42 17
-47 5 -15 -39 170 -72 219 -40 71 47 43 123 -49 138 -15 2 -29 32 -63 133 -24
72 -41 135 -39 142 3 6 19 14 36 18 l32 7 -23 24 c-12 13 -25 24 -28 23 -3 0
-55 -17 -116 -38z m53 -113 c18 -61 18 -64 1 -93 -31 -51 -109 -79 -109 -39 0
15 25 42 56 61 19 11 19 12 -2 33 -18 19 -24 20 -42 9 -17 -10 -23 -10 -36 0
-31 26 -19 46 42 68 31 12 60 22 64 22 3 1 15 -27 26 -61z"/>
<path d="M4470 5930 c-11 -11 -20 -29 -20 -41 0 -23 18 -60 34 -71 6 -5 2 -8
-10 -8 -29 0 -54 -31 -54 -68 0 -42 50 -99 94 -108 39 -7 116 12 116 29 0 7 9
-7 19 -30 21 -45 45 -63 94 -67 34 -3 40 -10 31 -38 -6 -21 25 -84 35 -72 5 5
32 66 62 137 29 70 58 127 63 127 12 0 96 -49 96 -56 0 -3 -12 -25 -26 -50
-19 -33 -32 -44 -50 -44 -19 0 -24 -5 -24 -25 0 -32 26 -95 38 -95 5 0 15 6
21 14 11 13 19 11 56 -12 l44 -26 -21 -34 c-20 -33 -20 -35 -4 -70 l17 -35 74
127 c40 70 75 129 78 132 3 3 17 -2 31 -11 l26 -17 0 34 c0 35 -2 36 -150 123
-121 69 -472 235 -500 235 -4 0 -4 -14 -2 -31 4 -27 12 -35 53 -52 31 -13 49
-27 49 -38 0 -27 -26 -42 -64 -35 -30 6 -34 4 -40 -17 -11 -45 -143 -62 -175
-23 -20 24 13 39 70 32 l51 -7 -7 28 c-7 29 -21 43 -42 43 -7 0 -13 5 -13 10
0 6 13 10 30 10 51 0 66 55 25 95 -30 31 -77 33 -105 5z m100 -48 c-1 -19 -20
-33 -40 -30 -30 4 -35 21 -15 42 12 12 21 13 36 6 10 -6 19 -14 19 -18z m289
-135 c2 -4 -7 -32 -19 -62 l-22 -55 -57 0 c-63 0 -98 17 -88 44 5 11 19 16 52
16 l45 0 0 43 c0 24 3 46 6 49 7 7 79 -23 83 -35z m283 -140 l37 -23 -30 -52
-30 -52 -32 16 c-59 30 -59 32 -29 85 15 27 32 49 37 49 6 0 27 -11 47 -23z"/>
<path d="M5517 5383 c-5 -25 2 -36 64 -96 45 -45 68 -74 65 -84 -3 -8 -6 -17
-6 -19 0 -14 -53 0 -78 21 -37 31 -48 31 -55 3 -7 -27 15 -64 43 -73 29 -9 28
-63 -2 -74 -57 -21 -93 19 -92 100 1 65 -19 83 -30 28 -16 -79 -3 -134 40
-174 60 -56 153 -14 141 62 -5 29 -3 33 17 33 28 0 46 18 46 46 0 13 4 25 9
29 10 6 125 -104 160 -154 34 -48 5 -50 -39 -2 -21 22 -47 41 -57 41 -26 0
-51 -29 -59 -68 -4 -18 -12 -32 -19 -32 -26 0 -45 -37 -45 -86 0 -62 17 -87
80 -119 44 -22 49 -29 52 -62 l3 -37 112 97 c61 53 114 97 117 97 6 0 66 -86
66 -94 0 -3 -20 -19 -45 -36 -36 -24 -49 -29 -64 -21 -25 14 -41 -6 -48 -60
-6 -43 10 -67 33 -48 8 6 20 -3 38 -32 29 -43 25 -62 -15 -74 -14 -5 -19 -16
-19 -46 0 -21 2 -39 5 -39 2 0 56 34 118 75 63 41 119 75 125 75 6 0 17 -10
23 -22 11 -21 12 -21 25 -3 8 10 14 26 14 34 -1 33 -192 307 -314 451 -104
122 -363 376 -396 388 -4 2 -10 -10 -13 -25z m268 -423 c21 -22 43 -40 48 -40
5 0 21 9 37 20 l27 19 23 -24 c13 -14 22 -26 19 -28 -2 -1 -34 -28 -71 -60
l-67 -57 -52 19 c-59 23 -99 56 -99 83 0 30 43 22 68 -12 26 -35 47 -38 62
-10 11 20 -1 60 -18 60 -18 1 -54 41 -48 55 9 25 30 17 71 -25z m329 -290 c14
-22 26 -43 26 -47 0 -7 -85 -63 -95 -63 -3 0 -17 18 -32 41 -22 34 -25 42 -12
49 7 5 30 20 49 34 19 14 36 25 36 26 1 0 13 -18 28 -40z"/>
<path d="M1495 5180 l-128 -129 34 -9 c28 -8 38 -6 57 11 l22 21 40 -39 c37
-36 49 -63 15 -35 -12 10 -15 9 -15 -6 0 -11 -10 -39 -22 -64 l-21 -45 -8 31
c-13 46 -42 67 -93 67 -80 0 -131 -54 -106 -113 17 -40 42 -53 91 -45 l39 7 0
-45 c0 -66 18 -80 94 -75 54 4 63 8 92 42 31 36 34 37 71 27 52 -15 73 -14 73
3 0 10 -18 17 -52 23 -41 6 -55 13 -63 31 -13 29 -36 36 -69 21 -29 -14 -34
-43 -10 -57 9 -5 14 -17 13 -27 -12 -56 -89 -32 -89 28 0 40 7 50 47 71 17 9
40 29 50 46 15 27 22 30 66 30 49 0 49 0 44 29 -5 23 0 34 27 60 l32 31 24
-25 c13 -14 35 -25 49 -25 58 0 52 14 -49 115 -55 55 -100 104 -100 109 0 5 7
18 17 28 19 21 17 23 -17 31 -23 6 -41 -9 -155 -123z m150 -30 l39 -40 -36
-36 -35 -36 -41 43 -41 44 32 33 c17 17 34 32 37 32 3 0 24 -18 45 -40z m-251
-222 c24 -34 21 -68 -6 -68 -44 0 -74 50 -46 78 18 18 35 15 52 -10z"/>
<path d="M1930 5194 c0 -27 5 -37 20 -41 13 -3 22 -17 26 -38 3 -19 12 -36 20
-39 11 -4 14 7 14 54 0 65 -21 100 -60 100 -16 0 -20 -7 -20 -36z"/>
<path d="M3477 5174 c-73 -15 -87 -27 -87 -76 0 -42 -26 -98 -46 -98 -23 0
-80 23 -100 41 -26 24 -47 23 -112 -5 -35 -15 -61 -35 -78 -59 -13 -20 -38
-44 -55 -52 -29 -16 -54 -58 -44 -75 3 -5 -3 -15 -13 -22 -22 -15 -42 -50 -42
-72 0 -9 16 -33 36 -53 20 -21 49 -57 65 -80 34 -49 60 -66 85 -56 14 5 16 3
10 -13 -22 -52 -28 -94 -24 -168 4 -93 29 -157 95 -244 36 -48 40 -58 36 -97
-4 -27 1 -65 12 -99 14 -43 17 -76 13 -140 -7 -103 -18 -126 -61 -126 -29 0
-36 -5 -57 -47 -13 -27 -24 -56 -25 -65 0 -9 -14 -32 -32 -50 -23 -24 -33 -46
-38 -83 -4 -27 -12 -65 -18 -83 -10 -28 -9 -39 6 -64 9 -16 17 -38 17 -49 0
-46 29 -89 72 -109 24 -11 53 -20 66 -20 17 0 22 -6 22 -25 0 -14 9 -34 20
-45 19 -19 33 -20 440 -20 l421 0 24 25 c14 13 25 31 25 39 0 8 24 28 53 44
60 34 79 58 98 123 7 24 18 51 26 60 15 18 17 55 3 64 -5 3 -10 17 -10 31 0
14 -16 50 -36 81 -20 31 -37 69 -39 85 -2 15 -10 35 -17 44 -37 45 -51 55 -68
51 -25 -6 -44 17 -65 81 -14 45 -15 64 -6 134 6 45 11 103 11 130 0 40 8 62
40 115 99 165 120 316 61 436 -20 40 -13 51 11 15 19 -28 62 -18 82 20 8 15
37 47 65 70 42 36 51 49 51 76 0 19 -11 49 -25 70 -14 20 -25 42 -25 49 0 26
-32 56 -66 63 -27 5 -39 15 -53 43 -38 74 -129 95 -182 42 -18 -18 -42 -31
-62 -33 -26 -2 -37 3 -59 31 -16 19 -28 45 -28 58 0 36 -37 101 -62 109 -38
12 -269 10 -331 -2z m88 -54 c-3 -6 -10 -10 -16 -10 -10 0 -12 33 -2 44 9 9
26 -22 18 -34z m35 14 c0 -14 -4 -23 -10 -19 -5 3 -10 15 -10 26 0 10 5 19 10
19 6 0 10 -12 10 -26z m46 -10 c-5 -13 -10 -14 -18 -6 -6 6 -8 18 -4 28 5 13
10 14 18 6 6 -6 8 -18 4 -28z m36 1 c-12 -22 -27 -2 -18 22 5 12 10 13 17 6 7
-7 8 -17 1 -28z m44 19 c-3 -9 -6 -21 -6 -27 0 -8 -3 -8 -11 0 -13 13 -5 43
12 43 6 0 8 -7 5 -16z m94 9 c0 -5 -9 -19 -19 -32 -10 -14 -16 -31 -14 -39 5
-12 3 -12 -15 -1 -19 12 -20 15 -7 29 20 22 19 33 -2 26 -15 -5 -15 -4 1 9 21
16 56 20 56 8z m-300 -28 c0 -11 -9 -14 -32 -13 -24 2 -33 -2 -36 -14 -2 -12
3 -18 14 -18 16 0 16 -1 -1 -20 -25 -28 -32 -25 -39 18 -4 28 -2 40 11 50 24
18 83 16 83 -3z m242 -57 c35 -26 71 -108 61 -135 -7 -18 -38 -16 -53 2 -10
13 -10 19 4 33 25 28 21 70 -8 83 -54 25 -105 -18 -90 -76 4 -16 0 -26 -12
-33 -26 -14 -54 2 -47 28 15 58 -32 108 -84 89 -51 -17 -71 -99 -25 -99 28 0
34 -11 17 -30 -16 -18 -36 -106 -28 -126 2 -6 13 -14 24 -17 10 -3 19 -12 19
-21 0 -13 -4 -15 -18 -7 -37 20 -45 39 -40 101 3 48 1 63 -13 76 -16 15 -16
19 4 75 21 56 25 61 67 74 26 9 75 14 116 12 59 -2 77 -7 106 -29z m77 18 c7
-8 9 -25 5 -40 -4 -18 0 -33 15 -52 13 -17 19 -34 15 -49 -3 -12 -1 -38 4 -57
10 -36 -1 -83 -18 -73 -6 4 -10 -5 -10 -21 0 -22 -2 -24 -14 -15 -20 17 -19
89 2 129 16 31 16 34 -4 70 -21 38 -32 122 -16 122 5 0 15 -6 21 -14z m-259
-57 c0 -4 -7 -6 -15 -3 -8 4 -15 10 -15 15 0 4 7 6 15 3 8 -4 15 -10 15 -15z
m152 -1 c-18 -18 -15 -25 9 -24 32 1 35 -22 4 -36 -21 -10 -29 -9 -42 5 -14
13 -14 21 -5 42 6 14 19 25 29 25 13 0 14 -3 5 -12z m-503 -22 c16 -19 9 -178
-8 -184 -9 -3 -9 -7 0 -18 11 -14 6 -44 -8 -44 -4 0 -17 7 -27 15 -15 12 -17
18 -8 27 8 8 8 15 1 24 -8 10 -6 18 6 30 18 19 15 78 -4 97 -17 17 -23 2 -10
-26 7 -15 8 -34 4 -44 -7 -15 -9 -13 -14 12 -5 23 -13 31 -36 35 -45 8 -42 33
7 63 48 30 80 34 97 13z m191 3 c0 -5 5 -7 11 -4 7 5 9 -6 7 -31 -2 -20 -8
-39 -14 -41 -14 -5 -38 52 -30 72 6 17 26 20 26 4z m719 -28 c43 -41 43 -44 0
-54 -14 -4 -31 -18 -37 -32 -7 -14 -20 -25 -31 -25 -12 0 -21 -9 -25 -25 -7
-28 -24 -33 -33 -9 -3 8 4 25 16 38 25 27 28 48 4 39 -14 -5 -15 -1 -10 27 10
46 23 60 74 79 1 1 20 -17 42 -38z m-564 9 c0 -18 -43 -26 -57 -12 -16 16 2
33 30 30 16 -2 27 -9 27 -18z m-275 -9 c0 -14 -18 -23 -30 -16 -6 4 -8 11 -5
16 8 12 35 12 35 0z m60 -15 c0 -3 -4 -8 -10 -11 -5 -3 -10 -1 -10 4 0 6 5 11
10 11 6 0 10 -2 10 -4z m633 -21 c1 -6 -13 -14 -30 -20 -18 -5 -33 -13 -33
-17 0 -4 -4 -8 -10 -8 -23 0 -7 32 23 45 34 15 47 15 50 0z m-668 -15 c9 -10
15 -26 12 -34 -5 -12 -11 -12 -41 2 -34 15 -44 31 -29 45 12 13 40 7 58 -13z
m-205 -43 c0 -5 -9 -11 -20 -14 -22 -6 -27 -23 -7 -23 8 0 22 -9 32 -20 14
-16 17 -33 13 -96 -3 -71 -6 -78 -36 -105 -45 -41 -62 -26 -21 17 l33 34 -19
35 c-18 35 -18 36 1 49 24 18 14 28 -31 31 -46 3 -50 8 -30 39 20 30 13 46
-21 46 -21 0 -24 -5 -24 -36 0 -35 -32 -94 -51 -94 -18 0 -9 37 16 60 13 12
22 27 19 31 -9 16 15 47 53 67 35 18 40 18 66 4 15 -9 27 -20 27 -25z m318 13
c15 0 15 -15 2 -41 -6 -10 -20 -19 -30 -19 -17 0 -20 7 -20 47 0 44 1 45 18
30 10 -10 24 -17 30 -17z m302 -4 c-6 -8 -19 -12 -27 -9 -14 6 -14 8 3 14 30
12 37 10 24 -5z m260 5 c0 -15 -42 -41 -67 -41 -35 0 -28 16 15 33 44 19 52
20 52 8z m249 -2 c17 -6 31 -13 31 -15 0 -1 -12 -15 -26 -29 -22 -22 -30 -25
-48 -16 -12 5 -30 11 -40 13 -26 4 -30 22 -11 42 19 19 49 20 94 5z m-579 -8
c0 -9 -24 -21 -41 -21 -5 0 -9 7 -9 15 0 9 9 15 25 15 14 0 25 -4 25 -9z
m-375 -19 c17 -12 44 -59 38 -65 -3 -3 -17 1 -32 10 -14 10 -27 17 -27 17 -1
1 -5 11 -8 24 -7 22 8 30 29 14z m75 -39 c0 -22 -2 -25 -10 -13 -13 20 -13 40
0 40 6 0 10 -12 10 -27z m401 7 c-27 -23 -53 -25 -84 -7 -20 11 -17 13 33 18
30 3 60 6 65 7 6 1 -1 -8 -14 -18z m339 5 c0 -8 -4 -15 -9 -15 -5 0 -12 -11
-15 -25 -7 -27 -26 -25 -26 2 0 18 28 53 42 53 4 0 8 -7 8 -15z m-512 -11
c-11 -11 -23 -14 -35 -9 -16 7 -15 9 7 15 40 12 45 11 28 -6z m402 9 c0 -13
-14 -28 -30 -32 -8 -2 -23 -6 -33 -9 -17 -4 -18 -3 -6 16 13 20 27 28 57 31 6
0 12 -2 12 -6z m284 -18 c-7 -18 -34 -28 -34 -12 0 17 21 38 31 31 5 -2 6 -11
3 -19z m-508 -44 c-18 -18 -26 -21 -26 -11 0 8 9 21 20 28 11 7 21 20 21 30 1
15 2 15 6 -2 3 -11 -5 -29 -21 -45z m-323 15 c14 -43 -6 -54 -38 -22 -21 21
-24 30 -15 40 17 21 43 12 53 -18z m785 1 c12 -11 22 -26 22 -33 0 -7 14 -15
30 -19 33 -7 41 -25 10 -25 -10 0 -29 10 -40 23 -16 17 -32 22 -68 22 -52 0
-66 19 -36 49 19 20 48 13 82 -17z m-579 14 c18 -11 5 -31 -20 -31 -18 0 -26
20 -12 33 8 9 15 9 32 -2z m691 -53 c0 -15 -27 -8 -44 11 -10 11 -14 25 -10
36 7 16 10 15 31 -11 12 -16 23 -32 23 -36z m-1055 44 c10 -7 35 -47 35 -56 0
-2 -16 4 -35 13 -19 9 -34 23 -35 34 0 17 17 22 35 9z m820 -19 c-1 -21 -7
-29 -23 -31 -13 -2 -28 -12 -35 -23 -16 -26 -27 -24 -27 6 0 20 6 27 30 32 17
3 35 14 41 24 13 26 16 24 14 -8z m-101 2 c0 -5 -14 -17 -30 -25 -16 -8 -31
-18 -32 -23 -5 -9 -22 1 -22 14 0 5 9 18 21 30 20 20 65 23 63 4z m-410 -20
c14 -14 36 -25 50 -25 14 0 33 10 44 25 30 38 41 31 28 -15 -12 -45 -41 -60
-81 -42 -13 6 -31 9 -41 6 -33 -8 -48 12 -45 59 1 24 16 21 45 -8z m-584 -15
c-11 -20 -50 -28 -50 -11 0 7 28 22 58 30 1 1 -2 -8 -8 -19z m189 -34 c23 -36
27 -56 11 -56 -5 0 -10 7 -10 15 0 8 -11 22 -25 31 -27 18 -34 44 -11 44 8 0
24 -15 35 -34z m92 4 c40 -36 36 -43 -13 -23 -25 10 -38 22 -38 34 0 27 14 24
51 -11z m556 14 c5 -15 -46 -76 -58 -68 -12 7 -11 51 1 59 6 3 10 1 10 -4 0
-6 5 -11 11 -11 6 0 8 9 4 21 -6 16 -3 20 11 17 9 -1 19 -8 21 -14z m-377 -11
c0 -7 7 -13 15 -13 19 0 19 -14 0 -30 -11 -9 -21 -6 -50 17 -19 15 -35 30 -35
34 0 3 16 5 35 5 22 0 35 -5 35 -13z m430 13 c0 -2 -7 -17 -15 -32 -22 -42
-19 -65 5 -34 26 35 37 17 16 -27 -20 -43 -35 -35 -43 25 -7 49 1 72 22 72 8
0 15 -2 15 -4z m98 -18 c-3 -7 -14 -17 -26 -23 -12 -5 -22 -13 -22 -17 0 -5
-4 -8 -10 -8 -16 0 -12 18 10 40 22 22 54 27 48 8z m182 -3 c0 -9 -7 -18 -15
-21 -26 -11 -17 -41 16 -53 20 -7 29 -16 27 -27 -4 -22 -28 -31 -28 -10 0 9
-11 23 -25 32 -18 12 -25 25 -25 48 0 18 3 36 7 39 12 13 43 7 43 -8z m-70 -2
c0 -10 -52 -63 -62 -63 -12 0 19 57 34 63 19 8 28 8 28 0z m-740 -27 c5 -15 5
-38 -1 -60 -11 -38 -23 -46 -33 -20 -11 28 -6 39 9 20 19 -25 19 -5 0 41 -18
44 -18 43 0 43 9 0 20 -11 25 -24z m-76 -25 c11 -12 17 -24 14 -27 -9 -8 -65
23 -71 40 -13 34 22 26 57 -13z m986 29 c0 -5 -2 -10 -4 -10 -3 0 -8 5 -11 10
-3 6 -1 10 4 10 6 0 11 -4 11 -10z m-1087 -45 c19 -40 22 -65 7 -65 -5 0 -10
8 -10 18 0 10 -11 29 -25 42 -30 28 -32 40 -7 40 11 0 25 -14 35 -35z m375 -1
c2 -1 -2 -11 -10 -23 l-12 -20 -23 21 c-13 12 -23 29 -23 39 0 16 2 16 33 2
17 -9 33 -17 35 -19z m452 28 c0 -7 -58 -62 -66 -62 -10 0 -2 19 17 44 19 24
49 36 49 18z m204 2 c9 -3 16 -12 16 -20 0 -17 -2 -17 -35 -2 -42 19 -25 39
19 22z m-1192 -26 c-9 -9 -15 -9 -24 0 -9 9 -7 12 12 12 19 0 21 -3 12 -12z
m668 -24 c0 -17 -5 -24 -20 -24 -22 0 -25 12 -9 41 13 25 29 16 29 -17z m60
12 c0 -26 -22 -40 -38 -24 -7 7 -7 16 1 29 16 27 37 24 37 -5z m-135 -13 c3
-9 1 -21 -5 -27 -14 -14 -45 17 -37 38 7 18 33 11 42 -11z m-359 -5 c27 -26
32 -58 9 -58 -8 0 -15 5 -15 10 0 6 -9 19 -20 30 -12 12 -18 25 -15 30 9 14
14 13 41 -12z m161 -15 c-8 -8 -21 -13 -28 -11 -9 3 -6 11 11 28 17 17 25 20
28 11 2 -7 -3 -20 -11 -28z m666 -4 c-12 -21 -19 -26 -21 -15 -4 21 17 58 29
51 5 -4 2 -19 -8 -36z m-912 -50 c13 -17 6 -49 -10 -49 -6 0 -8 7 -4 16 4 10
0 22 -9 28 -17 12 -21 27 -19 61 1 16 4 15 16 -10 8 -16 20 -37 26 -46z m749
67 c0 -2 -7 -17 -15 -32 -15 -29 -22 -13 -9 20 5 14 24 23 24 12z m80 -25
c-40 -34 -50 -32 -26 4 10 14 26 25 39 25 20 -1 19 -3 -13 -29z m-670 -53 c0
-35 -17 -71 -31 -63 -5 4 -9 16 -8 28 0 21 1 21 9 2 7 -17 9 -16 9 10 0 17 -3
37 -8 45 -13 20 -2 34 15 19 8 -6 14 -25 14 -41z m140 44 c0 -13 -23 -32 -39
-32 -11 0 -10 4 4 20 19 21 35 26 35 12z m324 -7 c-4 -8 -8 -15 -10 -15 -2 0
-4 7 -4 15 0 8 4 15 10 15 5 0 7 -7 4 -15z m-244 1 c0 -2 -13 -20 -30 -41 -23
-29 -30 -33 -30 -19 0 26 27 64 46 64 8 0 14 -2 14 -4z m494 -4 c6 -9 -50 -72
-58 -65 -13 13 -5 43 16 57 25 18 35 20 42 8z m-784 -68 c0 -7 -4 -14 -10 -14
-5 0 -10 6 -10 14 0 8 -7 16 -15 20 -8 3 -15 15 -15 27 0 21 1 21 25 -5 14
-15 25 -34 25 -42z m350 56 c0 -5 -13 -23 -30 -40 -16 -17 -30 -35 -30 -41 0
-6 -4 -8 -9 -5 -13 9 -1 47 22 74 21 23 47 30 47 12z m84 -21 c23 -27 34 -59
21 -59 -7 0 -74 74 -75 83 0 18 30 4 54 -24z m75 7 c38 -40 19 -48 -24 -11
-34 29 -37 34 -19 35 11 0 31 -11 43 -24z m91 9 c19 -23 8 -26 -20 -5 -19 15
-21 20 -9 20 9 0 22 -7 29 -15z m80 11 c0 -2 -7 -17 -15 -32 l-15 -29 0 26 c0
14 3 29 7 32 7 8 23 9 23 3z m-549 -49 c-16 -16 -26 0 -10 19 9 11 15 12 17 4
2 -6 -1 -17 -7 -23z m443 10 c15 -24 -3 -35 -20 -13 -8 11 -14 24 -14 29 0 13
22 3 34 -16z m286 3 c0 -5 -4 -10 -10 -10 -5 0 -10 5 -10 10 0 6 5 10 10 10 6
0 10 -4 10 -10z m-968 -40 c4 0 8 -9 8 -20 0 -11 -5 -20 -11 -20 -5 0 -8 4 -5
9 3 5 -1 14 -9 21 -8 7 -15 22 -14 34 0 21 0 21 11 -1 6 -13 15 -23 20 -23z
m908 37 c0 -1 -4 -17 -9 -35 -11 -37 -9 -38 24 -16 22 15 25 15 25 1 0 -9 -10
-23 -22 -31 -20 -14 -24 -14 -40 1 -21 18 -24 53 -6 71 11 11 28 16 28 9z
m-112 -27 c-7 -10 -14 -18 -15 -16 -6 6 9 36 18 36 5 0 4 -9 -3 -20z m-511
-16 c-16 -14 -30 -24 -32 -22 -9 9 27 48 43 48 13 0 10 -6 -11 -26z m244 -3
c25 -25 39 -61 24 -61 -9 0 -75 71 -75 80 0 18 21 10 51 -19z m199 3 c0 -8 -4
-12 -10 -9 -5 3 -10 13 -10 21 0 8 5 12 10 9 6 -3 10 -13 10 -21z m-630 -53
c0 -6 -4 -11 -10 -11 -5 0 -10 5 -10 10 0 6 -9 19 -20 30 -12 12 -18 25 -15
30 7 11 55 -41 55 -59z m360 48 c0 -7 -16 -27 -35 -46 -37 -36 -44 -30 -20 17
18 35 55 54 55 29z m176 -14 c24 -37 12 -40 -21 -5 -22 23 -25 30 -12 30 9 0
24 -11 33 -25z m52 13 c7 -7 12 -21 12 -32 -1 -20 -1 -20 -20 3 -29 34 -22 59
8 29z m-696 -75 c-2 -7 -9 -13 -15 -13 -6 0 -7 3 -4 6 3 4 -2 18 -13 31 -10
13 -16 31 -13 39 7 18 52 -45 45 -63z m361 46 c-13 -22 -19 -26 -21 -14 -4 17
15 45 30 45 5 0 1 -14 -9 -31z m429 -4 c-2 -14 -6 -25 -8 -25 -2 0 -4 11 -4
25 0 14 4 25 9 25 4 0 6 -11 3 -25z m35 -6 c-8 -21 -13 -26 -15 -14 -5 21 5
45 17 45 5 0 4 -13 -2 -31z m-663 5 c3 -8 0 -25 -6 -37 -7 -12 -13 -33 -13
-47 0 -26 -25 -35 -33 -12 -2 7 2 10 12 6 21 -8 20 6 -1 22 -17 13 -17 13 1
14 12 0 16 5 12 15 -3 8 -1 15 5 15 6 0 8 9 4 20 -7 23 10 27 19 4z m716 -9
c0 -3 -9 -22 -20 -42 -17 -32 -20 -34 -20 -15 0 28 17 62 30 62 6 0 10 -2 10
-5z m94 -22 c-7 -25 -6 -27 10 -14 21 17 33 7 16 -14 -17 -20 -27 -19 -40 6
-13 22 -7 49 10 49 6 0 8 -11 4 -27z m-889 -43 c-7 -12 -45 26 -45 45 0 9 8 6
25 -11 14 -14 23 -29 20 -34z m459 29 c24 -28 33 -49 21 -49 -2 0 -20 16 -40
35 -39 40 -41 45 -21 45 8 0 26 -14 40 -31z m96 10 c17 -31 7 -33 -20 -4 -19
20 -20 25 -7 25 9 0 21 -9 27 -21z m-342 -14 c-13 -29 -28 -33 -28 -7 0 22 8
32 26 32 11 0 11 -5 2 -25z m162 -14 c-6 -12 -15 -21 -20 -21 -6 0 -10 -6 -10
-14 0 -8 -4 -18 -10 -21 -22 -14 -8 44 17 71 28 30 43 21 23 -15z m247 24 c9
-25 -4 -29 -17 -6 -7 15 -7 21 0 21 6 0 13 -7 17 -15z m-743 -20 c9 -14 14
-30 10 -36 -3 -6 -12 1 -20 16 -24 47 -17 61 10 20z m283 0 c-4 -8 -11 -15
-17 -15 -7 0 -7 6 0 21 13 23 26 19 17 -6z m138 14 c4 -5 0 -18 -8 -27 -7 -9
-17 -25 -20 -35 -9 -23 -27 -13 -27 15 0 21 26 58 41 58 4 0 11 -5 14 -11z
m375 -36 c0 -24 -25 -9 -28 17 -3 21 -2 22 12 11 9 -7 16 -20 16 -28z m135
-19 c-8 -16 -15 -22 -16 -14 -2 26 2 44 14 59 19 23 21 -10 2 -45z m-699 19
c-10 -10 -19 5 -10 18 6 11 8 11 12 0 2 -7 1 -15 -2 -18z m339 -8 c19 -20 35
-43 35 -53 -1 -15 -2 -15 -13 -2 -7 8 -24 23 -39 33 -15 9 -32 26 -38 37 -18
34 15 24 55 -15z m-480 0 c25 -26 33 -55 15 -55 -5 0 -10 6 -10 13 0 7 -9 18
-20 25 -11 7 -20 19 -20 27 0 21 5 19 35 -10z m585 -6 c6 -10 10 -25 10 -34 0
-12 -7 -8 -25 13 -14 17 -25 35 -25 41 0 15 29 2 40 -20z m178 1 c-1 -17 -6
-34 -12 -40 -14 -11 -14 24 -2 53 11 24 15 21 14 -13z m-848 -44 c0 -5 -7 -3
-15 4 -8 7 -15 20 -15 28 0 13 3 12 15 -4 8 -10 15 -23 15 -28z m727 29 c9
-25 -4 -29 -17 -6 -7 15 -7 21 0 21 6 0 13 -7 17 -15z m240 -15 c-9 -25 -27
-42 -27 -26 0 15 21 56 29 56 5 0 4 -13 -2 -30z m-677 11 c0 -5 -7 -14 -15
-21 -12 -10 -15 -10 -15 2 0 8 3 18 7 21 9 10 23 9 23 -2z m61 -47 c5 -6 3
-18 -6 -30 -14 -19 -14 -19 -15 2 0 11 -4 24 -9 30 -5 5 -5 19 2 34 l10 25 5
-25 c2 -14 8 -30 13 -36z m-157 12 c-8 -20 -35 -18 -42 4 -5 13 -3 13 11 1 15
-12 17 -11 17 10 0 16 3 20 10 13 6 -6 8 -18 4 -28z m46 13 c0 -5 -4 -9 -10
-9 -5 0 -10 7 -10 16 0 8 5 12 10 9 6 -3 10 -10 10 -16z m183 3 c3 -4 -5 -19
-18 -34 -28 -33 -44 -19 -21 17 17 25 31 31 39 17z m71 -19 c-9 -37 -13 -43
-29 -43 -14 0 -10 35 8 58 17 21 28 13 21 -15z m281 17 c3 -5 1 -10 -4 -10 -6
0 -11 5 -11 10 0 6 2 10 4 10 3 0 8 -4 11 -10z m227 -34 c-13 -26 -18 -30 -20
-16 -4 24 16 62 28 55 5 -3 2 -21 -8 -39z m-919 -23 c-4 -9 -11 -6 -24 11 -27
34 -24 52 5 25 13 -13 22 -29 19 -36z m581 35 c23 -32 21 -58 -1 -32 -43 47
-47 54 -30 54 9 0 23 -10 31 -22z m212 -15 c-13 -24 -15 -25 -16 -7 0 11 5 25
12 32 19 19 21 6 4 -25z m-316 12 c0 -8 -7 -15 -15 -15 -8 0 -15 7 -15 15 0 8
7 15 15 15 8 0 15 -7 15 -15z m158 -7 c14 -14 16 -28 2 -28 -5 0 -14 9 -20 20
-12 22 -1 27 18 8z m-562 -65 c-8 -8 -35 27 -36 46 0 7 10 2 21 -13 12 -15 18
-30 15 -33z m142 45 c-2 -6 -10 -14 -16 -16 -7 -2 -10 2 -6 12 7 18 28 22 22
4z m472 -3 c0 -8 -4 -15 -10 -15 -5 0 -10 7 -10 15 0 8 5 15 10 15 6 0 10 -7
10 -15z m-719 -45 c-4 -12 -6 -12 -9 3 -2 9 -8 17 -13 17 -5 0 -9 8 -9 17 0
15 2 14 19 -3 10 -10 16 -26 12 -34z m355 8 c-15 -21 -16 -22 -16 -2 0 11 6
26 12 32 19 19 22 -4 4 -30z m91 6 c-19 -18 -27 -21 -27 -10 0 16 40 49 49 40
3 -2 -7 -16 -22 -30z m308 16 c-1 -11 -6 -25 -12 -31 -12 -12 -11 19 1 39 10
17 13 15 11 -8z m100 -16 c-12 -24 -15 -25 -15 -8 0 11 5 25 12 32 18 18 20 8
3 -24z m-255 5 c6 -11 10 -30 8 -42 -3 -19 -7 -16 -21 17 -20 45 -20 46 -7 46
5 0 14 -9 20 -21z m-82 -13 c3 -12 -1 -17 -10 -14 -7 3 -15 13 -16 22 -3 12 1
17 10 14 7 -3 15 -13 16 -22z m258 -18 c-19 -26 -22 -7 -4 25 7 13 13 17 15
10 3 -7 -3 -23 -11 -35z m-108 -4 c-10 -10 -28 6 -28 24 0 15 1 15 17 -1 9 -9
14 -19 11 -23z m242 32 c0 -2 -7 -17 -15 -32 l-15 -29 0 26 c0 14 3 29 7 32 7
8 23 9 23 3z m-210 -22 c0 -8 -5 -12 -10 -9 -6 4 -8 11 -5 16 9 14 15 11 15
-7z m-614 -41 c-7 -7 -36 23 -36 38 0 7 9 3 21 -10 12 -12 19 -25 15 -28z
m155 14 c-8 -8 -11 -7 -11 4 0 20 13 34 18 19 3 -7 -1 -17 -7 -23z m49 11 c0
-16 -3 -19 -11 -11 -6 6 -8 16 -5 22 11 17 16 13 16 -11z m100 16 c0 -3 -9
-17 -20 -31 -21 -27 -27 -15 -10 18 10 18 30 27 30 13z m-201 -86 c7 -40 19
-101 28 -136 14 -60 14 -65 -8 -127 -28 -81 -53 -90 -33 -13 16 61 19 184 4
193 -6 4 -10 -15 -10 -49 0 -30 -7 -87 -15 -127 -12 -54 -13 -74 -4 -80 16 -9
4 -71 -24 -124 -11 -22 -20 -45 -19 -50 3 -14 -65 -34 -76 -23 -18 18 1 49 39
64 43 18 55 39 35 60 -20 19 -26 18 -26 -7 0 -11 -4 -17 -10 -14 -15 9 -12 63
7 130 10 37 17 104 18 176 l2 117 34 41 c19 22 37 41 40 41 3 0 11 -33 18 -72z
m321 35 c0 -20 -24 -11 -28 10 -2 12 1 15 12 11 9 -3 16 -13 16 -21z m41 14
c-1 -12 -15 -9 -19 4 -3 6 1 10 8 8 6 -3 11 -8 11 -12z m259 -17 c-6 -12 -14
-19 -17 -17 -2 3 1 15 7 27 6 12 14 19 17 17 2 -3 -1 -15 -7 -27z m-389 -13
c-13 -12 -20 -15 -16 -7 14 26 28 41 33 35 3 -3 -5 -16 -17 -28z m231 -23 c2
-20 1 -59 -4 -87 -16 -105 -21 -224 -9 -231 16 -10 15 -119 -1 -114 -18 6 -35
86 -54 255 l-18 153 29 30 c38 39 52 38 57 -6z m106 0 c45 -54 56 -107 47
-224 -4 -69 -3 -100 4 -100 7 0 11 28 11 74 0 96 11 196 21 196 17 0 21 -77 9
-170 -11 -88 -10 -102 6 -148 19 -53 15 -74 -11 -52 -13 10 -15 9 -15 -9 0
-14 9 -25 25 -31 14 -5 25 -16 25 -24 0 -7 7 -19 15 -26 8 -7 12 -16 9 -21 -9
-16 -22 -10 -30 14 -7 22 -7 21 -19 -7 l-12 -28 -21 34 c-21 34 -83 188 -106
263 -14 44 -10 295 4 295 5 0 22 -16 38 -36z m-437 0 c21 -22 25 -38 31 -127
3 -56 11 -138 17 -181 12 -82 8 -106 -8 -65 l-10 24 -1 -25 -1 -25 -12 25
c-11 24 -11 24 -15 -15 -2 -25 -12 -48 -28 -64 -31 -31 -43 -20 -15 15 11 15
21 36 21 48 0 16 -3 17 -9 7 -5 -8 -11 22 -14 80 -4 52 -9 140 -13 196 -5 76
-3 107 6 118 17 20 23 19 51 -11z m549 18 c0 -11 -22 -32 -32 -32 -5 0 -4 9 2
20 11 20 30 28 30 12z m-397 -23 c-4 -13 -9 -17 -15 -11 -11 11 -3 32 12 32 4
0 6 -9 3 -21z m-233 -27 c0 -9 -5 -24 -10 -32 -7 -11 -10 -5 -10 23 0 23 4 36
10 32 6 -3 10 -14 10 -23z m168 -106 c-4 -132 -20 -135 -36 -6 -10 77 -10 105
-1 122 11 21 12 21 26 2 10 -14 13 -45 11 -118z m282 14 c-12 -110 -17 -130
-31 -130 -11 0 -11 4 2 114 15 129 18 141 31 128 7 -7 7 -40 -2 -112z m-612
26 c-2 -31 -7 -57 -13 -59 -12 -2 -19 76 -10 111 11 44 26 9 23 -52z m468 29
c24 -57 15 -187 -10 -146 -21 33 -28 181 -9 181 2 0 11 -16 19 -35z m-62 -24
c10 -11 20 -48 26 -97 5 -43 12 -93 15 -109 4 -17 0 -59 -8 -94 -10 -43 -12
-74 -6 -94 5 -17 8 -32 6 -33 -9 -7 -74 -12 -84 -6 -6 4 -13 30 -14 57 -2 79
10 375 16 385 10 16 30 12 49 -9z m91 -198 c-11 -104 -17 -130 -24 -110 -4 11
-2 51 5 90 14 82 12 77 20 77 3 0 3 -26 -1 -57z m-318 -57 c4 -27 1 -41 -12
-56 -29 -32 -38 -24 -31 28 10 68 16 86 27 75 6 -6 12 -26 16 -47z m453 -14
c0 -51 -12 -82 -25 -63 -8 15 -9 97 0 111 13 21 25 -2 25 -48z m-110 -47 c0
-16 -5 -37 -10 -45 -7 -11 -10 3 -10 45 0 42 3 56 10 45 5 -8 10 -28 10 -45z
m-232 -53 c4 -29 -15 -29 -21 1 -3 21 -4 20 -16 -8 -9 -23 -14 -26 -21 -15
-11 18 17 52 39 48 9 -2 17 -13 19 -26z m-328 10 c0 -5 -9 -17 -20 -27 -16
-14 -20 -15 -20 -4 0 16 19 39 32 39 4 0 8 -4 8 -8z m176 -30 c-22 -22 -26
-23 -20 -7 8 22 35 48 43 40 3 -3 -7 -18 -23 -33z m-26 20 c0 -5 -11 -19 -26
-33 -22 -21 -24 -21 -18 -4 13 36 44 62 44 37z m550 -46 c-1 -19 -2 -19 -15 4
-20 35 -19 62 0 36 8 -11 15 -29 15 -40z m-760 38 c0 -3 -9 -17 -20 -31 -21
-27 -27 -15 -10 18 10 18 30 27 30 13z m660 -29 c0 -38 -15 -37 -18 2 -1 21 2
32 8 28 5 -3 10 -17 10 -30z m43 23 c2 -7 1 -22 -4 -33 -4 -11 -8 -15 -8 -10
-1 6 -4 20 -7 33 -7 23 10 32 19 10z m285 0 c7 -7 12 -21 12 -31 0 -17 -2 -17
-20 6 -11 14 -20 28 -20 31 0 10 15 7 28 -6z m-40 -10 c7 -7 12 -19 12 -27 0
-11 -4 -10 -20 4 -21 19 -26 35 -12 35 4 0 13 -5 20 -12z m-338 -2 c0 -2 3
-11 6 -20 3 -9 1 -16 -4 -16 -6 0 -13 8 -15 18 -4 14 -6 14 -12 -5 -4 -13 -11
-23 -16 -23 -13 0 -11 24 3 38 11 11 38 17 38 8z m200 -36 c0 -5 -4 -10 -10
-10 -5 0 -10 5 -10 10 0 6 5 10 10 10 6 0 10 -4 10 -10z m-800 -10 c0 -5 -4
-10 -10 -10 -5 0 -10 5 -10 10 0 6 5 10 10 10 6 0 10 -4 10 -10z m290 0 c0 -5
-2 -10 -4 -10 -3 0 -8 5 -11 10 -3 6 -1 10 4 10 6 0 11 -4 11 -10z m-330 -20
c0 -5 -4 -10 -10 -10 -5 0 -10 5 -10 10 0 6 5 10 10 10 6 0 10 -4 10 -10z
m124 -11 c-3 -5 -10 -7 -15 -3 -5 3 -7 10 -3 15 3 5 10 7 15 3 5 -3 7 -10 3
-15z m495 1 c33 -15 47 -18 57 -9 10 8 14 8 14 0 0 -6 -5 -11 -11 -11 -6 0 2
-15 17 -32 37 -45 54 -89 54 -143 0 -203 -252 -295 -387 -141 -150 169 49 430
256 336z m-369 0 c0 -5 -4 -10 -10 -10 -5 0 -10 5 -10 10 0 6 5 10 10 10 6 0
10 -4 10 -10z m130 0 c0 -5 -4 -10 -10 -10 -5 0 -10 5 -10 10 0 6 5 10 10 10
6 0 10 -4 10 -10z m445 -10 c3 -5 1 -10 -4 -10 -6 0 -11 5 -11 10 0 6 2 10 4
10 3 0 8 -4 11 -10z m45 0 c0 -5 -4 -10 -10 -10 -5 0 -10 5 -10 10 0 6 5 10
10 10 6 0 10 -4 10 -10z m40 -6 c0 -8 -5 -12 -10 -9 -6 4 -8 11 -5 16 9 14 15
11 15 -7z m85 6 c3 -5 1 -10 -4 -10 -6 0 -11 5 -11 10 0 6 2 10 4 10 3 0 8 -4
11 -10z m-702 -27 c4 -3 -2 -16 -13 -28 -11 -12 -26 -41 -33 -66 -12 -41 -15
-44 -42 -41 -36 5 -65 28 -65 53 0 9 -5 19 -12 21 -12 4 -20 36 -13 56 5 13
166 18 178 5z m-218 -27 c12 -13 28 -45 35 -72 7 -27 17 -51 22 -55 4 -3 36
-5 70 -5 l63 1 5 48 c4 32 14 55 29 70 l24 22 -7 -25 c-4 -14 -12 -45 -17 -70
-10 -49 -15 -57 -44 -62 -38 -6 -29 -43 24 -102 48 -53 61 -76 44 -76 -5 0
-21 16 -36 35 -20 25 -41 38 -73 46 -25 7 -48 18 -51 25 -4 10 -10 11 -24 3
-21 -11 -54 1 -62 23 -2 7 -8 1 -12 -14 -4 -17 -17 -30 -36 -37 -33 -11 -36
-26 -12 -53 15 -17 15 -18 -1 -18 -9 0 -22 12 -28 26 -11 23 -10 29 8 43 18
14 22 33 28 119 5 71 4 102 -4 102 -6 0 -10 -6 -9 -12 3 -26 -1 -39 -11 -33
-14 9 -13 68 2 83 19 19 49 14 73 -12z m679 11 c12 -9 17 -23 14 -47 l-3 -35
-23 42 c-30 57 -27 68 12 40z m181 -9 c32 -14 55 -56 55 -98 0 -40 -22 -39
-41 3 -8 17 -26 38 -41 45 -19 9 -28 21 -28 38 0 27 15 30 55 12z m-104 -10
c18 12 23 12 30 0 15 -23 10 -58 -11 -75 -14 -12 -20 -29 -19 -53 l1 -35 11
33 c10 32 62 80 74 68 3 -3 -1 -34 -10 -68 -8 -35 -18 -85 -22 -113 -9 -66
-14 -85 -26 -85 -5 0 -9 20 -9 43 0 31 -6 49 -20 62 -15 13 -20 31 -20 67 0
27 -7 59 -15 71 -10 15 -12 35 -8 61 4 25 9 33 14 24 7 -11 12 -11 30 0z m269
-119 c0 -71 -4 -108 -10 -104 -17 11 -12 215 6 215 2 0 4 -50 4 -111z m-30 -5
c0 -67 -4 -103 -10 -99 -5 3 -10 -2 -11 -12 -1 -19 -38 112 -39 135 0 7 5 10
10 7 6 -4 10 7 10 27 0 22 3 29 9 20 6 -10 10 -9 14 7 11 45 17 17 17 -85z
m-1070 -18 c-24 -30 -40 -19 -40 26 l0 43 27 -27 c22 -23 24 -29 13 -42z m985
2 c24 -11 29 -23 26 -58 -2 -27 -56 -120 -68 -120 -18 0 -17 5 12 50 30 47 32
65 8 55 -40 -15 -50 -9 -46 28 8 62 17 68 68 45z m-688 -29 c14 -14 6 -39 -12
-39 -12 0 -25 21 -25 41 0 13 24 11 37 -2z m483 -18 c0 -20 8 -35 26 -48 26
-19 26 -20 10 -51 -9 -17 -21 -34 -27 -38 -8 -5 -8 -1 0 14 15 29 14 42 -4 36
-8 -4 -18 -17 -21 -30 -5 -18 -13 -24 -34 -24 -16 0 -36 -3 -46 -7 -12 -4 -3
13 24 52 23 32 44 73 48 91 8 42 24 45 24 5z m-460 -51 c0 -5 -5 -10 -11 -10
-5 0 -7 5 -4 10 3 6 8 10 11 10 2 0 4 -4 4 -10z m-120 -25 c26 -14 30 -21 29
-58 0 -35 -2 -38 -9 -19 -11 25 -28 29 -36 7 -8 -21 -21 -19 -27 5 -6 23 -35
27 -43 5 -8 -19 -24 -20 -24 -2 0 8 -11 19 -25 25 -24 11 -32 31 -18 45 13 13
124 7 153 -8z m728 -15 c-12 -16 -23 -30 -25 -30 -2 0 -3 14 -3 30 0 25 4 30
25 30 l26 0 -23 -30z m82 -30 c-16 -31 -23 -19 -9 16 6 16 13 24 16 17 2 -7
-1 -22 -7 -33z m-645 10 c3 -5 1 -10 -4 -10 -6 0 -11 5 -11 10 0 6 2 10 4 10
3 0 8 -4 11 -10z m550 -50 c3 -5 -1 -10 -10 -10 -9 0 -13 5 -10 10 3 6 8 10
10 10 2 0 7 -4 10 -10z m45 0 c0 -5 -4 -10 -10 -10 -5 0 -10 5 -10 10 0 6 5
10 10 10 6 0 10 -4 10 -10z m-660 -10 c0 -5 -2 -10 -4 -10 -3 0 -8 5 -11 10
-3 6 -1 10 4 10 6 0 11 -4 11 -10z m40 0 c0 -5 -4 -10 -10 -10 -5 0 -10 5 -10
10 0 6 5 10 10 10 6 0 10 -4 10 -10z m40 0 c0 -5 -4 -10 -10 -10 -5 0 -10 5
-10 10 0 6 5 10 10 10 6 0 10 -4 10 -10z m44 -11 c-3 -5 -10 -7 -15 -3 -5 3
-7 10 -3 15 3 5 10 7 15 3 5 -3 7 -10 3 -15z m286 5 c0 -8 -5 -12 -10 -9 -6 4
-8 11 -5 16 9 14 15 11 15 -7z m80 6 c0 -5 -4 -10 -10 -10 -5 0 -10 5 -10 10
0 6 5 10 10 10 6 0 10 -4 10 -10z m40 0 c0 -5 -4 -10 -10 -10 -5 0 -10 5 -10
10 0 6 5 10 10 10 6 0 10 -4 10 -10z m40 0 c0 -5 -2 -10 -4 -10 -3 0 -8 5 -11
10 -3 6 -1 10 4 10 6 0 11 -4 11 -10z m-400 -10 c0 -5 -2 -10 -4 -10 -3 0 -8
5 -11 10 -3 6 -1 10 4 10 6 0 11 -4 11 -10z m40 0 c0 -5 -2 -10 -4 -10 -3 0
-8 5 -11 10 -3 6 -1 10 4 10 6 0 11 -4 11 -10z m45 1 c3 -5 1 -12 -5 -16 -5
-3 -10 1 -10 9 0 18 6 21 15 7z m45 -1 c0 -5 -4 -10 -10 -10 -5 0 -10 5 -10
10 0 6 5 10 10 10 6 0 10 -4 10 -10z m-460 -46 c0 -8 -5 -12 -10 -9 -6 4 -8
11 -5 16 9 14 15 11 15 -7z m130 -4 c0 -5 -4 -10 -10 -10 -5 0 -10 5 -10 10 0
6 5 10 10 10 6 0 10 -4 10 -10z m130 0 c0 -5 -4 -10 -10 -10 -5 0 -10 5 -10
10 0 6 5 10 10 10 6 0 10 -4 10 -10z m40 0 c0 -5 -4 -10 -10 -10 -5 0 -10 5
-10 10 0 6 5 10 10 10 6 0 10 -4 10 -10z m40 0 c0 -5 -4 -10 -10 -10 -5 0 -10
5 -10 10 0 6 5 10 10 10 6 0 10 -4 10 -10z m45 0 c3 -5 1 -10 -4 -10 -6 0 -11
5 -11 10 0 6 2 10 4 10 3 0 8 -4 11 -10z m45 0 c0 -5 -4 -10 -10 -10 -5 0 -10
5 -10 10 0 6 5 10 10 10 6 0 10 -4 10 -10z m90 6 c0 -3 -4 -8 -10 -11 -5 -3
-10 -1 -10 4 0 6 5 11 10 11 6 0 10 -2 10 -4z m40 -6 c0 -5 -4 -10 -10 -10 -5
0 -10 5 -10 10 0 6 5 10 10 10 6 0 10 -4 10 -10z m170 0 c0 -5 -4 -10 -10 -10
-5 0 -10 5 -10 10 0 6 5 10 10 10 6 0 10 -4 10 -10z"/>
<path d="M3580 3524 c-43 -18 -68 -41 -86 -76 -12 -24 -12 -27 0 -22 8 3 31
-4 53 -16 l38 -21 -40 5 c-22 2 -48 7 -57 11 -16 6 -18 1 -18 -46 0 -108 68
-183 176 -195 41 -5 58 -1 102 23 31 16 62 42 75 62 12 19 16 31 9 27 -7 -4
-29 5 -54 23 -47 35 -34 40 30 11 36 -16 42 -17 42 -4 0 8 -4 13 -8 10 -5 -3
-31 3 -58 14 -27 10 -42 19 -34 20 13 0 13 1 0 10 -12 8 -11 10 6 10 12 0 36
3 53 6 24 5 31 3 31 -9 0 -8 -6 -18 -12 -20 -8 -3 -5 -6 6 -6 16 -1 18 5 14
44 -14 117 -152 189 -268 139z m71 -16 c0 -10 2 -10 6 0 2 6 11 12 19 12 15 0
17 -38 4 -80 l-8 -25 -2 25 -2 25 -7 -25 c-7 -23 -9 -21 -24 24 -20 60 -20 56
-2 56 8 0 15 -6 16 -12z m81 6 c7 -6 -19 -74 -34 -89 -9 -9 -4 46 7 83 5 13
18 16 27 6z m-114 -31 c5 -16 13 -37 17 -48 4 -13 -4 -7 -24 15 -33 38 -39 60
-17 60 8 0 19 -12 24 -27z m156 8 c3 -4 -10 -26 -29 -47 l-35 -39 16 40 c9 22
18 43 21 48 6 10 21 9 27 -2z m-186 -28 c37 -54 36 -58 -6 -25 -23 19 -40 38
-36 43 9 16 22 10 42 -18z m2 -48 c11 -13 8 -13 -26 1 -48 19 -58 29 -49 43 7
12 49 -13 75 -44z m218 35 c-2 -6 -23 -22 -48 -37 l-45 -26 34 37 c33 34 67
49 59 26z m27 -39 c8 -13 -5 -19 -56 -26 l-44 -6 35 20 c39 22 56 26 65 12z
m-143 -28 c35 -31 16 -73 -34 -73 -38 0 -55 33 -33 66 18 28 41 31 67 7z
m-142 -24 l-35 -6 40 -2 c48 -2 31 -17 -32 -27 l-41 -6 3 33 c2 19 3 35 4 35
1 1 22 -4 49 -10 l47 -11 -35 -6z m40 -33 c0 -9 -84 -55 -92 -50 -23 14 1 29
90 53 1 1 2 -1 2 -3z m-20 -51 c-33 -34 -60 -45 -60 -26 0 9 77 61 89 61 3 0
-10 -16 -29 -35z m212 8 c27 -18 36 -29 28 -37 -7 -7 -21 1 -47 25 l-36 34 22
-32 c12 -18 26 -35 32 -38 11 -7 3 -25 -11 -25 -13 0 -52 79 -45 90 9 15 15
13 57 -17z m-159 -43 c-2 -46 -14 -67 -32 -56 -7 5 -4 20 10 48 11 22 18 42
15 45 -2 3 -14 -13 -26 -36 -19 -38 -40 -54 -40 -30 0 16 54 79 65 75 6 -2 9
-22 8 -46z m33 -56 c-5 -12 -10 -14 -17 -7 -7 7 -8 28 -3 59 l8 49 9 -42 c5
-23 7 -50 3 -59z m39 -2 c-11 -28 -25 2 -24 51 l1 52 14 -45 c8 -25 12 -51 9
-58z m45 21 c0 -7 -6 -13 -14 -13 -13 0 -27 42 -26 79 1 18 39 -47 40 -66z"/>
<path d="M3644 3365 c-7 -18 3 -35 21 -35 18 0 26 15 19 34 -8 20 -33 21 -40
1z"/>
<path d="M3181 3445 c0 -11 11 -40 24 -65 31 -59 32 -30 1 35 -15 30 -25 42
-25 30z"/>
<path d="M3950 3434 c0 -8 5 -12 10 -9 6 4 8 11 5 16 -9 14 -15 11 -15 -7z"/>
<path d="M1086 4661 c-58 -93 -106 -172 -106 -175 0 -3 15 -6 33 -6 27 0 36 6
55 41 22 38 25 40 45 26 12 -8 33 -19 45 -26 l24 -13 -21 -14 c-27 -19 -27
-41 0 -49 12 -4 70 -4 130 0 98 6 109 9 109 26 0 17 -5 18 -42 12 -78 -13 -91
-10 -99 20 -6 23 -3 29 20 42 16 8 34 28 41 45 7 16 15 30 17 30 3 0 18 -9 34
-21 30 -21 56 -21 89 0 18 12 28 4 -112 91 -65 40 -118 78 -118 84 0 7 6 18
12 24 10 10 10 15 -2 22 -35 22 -49 8 -154 -159z m145 27 c24 -13 39 -29 39
-41 0 -25 -30 -87 -42 -87 -15 0 -99 52 -96 59 9 19 54 91 57 91 2 0 21 -10
42 -22z"/>
<path d="M1595 4629 c-117 -19 -176 -65 -161 -125 21 -80 156 -60 156 23 0 19
-5 23 -31 23 -29 0 -30 -2 -24 -29 7 -35 -7 -47 -29 -25 -36 35 -9 89 50 98
16 3 46 8 67 11 23 4 37 11 37 20 0 8 -3 14 -7 14 -5 -1 -30 -5 -58 -10z"/>
<path d="M3422 2798 c3 -7 14 -14 25 -16 12 -2 29 -12 39 -23 17 -19 14 -19
-204 -19 -141 0 -222 -4 -222 -10 0 -5 9 -10 20 -10 13 0 20 -7 20 -20 0 -11
-7 -20 -15 -20 -8 0 -15 -5 -15 -11 0 -20 54 -99 68 -99 17 0 15 8 -8 37 -27
35 -25 43 9 43 27 0 30 -3 33 -37 2 -20 9 -38 16 -41 9 -3 12 16 12 72 l0 76
55 0 c37 0 55 -4 55 -12 0 -9 -15 -13 -42 -13 -38 0 -43 -3 -46 -24 -4 -24 25
-101 38 -101 16 0 16 13 -1 47 -10 20 -16 40 -13 44 10 17 32 9 48 -16 11 -17
26 -25 46 -25 23 0 30 -5 30 -19 0 -11 4 -22 10 -26 5 -3 10 24 12 67 3 62 6
73 22 76 17 4 18 0 12 -37 -5 -34 -3 -43 11 -48 9 -4 19 -1 21 5 2 7 12 12 22
12 14 0 20 -9 22 -37 2 -20 8 -38 15 -40 9 -3 13 17 15 69 l3 73 39 3 c21 2
43 -1 49 -7 8 -8 3 -11 -15 -11 -41 0 -58 -10 -58 -36 0 -25 42 -60 60 -49 5
3 16 -6 22 -22 12 -26 13 -23 16 45 2 53 7 75 17 79 36 13 9 23 -62 23 -78 0
-78 0 -101 35 -17 27 -29 35 -53 35 -20 0 -29 -4 -27 -12z m-254 -100 c-5 -34
-38 -37 -38 -4 0 20 5 26 21 26 15 0 20 -5 17 -22z m197 -14 c0 -25 -4 -29
-30 -32 -25 -2 -27 -1 -12 8 9 6 17 22 17 36 0 16 5 24 13 22 6 -3 12 -18 12
-34z m135 11 c0 -18 -5 -25 -20 -25 -20 0 -28 28 -13 43 15 16 33 6 33 -18z
m127 -32 c5 -14 -33 -27 -48 -17 -9 5 -6 11 7 21 20 14 36 13 41 -4z"/>
<path d="M4086 2795 c4 -8 16 -15 28 -15 12 0 27 -9 34 -20 12 -20 10 -20
-178 -20 -120 0 -190 -4 -190 -10 0 -6 27 -10 60 -10 33 0 60 -4 60 -10 0 -5
-16 -10 -35 -10 -39 0 -42 -5 -18 -32 9 -10 13 -21 9 -25 -11 -12 -40 12 -47
38 -5 21 -7 22 -14 6 -8 -19 17 -64 41 -74 19 -7 44 15 44 38 0 41 19 16 22
-28 2 -26 9 -48 16 -51 9 -3 12 16 12 72 0 74 1 76 25 76 28 0 35 -27 10 -36
-33 -13 1 -64 43 -64 14 0 22 -7 24 -22 2 -12 8 -23 15 -25 9 -3 13 17 15 69
l3 73 44 3 c24 2 49 -2 54 -7 8 -8 -1 -11 -31 -11 -47 0 -58 -13 -48 -54 7
-29 42 -73 51 -65 3 4 -3 22 -14 40 -23 37 -20 49 14 49 21 0 24 -5 27 -47 2
-26 9 -48 16 -51 9 -3 12 15 12 67 0 54 4 73 15 77 19 8 20 24 1 24 -7 0 -26
16 -40 35 -20 26 -35 35 -56 35 -22 0 -28 -4 -24 -15z m-58 -107 c-2 -26 -8
-34 -28 -37 -24 -3 -24 -2 -7 17 10 11 17 23 16 28 -3 16 1 24 12 24 6 0 9
-14 7 -32z"/>
<path d="M1087 2640 c-92 -20 -170 -39 -173 -43 -3 -3 -3 -20 1 -37 5 -23 11
-29 23 -26 31 10 247 55 249 52 2 -1 -50 -26 -115 -55 -64 -30 -121 -57 -126
-62 -5 -4 -6 -19 -2 -33 l6 -26 137 0 c75 0 134 -3 130 -6 -3 -3 -61 -18 -129
-33 -119 -26 -123 -27 -120 -51 2 -14 7 -29 12 -33 4 -5 84 7 177 27 93 20
172 36 177 36 5 0 5 17 2 38 -14 77 -4 72 -144 72 -69 0 -122 4 -116 8 5 5 32
18 59 30 28 11 75 32 107 46 l56 25 -12 52 c-6 29 -16 53 -21 54 -6 1 -85 -14
-178 -35z"/>
<path d="M6114 2658 c-30 -14 -49 -54 -49 -103 0 -49 22 -80 63 -88 41 -8 70
9 99 58 31 51 50 62 71 41 21 -21 6 -56 -24 -56 -13 0 -24 -6 -24 -12 0 -7 -3
-23 -6 -35 -6 -21 -3 -23 28 -23 51 0 80 36 86 104 4 45 1 57 -17 75 -50 50
-108 40 -150 -29 -20 -32 -38 -50 -50 -50 -38 0 -34 46 6 61 19 7 24 15 21 36
-3 31 -22 38 -54 21z"/>
<path d="M4812 2464 c-28 -20 -30 -86 -3 -130 l19 -32 -241 -6 c-133 -4 -700
-5 -1260 -4 -559 2 -1017 2 -1017 0 0 -2 7 -16 15 -32 12 -23 22 -30 45 -30
l30 0 0 -115 0 -114 120 -72 c108 -64 120 -74 120 -100 0 -18 9 -35 26 -48
l27 -21 -197 0 c-189 0 -196 -1 -196 -20 0 -20 7 -20 1330 -20 1323 0 1330 0
1330 20 0 20 -7 20 -360 20 l-359 0 17 30 c13 23 14 34 6 47 -6 10 -62 50
-124 90 -62 39 -117 77 -121 85 -5 7 -9 59 -9 116 l0 102 50 0 51 0 -3 -82
c-3 -77 -5 -83 -25 -86 -28 -4 -29 -12 -3 -40 25 -27 85 -30 94 -6 3 9 6 60 6
115 l0 99 65 0 65 0 0 -65 c0 -50 -3 -65 -14 -65 -26 0 -28 -19 -7 -54 24 -38
66 -70 81 -61 6 3 10 15 10 26 0 17 7 19 61 19 l61 0 -7 -39 c-6 -35 -4 -41
23 -60 17 -11 33 -21 36 -21 3 0 6 72 6 160 l0 160 130 0 c123 0 130 -1 130
-20 0 -18 -7 -20 -57 -20 -68 0 -79 -6 -88 -42 -14 -53 55 -145 100 -134 11 3
32 8 48 11 20 5 27 3 27 -7 0 -21 -40 -55 -74 -64 -23 -5 -32 -2 -46 16 -12
15 -23 21 -34 17 -23 -9 -18 -77 7 -88 9 -5 25 -13 35 -17 9 -5 28 -29 42 -54
14 -25 31 -43 38 -41 17 7 15 18 -12 61 l-24 38 44 18 c46 19 84 57 84 84 0 9
-10 36 -21 60 l-22 44 -73 -6 c-60 -6 -74 -4 -74 7 0 26 25 36 95 39 l70 3 3
48 c3 46 4 47 38 47 39 0 40 2 17 41 -13 23 -25 29 -50 29 -29 0 -33 4 -44 39
-6 22 -9 47 -6 55 9 23 44 20 52 -5 7 -21 31 -22 29 -1 -1 7 -2 20 -2 30 -3
27 -39 62 -65 62 -12 0 -33 -7 -45 -16z m-2242 -296 c0 -88 -7 -108 -37 -108
l-24 0 21 -30 c18 -25 28 -30 61 -30 l39 0 0 115 0 115 70 0 70 0 0 -65 c0
-58 -2 -65 -20 -65 -32 0 -24 -35 20 -81 33 -35 42 -40 55 -29 8 7 15 19 15
26 0 10 15 14 55 14 l55 0 0 -42 c0 -38 4 -46 35 -66 l35 -22 0 165 0 165 60
0 60 0 0 -101 c0 -55 4 -109 10 -119 5 -10 56 -45 113 -78 114 -67 131 -82
123 -109 -4 -13 4 -25 27 -40 l32 -23 -373 0 c-373 0 -373 0 -362 20 6 12 10
33 8 48 -2 22 -22 38 -113 93 -60 37 -117 77 -127 89 -15 18 -18 41 -18 121
l0 99 55 0 55 0 0 -62z m380 -3 l0 -65 -55 0 -55 0 0 65 0 65 55 0 55 0 0 -65z
m360 -20 c0 -84 0 -85 -25 -85 -23 0 -24 -2 -13 -25 12 -27 41 -39 79 -33 23
3 24 6 27 116 l3 112 84 0 85 0 0 -56 c0 -46 -3 -55 -15 -50 -8 3 -22 9 -30
12 -18 7 -29 -18 -21 -49 5 -22 126 -189 145 -201 5 -3 14 0 20 7 8 10 -1 26
-34 64 -25 28 -45 55 -45 59 0 4 9 18 21 30 21 22 22 22 51 4 21 -13 41 -16
69 -13 l40 6 -6 -49 c-6 -47 -5 -50 23 -66 17 -10 33 -18 36 -18 3 0 6 72 6
160 l0 160 65 0 65 0 0 -110 c0 -127 -14 -108 150 -208 81 -50 95 -61 92 -82
-2 -16 7 -31 25 -47 l28 -22 -392 -1 c-216 0 -393 3 -393 6 0 3 5 14 11 26 22
40 3 63 -98 123 -54 32 -110 69 -125 83 -27 25 -28 29 -28 129 l0 103 50 0 50
0 0 -85z m440 30 c0 -50 -2 -56 -26 -65 -14 -6 -43 -10 -65 -10 l-39 0 0 65 0
65 65 0 65 0 0 -55z m750 -10 l0 -65 -60 0 -60 0 0 65 0 65 60 0 60 0 0 -65z"/>
<path d="M6046 2415 c-23 -23 -36 -59 -36 -96 0 -42 44 -84 110 -103 99 -30
149 -16 176 50 20 48 18 68 -12 103 -32 38 -51 39 -65 5 -8 -22 -6 -29 11 -41
32 -22 23 -57 -15 -61 -52 -4 -57 6 -35 78 11 35 17 66 14 69 -2 3 -33 7 -68
9 -50 3 -66 1 -80 -13z m79 -56 c12 -19 -4 -59 -25 -59 -26 0 -46 36 -29 56
13 16 45 19 54 3z"/>
<path d="M1332 2311 c-26 -7 -26 -9 -17 -51 8 -34 5 -33 39 -20 45 17 24 83
-22 71z"/>
<path d="M1132 2247 l-124 -42 6 -29 c4 -16 8 -32 11 -34 8 -8 257 72 262 84
5 14 -14 64 -24 63 -5 0 -63 -19 -131 -42z"/>
<path d="M5983 2195 c-11 -8 -28 -33 -37 -56 -30 -74 1 -129 72 -129 27 0 43
9 77 45 43 44 67 50 78 20 8 -20 -20 -54 -41 -48 -13 3 -22 -4 -30 -22 -15
-34 -8 -45 28 -45 44 0 59 9 80 51 30 58 26 102 -11 133 -44 38 -72 33 -129
-20 -53 -49 -84 -54 -78 -12 2 16 11 24 30 26 19 2 28 11 33 29 10 41 -30 57
-72 28z"/>
<path d="M1160 2129 c-68 -30 -90 -56 -90 -101 0 -72 38 -118 97 -118 46 0 58
13 44 47 -10 25 -16 28 -46 25 -43 -5 -58 20 -29 49 24 23 128 61 148 53 24
-9 27 -33 6 -51 -23 -20 -25 -42 -7 -67 12 -17 15 -16 45 9 25 21 32 35 32 61
0 42 -23 89 -49 104 -31 16 -102 11 -151 -11z"/>
<path d="M5795 2020 c-20 -38 -20 -39 12 -51 22 -8 30 -7 40 7 20 27 16 50
-12 62 -22 10 -26 9 -40 -18z"/>
<path d="M5885 1980 c-8 -16 -15 -32 -15 -35 0 -3 33 -21 74 -40 41 -19 94
-43 117 -54 24 -12 48 -21 54 -21 15 0 38 51 28 61 -4 4 -61 32 -126 63 l-117
55 -15 -29z"/>
<path d="M1275 1898 c-66 -33 -121 -62 -123 -63 -5 -4 27 -65 33 -65 3 0 42
18 86 40 84 43 110 45 129 9 10 -18 13 -18 40 -4 38 20 38 31 -1 54 -17 10
-25 21 -19 23 10 3 8 12 -4 36 -9 18 -18 32 -19 31 -1 0 -56 -27 -122 -61z"/>
<path d="M5847 1913 c-4 -3 -7 -21 -7 -40 0 -18 -5 -32 -10 -30 -11 2 -47 -49
-40 -56 12 -10 234 -127 241 -127 5 0 15 13 24 29 l15 30 -84 46 c-89 48 -103
64 -85 97 10 18 8 24 -12 39 -26 20 -32 22 -42 12z"/>
<path d="M1364 1750 c-59 -33 -104 -82 -104 -112 0 -29 29 -86 54 -103 30 -21
82 -18 133 7 49 24 113 89 113 113 0 30 -28 82 -55 103 -38 30 -80 27 -141 -8z
m131 -57 c8 -23 -29 -59 -92 -89 -43 -22 -56 -24 -68 -14 -31 26 -6 59 78 104
50 26 71 26 82 -1z"/>
<path d="M5725 1700 c-10 -11 -18 -33 -18 -49 0 -17 -5 -27 -11 -25 -6 2 -19
-9 -29 -25 l-17 -29 156 -102 c124 -82 158 -100 165 -89 31 46 31 48 -11 75
-22 15 -40 30 -40 34 0 4 11 12 24 18 17 7 27 22 31 45 9 47 -14 80 -89 129
-70 45 -130 52 -161 18z m116 -78 c60 -39 76 -59 62 -80 -15 -23 -47 -17 -99
19 -48 33 -60 50 -50 74 8 23 37 18 87 -13z"/>
<path d="M2520 1460 l0 -230 80 0 80 0 0 230 0 230 -80 0 -80 0 0 -230z"/>
<path d="M3900 1460 l0 -230 80 0 80 0 0 230 0 230 -80 0 -80 0 0 -230z"/>
<path d="M2419 1670 c-14 -4 -38 -15 -53 -25 -51 -34 -56 -56 -56 -275 l0
-200 80 0 80 0 0 255 c0 273 2 262 -51 245z"/>
<path d="M2730 1425 l0 -255 73 0 74 0 6 122 c17 298 7 334 -98 375 -58 22
-55 34 -55 -242z"/>
<path d="M3109 1671 c-62 -20 -98 -60 -114 -123 l-7 -28 301 0 301 0 0 75 0
75 -123 0 c-68 0 -171 2 -228 5 -57 3 -116 1 -130 -4z"/>
<path d="M3793 1668 c-17 -6 -47 -23 -65 -38 l-33 -28 -3 -216 -3 -216 80 0
81 0 0 255 c0 198 -3 255 -12 254 -7 -1 -27 -6 -45 -11z"/>
<path d="M4120 1426 l0 -256 75 0 75 0 2 163 c3 229 2 247 -20 276 -22 30 -64
56 -104 66 l-28 7 0 -256z"/>
<path d="M4475 1656 c-47 -21 -95 -85 -95 -127 0 -5 119 -9 295 -9 l295 0 0
75 0 75 -232 0 c-172 -1 -241 -4 -263 -14z"/>
<path d="M5622 1548 c-7 -7 -12 -24 -12 -40 0 -20 -4 -26 -14 -22 -9 3 -22 -5
-32 -21 -20 -31 -29 -20 104 -125 l93 -73 24 23 c14 13 25 26 25 29 0 4 -34
33 -75 65 -78 61 -89 83 -59 117 14 15 13 19 -14 37 -22 16 -32 18 -40 10z"/>
<path d="M1417 1458 c-15 -11 -27 -28 -27 -39 0 -14 -7 -19 -29 -19 -33 0 -49
-16 -33 -32 20 -20 71 -10 117 23 35 25 42 35 35 49 -19 35 -34 39 -63 18z"/>
<path d="M2980 1469 c0 -34 36 -83 74 -100 36 -16 69 -19 289 -19 l247 0 0 26
c0 41 -58 90 -116 98 -83 11 -494 7 -494 -5z"/>
<path d="M4380 1415 l0 -65 220 0 220 0 0 65 0 65 -220 0 -220 0 0 -65z"/>
<path d="M1749 1435 c-14 -7 -33 -29 -44 -48 -18 -34 -18 -36 4 -102 18 -54
21 -72 12 -91 -15 -33 -55 -32 -77 1 -15 24 -15 27 0 44 21 24 20 33 -7 59
l-23 22 -21 -22 c-48 -52 -33 -127 36 -174 54 -36 104 -33 147 10 40 40 42 60
15 146 -22 70 -14 100 25 100 34 0 49 -25 35 -57 -10 -22 -9 -29 10 -49 29
-31 35 -30 54 6 19 37 19 54 -2 97 -30 64 -105 90 -164 58z"/>
<path d="M5454 1346 c-58 -58 -45 -123 40 -196 69 -60 109 -65 160 -20 42 38
53 77 31 119 -18 36 -26 38 -50 11 -15 -16 -16 -24 -7 -45 9 -19 8 -27 -4 -40
-14 -13 -18 -13 -44 0 -41 21 -43 29 -14 56 14 13 35 37 46 52 20 27 20 29 2
49 -52 57 -112 62 -160 14z m82 -40 c19 -14 19 -15 -5 -40 -27 -29 -51 -20
-51 19 0 37 22 46 56 21z"/>
<path d="M2990 1241 l0 -59 73 -7 c39 -4 154 -5 254 -3 166 3 184 5 210 24 28
21 73 80 73 95 0 5 -137 9 -305 9 l-305 0 0 -59z"/>
<path d="M4390 1288 c0 -27 39 -75 73 -91 30 -14 71 -17 271 -17 l236 0 0 60
0 60 -290 0 c-225 0 -290 -3 -290 -12z"/>
<path d="M5263 1260 c-28 -22 -28 -24 -1 -60 17 -23 19 -33 10 -42 -18 -18 16
-53 35 -36 11 9 28 -3 86 -65 40 -42 77 -77 83 -77 15 0 77 42 80 55 2 6 -3
19 -11 29 -12 16 -17 17 -31 5 -15 -12 -23 -6 -75 49 -52 55 -58 65 -48 84 9
16 8 24 -5 36 -12 13 -18 13 -31 2 -13 -11 -20 -9 -43 13 -26 25 -27 25 -49 7z"/>
<path d="M1834 1125 c-43 -53 -81 -100 -83 -106 -4 -12 28 -49 43 -49 6 0 30
24 54 53 63 80 96 109 115 101 30 -11 19 -38 -48 -118 -36 -43 -65 -81 -65
-85 0 -3 13 -15 27 -25 l27 -20 45 54 c98 115 99 116 117 104 10 -6 19 -15 21
-21 2 -6 -28 -49 -67 -96 l-70 -86 31 -21 c16 -12 31 -21 33 -19 1 2 34 42 73
89 40 47 74 97 78 111 9 38 -27 79 -71 79 -29 0 -34 3 -34 23 0 31 -40 67 -74
67 -17 0 -25 4 -21 11 8 12 -22 49 -40 49 -6 0 -47 -43 -91 -95z"/>
<path d="M5175 1085 c-14 -13 -25 -31 -25 -39 0 -9 -6 -13 -12 -11 -7 3 -24
-4 -38 -14 -18 -14 -21 -23 -14 -33 27 -33 158 -203 160 -206 5 -7 53 33 54
43 0 5 -27 44 -60 87 -62 80 -69 98 -46 117 21 18 37 6 101 -79 33 -44 63 -79
66 -80 4 0 18 9 33 21 l26 21 -52 66 c-84 109 -109 132 -140 132 -17 0 -39
-10 -53 -25z"/>
<path d="M4912 1006 c-46 -29 -83 -57 -83 -62 1 -5 44 -77 97 -161 l96 -152
82 51 c104 65 102 62 82 92 l-16 26 -55 -36 c-31 -19 -59 -32 -64 -29 -5 2
-18 20 -29 39 l-21 35 50 31 c27 18 49 34 49 36 0 1 -5 14 -12 28 l-11 26 -55
-32 c-53 -30 -55 -31 -69 -12 -35 46 -34 49 23 83 30 19 54 37 54 41 0 4 -8
17 -17 28 -18 20 -19 20 -101 -32z"/>
<path d="M2202 940 c-27 -26 -27 -26 2 -45 20 -13 28 -14 44 -4 16 10 23 10
36 0 43 -36 3 -64 -62 -45 -62 19 -69 18 -103 -15 -39 -39 -40 -91 -3 -120 15
-12 35 -21 45 -21 10 0 30 -11 45 -25 15 -14 30 -25 34 -25 13 0 130 199 130
222 0 41 -76 98 -129 98 -9 0 -27 -9 -39 -20z m43 -150 c3 -5 -2 -21 -11 -35
-12 -19 -24 -25 -43 -23 -29 3 -40 31 -21 53 14 17 66 20 75 5z"/>
<path d="M2395 778 c-44 -83 -81 -157 -83 -164 -2 -7 10 -20 27 -28 29 -15 31
-15 42 6 7 13 45 85 85 160 41 75 74 141 74 146 0 8 -43 32 -58 32 -4 0 -43
-69 -87 -152z"/>
<path d="M2503 711 l-80 -169 34 -16 34 -16 53 112 c29 62 65 137 80 167 14
30 26 56 26 58 0 3 -57 33 -63 33 -2 0 -39 -76 -84 -169z"/>
<path d="M4653 765 c-17 -7 -34 -22 -37 -32 -5 -15 -14 -18 -45 -15 -32 3 -45
-1 -63 -20 -13 -12 -37 -24 -52 -25 -52 -2 -52 -14 -1 -140 26 -65 51 -122 55
-126 4 -5 21 -2 38 5 l30 13 -39 97 c-38 95 -41 121 -15 131 22 9 33 -6 71
-98 20 -49 40 -94 44 -98 10 -10 61 13 61 27 0 6 -17 52 -37 104 -34 85 -35
94 -21 109 9 9 23 13 30 11 8 -3 31 -50 52 -104 22 -55 40 -100 41 -101 4 -7
65 23 64 32 0 17 -73 191 -89 212 -20 29 -49 35 -87 18z"/>
<path d="M2823 749 c-29 -15 -46 -59 -38 -101 6 -32 4 -36 -25 -48 -17 -7 -40
-24 -50 -38 -22 -27 -27 -91 -10 -123 16 -29 64 -49 118 -49 32 0 52 -5 55
-13 3 -7 21 -18 41 -24 40 -13 45 -4 24 42 -10 22 -8 29 14 53 40 42 51 69 32
76 -27 11 -54 6 -60 -9 -4 -8 -10 -15 -14 -15 -12 0 -35 73 -24 77 60 20 92
68 80 118 -12 46 -95 78 -143 54z m76 -53 c14 -16 5 -43 -19 -56 -22 -12 -30
-4 -30 30 0 41 25 55 49 26z m-65 -193 c13 -37 13 -48 4 -55 -19 -11 -31 -10
-56 8 -26 18 -28 41 -6 72 23 34 41 27 58 -25z"/>
<path d="M4043 673 c-7 -2 -13 -18 -13 -35 0 -30 1 -30 38 -23 20 4 38 8 39 8
1 1 -1 14 -4 30 -5 27 -27 34 -60 20z"/>
<path d="M3185 658 c-4 -14 -44 -352 -42 -354 1 -1 16 -4 34 -7 37 -7 35 -13
54 155 7 59 14 107 15 105 1 -1 7 -49 14 -107 18 -174 17 -170 49 -170 28 0
30 5 74 128 25 70 46 118 46 107 1 -24 -17 -177 -25 -216 -4 -23 -1 -27 27
-33 18 -3 34 -4 37 -1 3 2 15 84 27 182 15 125 18 180 11 185 -6 4 -32 8 -58
8 l-47 0 -38 -116 c-37 -113 -38 -115 -45 -77 -4 21 -10 77 -13 124 l-7 87
-36 6 c-55 9 -72 7 -77 -6z"/>
<path d="M3937 653 c-16 -4 -18 -13 -15 -53 l3 -49 -40 6 c-31 4 -46 0 -65
-15 -23 -19 -25 -26 -25 -109 0 -118 21 -157 84 -161 24 -2 48 1 53 6 6 6 28
7 51 4 l40 -5 -6 89 c-4 49 -12 135 -18 192 -12 107 -13 108 -62 95z m-17
-158 c7 -8 15 -46 18 -84 4 -62 3 -70 -16 -80 -18 -10 -24 -8 -36 11 -8 13
-17 48 -21 79 -6 45 -4 59 10 72 20 21 29 21 45 2z"/>
<path d="M4323 640 c-28 -11 -28 -15 1 -121 25 -91 22 -119 -15 -119 -23 0
-24 2 -54 118 l-23 87 -32 -2 c-17 0 -34 -3 -36 -6 -10 -9 49 -218 68 -242 23
-30 63 -33 98 -8 14 10 40 19 59 20 18 1 36 5 39 8 10 10 -59 275 -72 274 -6
0 -21 -4 -33 -9z"/>
<path d="M4067 583 c-22 -4 -26 -8 -22 -26 3 -12 14 -73 25 -136 11 -63 22
-116 24 -119 3 -2 18 -1 35 3 20 4 31 13 31 23 -2 46 -46 256 -55 257 -5 1
-22 0 -38 -2z"/>
<path d="M3589 535 c-33 -18 -49 -61 -49 -132 0 -59 17 -110 44 -132 10 -9 39
-15 68 -15 43 0 54 4 74 28 13 15 24 38 24 52 0 20 -5 24 -30 24 -23 0 -33 -6
-40 -24 -5 -13 -13 -27 -18 -30 -16 -10 -41 18 -48 52 l-6 32 77 0 77 0 -7 43
c-10 64 -24 93 -51 106 -34 15 -83 13 -115 -4z m92 -67 c8 -33 4 -38 -33 -38
-33 0 -44 19 -28 50 16 30 52 23 61 -12z"/>
</g>
</svg>
