<svg id="visual" viewBox="0 0 2048 400" width="2048" height="400" xmlns="http://www.w3.org/2000/svg" xmlns:xlink="http://www.w3.org/1999/xlink" version="1.1"><g stroke-width="1" stroke-linejoin="bevel"><path d="M1027 167L1129 148L1038 87Z" fill="#297ea6" stroke="#297ea6"></path><path d="M1129 148L1129 62L1038 87Z" fill="#89afc9" stroke="#89afc9"></path><path d="M1129 62L1117 0L1038 87Z" fill="#75a3c0" stroke="#75a3c0"></path><path d="M983 0L913 130L1038 87Z" fill="#297ea6" stroke="#297ea6"></path><path d="M1038 87L913 130L1027 167Z" fill="#297ea6" stroke="#297ea6"></path><path d="M1117 0L983 0L1038 87Z" fill="#89afc9" stroke="#89afc9"></path><path d="M913 130L902 160L1027 167Z" fill="#d8e4ed" stroke="#d8e4ed"></path><path d="M1129 148L1252 85L1129 62Z" fill="#75a3c0" stroke="#75a3c0"></path><path d="M1129 62L1279 0L1117 0Z" fill="#478aaf" stroke="#478aaf"></path><path d="M991 345L1120 329L1027 167Z" fill="#478aaf" stroke="#478aaf"></path><path d="M1027 167L1120 329L1129 148Z" fill="#297ea6" stroke="#297ea6"></path><path d="M1129 148L1326 150L1252 85Z" fill="#297ea6" stroke="#297ea6"></path><path d="M983 0L918 0L913 130Z" fill="#9dbcd2" stroke="#9dbcd2"></path><path d="M913 130L782 198L902 160Z" fill="#ffffff" stroke="#ffffff"></path><path d="M902 160L947 307L1027 167Z" fill="#89afc9" stroke="#89afc9"></path><path d="M947 307L991 345L1027 167Z" fill="#478aaf" stroke="#478aaf"></path><path d="M1120 329L1255 296L1129 148Z" fill="#ebf1f6" stroke="#ebf1f6"></path><path d="M1374 73L1279 0L1252 85Z" fill="#5f96b8" stroke="#5f96b8"></path><path d="M1252 85L1279 0L1129 62Z" fill="#ebf1f6" stroke="#ebf1f6"></path><path d="M1255 296L1326 150L1129 148Z" fill="#9dbcd2" stroke="#9dbcd2"></path><path d="M991 345L1127 400L1120 329Z" fill="#478aaf" stroke="#478aaf"></path><path d="M1120 329L1127 400L1255 296Z" fill="#478aaf" stroke="#478aaf"></path><path d="M947 307L979 400L991 345Z" fill="#478aaf" stroke="#478aaf"></path><path d="M991 345L979 400L1127 400Z" fill="#5f96b8" stroke="#5f96b8"></path><path d="M720 138L782 198L913 130Z" fill="#89afc9" stroke="#89afc9"></path><path d="M902 160L783 255L947 307Z" fill="#ffffff" stroke="#ffffff"></path><path d="M947 307L886 400L979 400Z" fill="#ffffff" stroke="#ffffff"></path><path d="M1326 150L1374 73L1252 85Z" fill="#5f96b8" stroke="#5f96b8"></path><path d="M1389 149L1374 73L1326 150Z" fill="#297ea6" stroke="#297ea6"></path><path d="M782 198L783 255L902 160Z" fill="#478aaf" stroke="#478aaf"></path><path d="M1409 323L1389 149L1326 150Z" fill="#9dbcd2" stroke="#9dbcd2"></path><path d="M1544 0L1370 0L1374 73Z" fill="#c4d6e4" stroke="#c4d6e4"></path><path d="M1374 73L1370 0L1279 0Z" fill="#5f96b8" stroke="#5f96b8"></path><path d="M783 255L886 400L947 307Z" fill="#297ea6" stroke="#297ea6"></path><path d="M1127 400L1273 400L1255 296Z" fill="#c4d6e4" stroke="#c4d6e4"></path><path d="M1255 296L1409 323L1326 150Z" fill="#5f96b8" stroke="#5f96b8"></path><path d="M782 198L673 277L783 255Z" fill="#b1c9db" stroke="#b1c9db"></path><path d="M717 0L720 138L913 130Z" fill="#ebf1f6" stroke="#ebf1f6"></path><path d="M918 0L717 0L913 130Z" fill="#c4d6e4" stroke="#c4d6e4"></path><path d="M1273 400L1409 323L1255 296Z" fill="#89afc9" stroke="#89afc9"></path><path d="M717 0L684 88L720 138Z" fill="#9dbcd2" stroke="#9dbcd2"></path><path d="M673 277L768 400L783 255Z" fill="#b1c9db" stroke="#b1c9db"></path><path d="M783 255L768 400L886 400Z" fill="#89afc9" stroke="#89afc9"></path><path d="M673 277L782 198L640 229Z" fill="#d8e4ed" stroke="#d8e4ed"></path><path d="M1550 270L1495 134L1389 149Z" fill="#297ea6" stroke="#297ea6"></path><path d="M1389 149L1495 134L1374 73Z" fill="#d8e4ed" stroke="#d8e4ed"></path><path d="M640 229L782 198L720 138Z" fill="#9dbcd2" stroke="#9dbcd2"></path><path d="M717 0L656 0L684 88Z" fill="#297ea6" stroke="#297ea6"></path><path d="M684 88L640 229L720 138Z" fill="#b1c9db" stroke="#b1c9db"></path><path d="M506 163L640 229L684 88Z" fill="#ebf1f6" stroke="#ebf1f6"></path><path d="M1273 400L1434 400L1409 323Z" fill="#297ea6" stroke="#297ea6"></path><path d="M1550 270L1550 148L1495 134Z" fill="#89afc9" stroke="#89afc9"></path><path d="M1550 270L1389 149L1409 323Z" fill="#c4d6e4" stroke="#c4d6e4"></path><path d="M1495 134L1544 0L1374 73Z" fill="#5f96b8" stroke="#5f96b8"></path><path d="M1550 148L1544 0L1495 134Z" fill="#d8e4ed" stroke="#d8e4ed"></path><path d="M1546 400L1550 270L1409 323Z" fill="#b1c9db" stroke="#b1c9db"></path><path d="M561 400L673 277L640 229Z" fill="#d8e4ed" stroke="#d8e4ed"></path><path d="M561 400L628 400L673 277Z" fill="#c4d6e4" stroke="#c4d6e4"></path><path d="M673 277L628 400L768 400Z" fill="#5f96b8" stroke="#5f96b8"></path><path d="M1434 400L1546 400L1409 323Z" fill="#ebf1f6" stroke="#ebf1f6"></path><path d="M1685 273L1617 197L1550 270Z" fill="#ebf1f6" stroke="#ebf1f6"></path><path d="M1550 270L1617 197L1550 148Z" fill="#ffffff" stroke="#ffffff"></path><path d="M1702 84L1687 0L1544 0Z" fill="#c4d6e4" stroke="#c4d6e4"></path><path d="M484 67L506 163L684 88Z" fill="#75a3c0" stroke="#75a3c0"></path><path d="M482 297L561 400L640 229Z" fill="#89afc9" stroke="#89afc9"></path><path d="M656 0L484 67L684 88Z" fill="#d8e4ed" stroke="#d8e4ed"></path><path d="M369 331L482 297L336 170Z" fill="#9dbcd2" stroke="#9dbcd2"></path><path d="M506 163L482 297L640 229Z" fill="#75a3c0" stroke="#75a3c0"></path><path d="M656 0L471 0L484 67Z" fill="#ffffff" stroke="#ffffff"></path><path d="M484 67L382 76L506 163Z" fill="#c4d6e4" stroke="#c4d6e4"></path><path d="M1646 400L1685 273L1550 270Z" fill="#9dbcd2" stroke="#9dbcd2"></path><path d="M1702 84L1544 0L1550 148Z" fill="#89afc9" stroke="#89afc9"></path><path d="M1702 84L1550 148L1617 197Z" fill="#ffffff" stroke="#ffffff"></path><path d="M1801 178L1702 84L1617 197Z" fill="#89afc9" stroke="#89afc9"></path><path d="M1546 400L1646 400L1550 270Z" fill="#297ea6" stroke="#297ea6"></path><path d="M471 0L382 76L484 67Z" fill="#297ea6" stroke="#297ea6"></path><path d="M369 331L430 400L482 297Z" fill="#ffffff" stroke="#ffffff"></path><path d="M482 297L430 400L561 400Z" fill="#b1c9db" stroke="#b1c9db"></path><path d="M1742 400L1775 249L1685 273Z" fill="#75a3c0" stroke="#75a3c0"></path><path d="M1685 273L1801 178L1617 197Z" fill="#b1c9db" stroke="#b1c9db"></path><path d="M1702 84L1839 0L1687 0Z" fill="#d8e4ed" stroke="#d8e4ed"></path><path d="M1646 400L1742 400L1685 273Z" fill="#89afc9" stroke="#89afc9"></path><path d="M1839 117L1971 209L1915 55Z" fill="#478aaf" stroke="#478aaf"></path><path d="M1775 249L1801 178L1685 273Z" fill="#75a3c0" stroke="#75a3c0"></path><path d="M336 170L482 297L506 163Z" fill="#ffffff" stroke="#ffffff"></path><path d="M382 76L336 170L506 163Z" fill="#b1c9db" stroke="#b1c9db"></path><path d="M471 0L338 0L382 76Z" fill="#b1c9db" stroke="#b1c9db"></path><path d="M382 76L250 71L336 170Z" fill="#ffffff" stroke="#ffffff"></path><path d="M1839 117L1801 178L1971 209Z" fill="#9dbcd2" stroke="#9dbcd2"></path><path d="M1801 178L1839 117L1702 84Z" fill="#b1c9db" stroke="#b1c9db"></path><path d="M1839 117L1839 0L1702 84Z" fill="#478aaf" stroke="#478aaf"></path><path d="M338 0L250 71L382 76Z" fill="#89afc9" stroke="#89afc9"></path><path d="M336 170L277 280L369 331Z" fill="#297ea6" stroke="#297ea6"></path><path d="M216 239L277 280L336 170Z" fill="#ffffff" stroke="#ffffff"></path><path d="M369 331L299 400L430 400Z" fill="#ffffff" stroke="#ffffff"></path><path d="M1915 55L1874 0L1839 0Z" fill="#d8e4ed" stroke="#d8e4ed"></path><path d="M277 280L299 400L369 331Z" fill="#89afc9" stroke="#89afc9"></path><path d="M276 0L250 71L338 0Z" fill="#75a3c0" stroke="#75a3c0"></path><path d="M1921 326L1801 178L1775 249Z" fill="#c4d6e4" stroke="#c4d6e4"></path><path d="M1839 117L1915 55L1839 0Z" fill="#75a3c0" stroke="#75a3c0"></path><path d="M250 71L216 239L336 170Z" fill="#d8e4ed" stroke="#d8e4ed"></path><path d="M277 280L156 339L299 400Z" fill="#297ea6" stroke="#297ea6"></path><path d="M1742 400L1921 326L1775 249Z" fill="#75a3c0" stroke="#75a3c0"></path><path d="M1742 400L1931 400L1921 326Z" fill="#ffffff" stroke="#ffffff"></path><path d="M1921 326L1971 209L1801 178Z" fill="#b1c9db" stroke="#b1c9db"></path><path d="M2048 162L1971 209L2048 296Z" fill="#478aaf" stroke="#478aaf"></path><path d="M78 211L156 339L216 239Z" fill="#297ea6" stroke="#297ea6"></path><path d="M216 239L156 339L277 280Z" fill="#75a3c0" stroke="#75a3c0"></path><path d="M276 0L123 0L250 71Z" fill="#c4d6e4" stroke="#c4d6e4"></path><path d="M250 71L93 105L216 239Z" fill="#478aaf" stroke="#478aaf"></path><path d="M1971 209L2048 106L1915 55Z" fill="#297ea6" stroke="#297ea6"></path><path d="M1915 55L2048 0L1874 0Z" fill="#478aaf" stroke="#478aaf"></path><path d="M2048 162L2048 106L1971 209Z" fill="#75a3c0" stroke="#75a3c0"></path><path d="M2048 296L1971 209L1921 326Z" fill="#b1c9db" stroke="#b1c9db"></path><path d="M123 0L93 105L250 71Z" fill="#b1c9db" stroke="#b1c9db"></path><path d="M2048 106L2048 0L1915 55Z" fill="#ebf1f6" stroke="#ebf1f6"></path><path d="M2048 400L2048 296L1921 326Z" fill="#75a3c0" stroke="#75a3c0"></path><path d="M0 331L121 400L156 339Z" fill="#5f96b8" stroke="#5f96b8"></path><path d="M156 339L121 400L299 400Z" fill="#478aaf" stroke="#478aaf"></path><path d="M93 105L78 211L216 239Z" fill="#89afc9" stroke="#89afc9"></path><path d="M1931 400L2048 400L1921 326Z" fill="#c4d6e4" stroke="#c4d6e4"></path><path d="M0 0L0 123L93 105Z" fill="#297ea6" stroke="#297ea6"></path><path d="M93 105L0 123L78 211Z" fill="#d8e4ed" stroke="#d8e4ed"></path><path d="M78 211L0 331L156 339Z" fill="#297ea6" stroke="#297ea6"></path><path d="M0 123L0 202L78 211Z" fill="#297ea6" stroke="#297ea6"></path><path d="M123 0L0 0L93 105Z" fill="#297ea6" stroke="#297ea6"></path><path d="M0 202L0 331L78 211Z" fill="#89afc9" stroke="#89afc9"></path><path d="M0 331L0 400L121 400Z" fill="#478aaf" stroke="#478aaf"></path></g></svg>