<svg xmlns="http://www.w3.org/2000/svg" version="1.1" xmlns:xlink="http://www.w3.org/1999/xlink" xmlns:svgjs="http://svgjs.com/svgjs" width="2000" height="600" preserveAspectRatio="none" viewBox="0 0 2000 600"><g mask="url(&quot;#SvgjsMask3101&quot;)" fill="none"><rect width="2000" height="600" x="0" y="0" fill="url(#SvgjsLinearGradient3102)"></rect><path d="M2000 0L1582.41 0L2000 22.2z" fill="rgba(255, 255, 255, .1)"></path><path d="M1582.41 0L2000 22.2L2000 232.22L859.2900000000001 0z" fill="rgba(255, 255, 255, .075)"></path><path d="M859.29 0L2000 232.22L2000 320.42L609.24 0z" fill="rgba(255, 255, 255, .05)"></path><path d="M609.24 0L2000 320.42L2000 393.98L515.12 0z" fill="rgba(255, 255, 255, .025)"></path><path d="M0 600L510.09 600L0 581.05z" fill="rgba(0, 0, 0, .1)"></path><path d="M0 581.05L510.09 600L705.15 600L0 447.76z" fill="rgba(0, 0, 0, .075)"></path><path d="M0 447.76L705.15 600L1182.07 600L0 269.52z" fill="rgba(0, 0, 0, .05)"></path><path d="M0 269.52L1182.07 600L1207.53 600L0 139.96999999999997z" fill="rgba(0, 0, 0, .025)"></path></g><defs><mask id="SvgjsMask3101"><rect width="2000" height="600" fill="#ffffff"></rect></mask><linearGradient x1="17.5%" y1="158.33%" x2="82.5%" y2="-58.33%" gradientUnits="userSpaceOnUse" id="SvgjsLinearGradient3102"><stop stop-color="rgba(24, 59, 184, 1)" offset="0.06"></stop><stop stop-color="rgba(11, 11, 66, 1)" offset="0.96"></stop></linearGradient></defs></svg>