<svg xmlns="http://www.w3.org/2000/svg" version="1.1" xmlns:xlink="http://www.w3.org/1999/xlink" xmlns:svgjs="http://svgjs.com/svgjs" width="2000" height="400" preserveAspectRatio="none" viewBox="0 0 2000 400"><g mask="url(&quot;#SvgjsMask4355&quot;)" fill="none"><rect width="2000" height="400" x="0" y="0" fill="url(#SvgjsLinearGradient4356)"></rect><path d="M2000 0L1195.13 0L2000 125.72z" fill="rgba(255, 255, 255, .1)"></path><path d="M1195.13 0L2000 125.72L2000 194.23000000000002L944.19 0z" fill="rgba(255, 255, 255, .075)"></path><path d="M944.19 0L2000 194.23000000000002L2000 286.04L572.3000000000001 0z" fill="rgba(255, 255, 255, .05)"></path><path d="M572.3000000000002 0L2000 286.04L2000 366.78000000000003L460.00000000000017 0z" fill="rgba(255, 255, 255, .025)"></path><path d="M0 400L860.76 400L0 358.72z" fill="rgba(0, 0, 0, .1)"></path><path d="M0 358.72L860.76 400L1264.8 400L0 267.89000000000004z" fill="rgba(0, 0, 0, .075)"></path><path d="M0 267.89L1264.8 400L1276.69 400L0 255z" fill="rgba(0, 0, 0, .05)"></path><path d="M0 255L1276.69 400L1758.8000000000002 400L0 207.79z" fill="rgba(0, 0, 0, .025)"></path></g><defs><mask id="SvgjsMask4355"><rect width="2000" height="400" fill="#ffffff"></rect></mask><linearGradient x1="20%" y1="200%" x2="80%" y2="-100%" gradientUnits="userSpaceOnUse" id="SvgjsLinearGradient4356"><stop stop-color="rgba(0, 56, 255, 1)" offset="0.06"></stop><stop stop-color="rgba(141, 166, 255, 1)" offset="0.52"></stop><stop stop-color="rgba(228, 236, 243, 1)" offset="0.96"></stop></linearGradient></defs></svg>