<svg id="visual" viewBox="0 0 2048 1000" width="2048" height="1000" xmlns="http://www.w3.org/2000/svg" xmlns:xlink="http://www.w3.org/1999/xlink" version="1.1"><g stroke-width="1" stroke-linejoin="bevel"><path d="M1010.6 547L1024 583L1138.8 548Z" fill="#888277" stroke="#888277"></path><path d="M1024 583L1126.4 591L1138.8 548Z" fill="#7d786f" stroke="#7d786f"></path><path d="M1126.4 591L1137.8 589L1138.8 548Z" fill="#888277" stroke="#888277"></path><path d="M1137.8 589L1168.4 579L1138.8 548Z" fill="#545351" stroke="#545351"></path><path d="M1024 583L1081.4 652L1126.4 591Z" fill="#7d786f" stroke="#7d786f"></path><path d="M1126.4 591L1081.4 652L1137.8 589Z" fill="#595855" stroke="#595855"></path><path d="M1246.8 632L1244.2 601L1168.4 579Z" fill="#6d6a64" stroke="#6d6a64"></path><path d="M1024 583L1065 656L1081.4 652Z" fill="#726f68" stroke="#726f68"></path><path d="M1119 365L1097.4 397L1224.4 379Z" fill="#63615c" stroke="#63615c"></path><path d="M1138.8 548L1097.4 397L1010.6 547Z" fill="#78746c" stroke="#78746c"></path><path d="M1097.4 397L941 469L1010.6 547Z" fill="#726f68" stroke="#726f68"></path><path d="M1010.6 547L847.6 541L1024 583Z" fill="#6d6a64" stroke="#6d6a64"></path><path d="M955 746L1076 744L1065 656Z" fill="#686560" stroke="#686560"></path><path d="M1246.8 632L1168.4 579L1137.8 589Z" fill="#686560" stroke="#686560"></path><path d="M1168.4 579L1256.2 434L1138.8 548Z" fill="#63615c" stroke="#63615c"></path><path d="M1256.2 434L1097.4 397L1138.8 548Z" fill="#686560" stroke="#686560"></path><path d="M902.2 406L898.6 461L941 469Z" fill="#827d73" stroke="#827d73"></path><path d="M941 469L886.2 503L1010.6 547Z" fill="#595855" stroke="#595855"></path><path d="M1081.4 652L1246.8 632L1137.8 589Z" fill="#595855" stroke="#595855"></path><path d="M1261.8 712L1246.8 632L1081.4 652Z" fill="#78746c" stroke="#78746c"></path><path d="M902.2 406L941 469L1097.4 397Z" fill="#545351" stroke="#545351"></path><path d="M941 469L898.6 461L886.2 503Z" fill="#78746c" stroke="#78746c"></path><path d="M955 746L1065 656L1024 583Z" fill="#726f68" stroke="#726f68"></path><path d="M1065 656L1076 744L1081.4 652Z" fill="#545351" stroke="#545351"></path><path d="M1294.2 468L1168.4 579L1244.2 601Z" fill="#888277" stroke="#888277"></path><path d="M1294.2 468L1256.2 434L1168.4 579Z" fill="#78746c" stroke="#78746c"></path><path d="M967.6 267L902.2 406L1097.4 397Z" fill="#63615c" stroke="#63615c"></path><path d="M811.8 526L847.6 541L886.2 503Z" fill="#686560" stroke="#686560"></path><path d="M1256.2 434L1224.4 379L1097.4 397Z" fill="#686560" stroke="#686560"></path><path d="M811.8 526L886.2 503L898.6 461Z" fill="#7d786f" stroke="#7d786f"></path><path d="M886.2 503L847.6 541L1010.6 547Z" fill="#686560" stroke="#686560"></path><path d="M1307.2 597L1294.2 468L1244.2 601Z" fill="#827d73" stroke="#827d73"></path><path d="M1256.2 434L1313.8 319L1224.4 379Z" fill="#5e5c59" stroke="#5e5c59"></path><path d="M865.6 704L955 746L1024 583Z" fill="#7d786f" stroke="#7d786f"></path><path d="M1261.8 712L1307.2 597L1246.8 632Z" fill="#5e5c59" stroke="#5e5c59"></path><path d="M1246.8 632L1307.2 597L1244.2 601Z" fill="#7d786f" stroke="#7d786f"></path><path d="M1076 744L1261.8 712L1081.4 652Z" fill="#827d73" stroke="#827d73"></path><path d="M955 746L1036 801L1076 744Z" fill="#78746c" stroke="#78746c"></path><path d="M1076 744L1059.4 849L1261.8 712Z" fill="#6d6a64" stroke="#6d6a64"></path><path d="M752.2 353L811.8 526L898.6 461Z" fill="#78746c" stroke="#78746c"></path><path d="M847.6 541L865.6 704L1024 583Z" fill="#686560" stroke="#686560"></path><path d="M815.8 615L865.6 704L847.6 541Z" fill="#726f68" stroke="#726f68"></path><path d="M955 746L936.6 838L1036 801Z" fill="#888277" stroke="#888277"></path><path d="M811.8 526L815.8 615L847.6 541Z" fill="#78746c" stroke="#78746c"></path><path d="M1060 142L1028.4 262L1119 365Z" fill="#545351" stroke="#545351"></path><path d="M1119 365L1028.4 262L1097.4 397Z" fill="#5e5c59" stroke="#5e5c59"></path><path d="M815.8 615L815.8 683L865.6 704Z" fill="#595855" stroke="#595855"></path><path d="M865.6 704L872.2 770L955 746Z" fill="#5e5c59" stroke="#5e5c59"></path><path d="M739.2 723L815.8 683L815.8 615Z" fill="#726f68" stroke="#726f68"></path><path d="M1028.4 262L967.6 267L1097.4 397Z" fill="#888277" stroke="#888277"></path><path d="M902.2 406L752.2 353L898.6 461Z" fill="#5e5c59" stroke="#5e5c59"></path><path d="M815.8 683L872.2 770L865.6 704Z" fill="#78746c" stroke="#78746c"></path><path d="M936.6 838L1059.4 849L1036 801Z" fill="#545351" stroke="#545351"></path><path d="M1036 801L1059.4 849L1076 744Z" fill="#686560" stroke="#686560"></path><path d="M1479.6 533L1363.6 420L1294.2 468Z" fill="#6d6a64" stroke="#6d6a64"></path><path d="M1294.2 468L1363.6 420L1256.2 434Z" fill="#888277" stroke="#888277"></path><path d="M1224.4 379L1321.8 232L1119 365Z" fill="#6d6a64" stroke="#6d6a64"></path><path d="M872.2 770L936.6 838L955 746Z" fill="#78746c" stroke="#78746c"></path><path d="M1363.6 420L1313.8 319L1256.2 434Z" fill="#545351" stroke="#545351"></path><path d="M1363.6 420L1346.2 295L1313.8 319Z" fill="#6d6a64" stroke="#6d6a64"></path><path d="M1313.8 319L1321.8 232L1224.4 379Z" fill="#63615c" stroke="#63615c"></path><path d="M1059.4 849L1329.2 812L1261.8 712Z" fill="#686560" stroke="#686560"></path><path d="M1261.8 712L1329.2 812L1307.2 597Z" fill="#63615c" stroke="#63615c"></path><path d="M1307.2 597L1479.6 533L1294.2 468Z" fill="#827d73" stroke="#827d73"></path><path d="M758.2 321L752.2 353L902.2 406Z" fill="#686560" stroke="#686560"></path><path d="M608 565L739.2 723L815.8 615Z" fill="#63615c" stroke="#63615c"></path><path d="M635.4 526L815.8 615L811.8 526Z" fill="#6d6a64" stroke="#6d6a64"></path><path d="M815.8 683L739.2 723L872.2 770Z" fill="#7d786f" stroke="#7d786f"></path><path d="M872.2 770L923.6 893L936.6 838Z" fill="#545351" stroke="#545351"></path><path d="M905.2 934L923.6 893L707.4 894Z" fill="#63615c" stroke="#63615c"></path><path d="M936.6 838L923.6 893L1059.4 849Z" fill="#686560" stroke="#686560"></path><path d="M1286.8 948L1355.2 841L1329.2 812Z" fill="#78746c" stroke="#78746c"></path><path d="M769.2 289L758.2 321L902.2 406Z" fill="#545351" stroke="#545351"></path><path d="M758.2 321L744.8 328L752.2 353Z" fill="#78746c" stroke="#78746c"></path><path d="M752.2 353L635.4 526L811.8 526Z" fill="#5e5c59" stroke="#5e5c59"></path><path d="M1346.2 295L1321.8 232L1313.8 319Z" fill="#63615c" stroke="#63615c"></path><path d="M1028.4 262L947 130L967.6 267Z" fill="#545351" stroke="#545351"></path><path d="M967.6 267L769.2 289L902.2 406Z" fill="#63615c" stroke="#63615c"></path><path d="M758.2 321L730.8 309L744.8 328Z" fill="#827d73" stroke="#827d73"></path><path d="M1260.8 121L1060 142L1119 365Z" fill="#686560" stroke="#686560"></path><path d="M967.6 267L831.6 137L769.2 289Z" fill="#888277" stroke="#888277"></path><path d="M1517.6 635L1477.6 562L1307.2 597Z" fill="#595855" stroke="#595855"></path><path d="M1363.6 420L1446.6 258L1346.2 295Z" fill="#5e5c59" stroke="#5e5c59"></path><path d="M1346.2 295L1352.2 210L1321.8 232Z" fill="#888277" stroke="#888277"></path><path d="M1477.6 562L1479.6 533L1307.2 597Z" fill="#545351" stroke="#545351"></path><path d="M1286.8 948L1329.2 812L1059.4 849Z" fill="#545351" stroke="#545351"></path><path d="M1532 688L1517.6 635L1501 775Z" fill="#63615c" stroke="#63615c"></path><path d="M769.2 289L730.8 309L758.2 321Z" fill="#545351" stroke="#545351"></path><path d="M744.8 328L730.8 309L752.2 353Z" fill="#5e5c59" stroke="#5e5c59"></path><path d="M707.4 894L923.6 893L872.2 770Z" fill="#595855" stroke="#595855"></path><path d="M951.6 1000L1119.4 996L1059.4 849Z" fill="#595855" stroke="#595855"></path><path d="M1060 142L947 130L1028.4 262Z" fill="#545351" stroke="#545351"></path><path d="M769.2 289L707.8 255L730.8 309Z" fill="#5e5c59" stroke="#5e5c59"></path><path d="M1446.6 258L1352.2 210L1346.2 295Z" fill="#78746c" stroke="#78746c"></path><path d="M1321.8 232L1260.8 121L1119 365Z" fill="#686560" stroke="#686560"></path><path d="M586.4 448L635.4 526L752.2 353Z" fill="#63615c" stroke="#63615c"></path><path d="M1517.6 635L1307.2 597L1501 775Z" fill="#595855" stroke="#595855"></path><path d="M1477.6 562L1599.4 587L1479.6 533Z" fill="#545351" stroke="#545351"></path><path d="M951.6 1000L1059.4 849L923.6 893Z" fill="#545351" stroke="#545351"></path><path d="M1119.4 996L1286.8 948L1059.4 849Z" fill="#5e5c59" stroke="#5e5c59"></path><path d="M1501 775L1307.2 597L1329.2 812Z" fill="#545351" stroke="#545351"></path><path d="M951.6 1000L1119.4 1000L1119.4 996Z" fill="#827d73" stroke="#827d73"></path><path d="M1119.4 996L1120 1000L1286.8 948Z" fill="#7d786f" stroke="#7d786f"></path><path d="M1119.4 1000L1120 1000L1119.4 996Z" fill="#6d6a64" stroke="#6d6a64"></path><path d="M1352.2 210L1260.8 121L1321.8 232Z" fill="#63615c" stroke="#63615c"></path><path d="M949.6 0L877.6 41L947 130Z" fill="#545351" stroke="#545351"></path><path d="M777.8 162L707.8 255L769.2 289Z" fill="#5e5c59" stroke="#5e5c59"></path><path d="M597.4 360L586.4 448L752.2 353Z" fill="#7d786f" stroke="#7d786f"></path><path d="M586.4 448L608 565L635.4 526Z" fill="#686560" stroke="#686560"></path><path d="M635.4 526L608 565L815.8 615Z" fill="#6d6a64" stroke="#6d6a64"></path><path d="M831.2 1000L951.6 1000L905.2 934Z" fill="#595855" stroke="#595855"></path><path d="M1538.4 439L1363.6 420L1479.6 533Z" fill="#78746c" stroke="#78746c"></path><path d="M1530 286L1446.6 258L1363.6 420Z" fill="#78746c" stroke="#78746c"></path><path d="M1352.2 210L1409.6 137L1260.8 121Z" fill="#63615c" stroke="#63615c"></path><path d="M694.8 849L872.2 770L739.2 723Z" fill="#595855" stroke="#595855"></path><path d="M905.2 934L951.6 1000L923.6 893Z" fill="#63615c" stroke="#63615c"></path><path d="M947 130L831.6 137L967.6 267Z" fill="#686560" stroke="#686560"></path><path d="M1609 487L1538.4 439L1479.6 533Z" fill="#7d786f" stroke="#7d786f"></path><path d="M1501 775L1329.2 812L1355.2 841Z" fill="#78746c" stroke="#78746c"></path><path d="M1517.6 635L1599.4 587L1477.6 562Z" fill="#78746c" stroke="#78746c"></path><path d="M831.6 137L777.8 162L769.2 289Z" fill="#7d786f" stroke="#7d786f"></path><path d="M1441.6 887L1501 775L1355.2 841Z" fill="#545351" stroke="#545351"></path><path d="M542.4 741L694.8 849L739.2 723Z" fill="#78746c" stroke="#78746c"></path><path d="M608 565L596 637L739.2 723Z" fill="#63615c" stroke="#63615c"></path><path d="M597.4 360L752.2 353L730.8 309Z" fill="#686560" stroke="#686560"></path><path d="M608 565L519.4 645L596 637Z" fill="#726f68" stroke="#726f68"></path><path d="M1368.2 1000L1441.6 887L1355.2 841Z" fill="#888277" stroke="#888277"></path><path d="M624.8 887L707.4 894L694.8 849Z" fill="#888277" stroke="#888277"></path><path d="M694.8 849L707.4 894L872.2 770Z" fill="#63615c" stroke="#63615c"></path><path d="M565.4 348L597.4 360L633.4 218Z" fill="#686560" stroke="#686560"></path><path d="M707.8 255L597.4 360L730.8 309Z" fill="#7d786f" stroke="#7d786f"></path><path d="M1120 1000L1307.8 1000L1286.8 948Z" fill="#726f68" stroke="#726f68"></path><path d="M1286.8 948L1368.2 1000L1355.2 841Z" fill="#6d6a64" stroke="#6d6a64"></path><path d="M707.4 894L831.2 1000L905.2 934Z" fill="#63615c" stroke="#63615c"></path><path d="M1538.4 439L1530 286L1363.6 420Z" fill="#888277" stroke="#888277"></path><path d="M1446.6 258L1409.6 137L1352.2 210Z" fill="#5e5c59" stroke="#5e5c59"></path><path d="M831.6 137L756.2 125L777.8 162Z" fill="#686560" stroke="#686560"></path><path d="M777.8 162L756.2 125L707.8 255Z" fill="#63615c" stroke="#63615c"></path><path d="M803.2 0L756.2 125L831.6 137Z" fill="#5e5c59" stroke="#5e5c59"></path><path d="M877.6 41L831.6 137L947 130Z" fill="#545351" stroke="#545351"></path><path d="M1579 734L1599.4 587L1532 688Z" fill="#726f68" stroke="#726f68"></path><path d="M1532 688L1599.4 587L1517.6 635Z" fill="#63615c" stroke="#63615c"></path><path d="M1538.4 439L1586 313L1530 286Z" fill="#63615c" stroke="#63615c"></path><path d="M1570.4 144L1409.6 137L1446.6 258Z" fill="#888277" stroke="#888277"></path><path d="M1599.4 587L1609 487L1479.6 533Z" fill="#888277" stroke="#888277"></path><path d="M1657.8 899L1579 734L1501 775Z" fill="#6d6a64" stroke="#6d6a64"></path><path d="M1501 775L1579 734L1532 688Z" fill="#888277" stroke="#888277"></path><path d="M1046 0L947 130L1060 142Z" fill="#6d6a64" stroke="#6d6a64"></path><path d="M1048.4 1L1060 142L1057.4 0Z" fill="#5e5c59" stroke="#5e5c59"></path><path d="M1609 487L1608 454L1538.4 439Z" fill="#78746c" stroke="#78746c"></path><path d="M1307.8 1000L1368.2 1000L1286.8 948Z" fill="#78746c" stroke="#78746c"></path><path d="M1441.6 887L1460.6 933L1501 775Z" fill="#686560" stroke="#686560"></path><path d="M1057.4 0L1060 142L1176.8 3Z" fill="#545351" stroke="#545351"></path><path d="M1176.8 3L1060 142L1260.8 121Z" fill="#726f68" stroke="#726f68"></path><path d="M1057.4 0L1046 0L1048.4 1Z" fill="#686560" stroke="#686560"></path><path d="M1048.4 1L1046 0L1060 142Z" fill="#888277" stroke="#888277"></path><path d="M633.4 218L597.4 360L707.8 255Z" fill="#888277" stroke="#888277"></path><path d="M597.4 360L565.4 348L586.4 448Z" fill="#726f68" stroke="#726f68"></path><path d="M451.6 533L519.4 645L608 565Z" fill="#78746c" stroke="#78746c"></path><path d="M1368.2 1000L1460.6 933L1441.6 887Z" fill="#827d73" stroke="#827d73"></path><path d="M756.2 125L633.4 218L707.8 255Z" fill="#686560" stroke="#686560"></path><path d="M1224.8 0L1176.8 3L1260.8 121Z" fill="#6d6a64" stroke="#6d6a64"></path><path d="M1046 0L949.6 0L947 130Z" fill="#595855" stroke="#595855"></path><path d="M1608 454L1586 313L1538.4 439Z" fill="#6d6a64" stroke="#6d6a64"></path><path d="M1570.4 144L1428.2 58L1409.6 137Z" fill="#63615c" stroke="#63615c"></path><path d="M1609 487L1633.4 467L1608 454Z" fill="#888277" stroke="#888277"></path><path d="M1608 454L1633.4 467L1586 313Z" fill="#595855" stroke="#595855"></path><path d="M1686.8 580L1633.4 467L1609 487Z" fill="#78746c" stroke="#78746c"></path><path d="M1686.8 580L1609 487L1599.4 587Z" fill="#827d73" stroke="#827d73"></path><path d="M1295.2 0L1224.8 0L1260.8 121Z" fill="#686560" stroke="#686560"></path><path d="M1176.8 3L1224.8 0L1057.4 0Z" fill="#545351" stroke="#545351"></path><path d="M506 440L608 565L586.4 448Z" fill="#78746c" stroke="#78746c"></path><path d="M542.4 741L624.8 887L694.8 849Z" fill="#63615c" stroke="#63615c"></path><path d="M542.4 741L739.2 723L596 637Z" fill="#827d73" stroke="#827d73"></path><path d="M707.4 894L651.8 1000L831.2 1000Z" fill="#7d786f" stroke="#7d786f"></path><path d="M507.6 696L542.4 741L596 637Z" fill="#726f68" stroke="#726f68"></path><path d="M1428.2 58L1334.6 32L1409.6 137Z" fill="#78746c" stroke="#78746c"></path><path d="M1409.6 137L1334.6 32L1260.8 121Z" fill="#888277" stroke="#888277"></path><path d="M465.6 342L506 440L565.4 348Z" fill="#888277" stroke="#888277"></path><path d="M565.4 348L506 440L586.4 448Z" fill="#63615c" stroke="#63615c"></path><path d="M1334.6 32L1295.2 0L1260.8 121Z" fill="#78746c" stroke="#78746c"></path><path d="M437 688L507.6 696L519.4 645Z" fill="#827d73" stroke="#827d73"></path><path d="M519.4 645L507.6 696L596 637Z" fill="#78746c" stroke="#78746c"></path><path d="M542.4 741L542 901L624.8 887Z" fill="#63615c" stroke="#63615c"></path><path d="M1570.4 144L1446.6 258L1530 286Z" fill="#888277" stroke="#888277"></path><path d="M1334.6 32L1410.6 0L1295.2 0Z" fill="#888277" stroke="#888277"></path><path d="M437 688L502.6 727L507.6 696Z" fill="#6d6a64" stroke="#6d6a64"></path><path d="M507.6 696L502.6 727L542.4 741Z" fill="#7d786f" stroke="#7d786f"></path><path d="M1467.6 1000L1488 980L1460.6 933Z" fill="#595855" stroke="#595855"></path><path d="M1460.6 933L1657.8 899L1501 775Z" fill="#78746c" stroke="#78746c"></path><path d="M1368.2 1000L1467.6 1000L1460.6 933Z" fill="#595855" stroke="#595855"></path><path d="M877.6 41L803.2 0L831.6 137Z" fill="#686560" stroke="#686560"></path><path d="M756.2 125L684.4 36L633.4 218Z" fill="#595855" stroke="#595855"></path><path d="M949.6 0L803.2 0L877.6 41Z" fill="#5e5c59" stroke="#5e5c59"></path><path d="M1684.4 609L1599.4 587L1579 734Z" fill="#888277" stroke="#888277"></path><path d="M1684.4 609L1686.8 580L1599.4 587Z" fill="#545351" stroke="#545351"></path><path d="M1645.4 225L1530 286L1586 313Z" fill="#78746c" stroke="#78746c"></path><path d="M1730.4 743L1684.4 609L1579 734Z" fill="#63615c" stroke="#63615c"></path><path d="M1467.6 1000L1495 1000L1488 980Z" fill="#545351" stroke="#545351"></path><path d="M1488 980L1562.4 1000L1460.6 933Z" fill="#827d73" stroke="#827d73"></path><path d="M624.8 887L651.8 1000L707.4 894Z" fill="#726f68" stroke="#726f68"></path><path d="M579.4 1000L651.8 1000L624.8 887Z" fill="#827d73" stroke="#827d73"></path><path d="M370.6 465L451.6 533L506 440Z" fill="#827d73" stroke="#827d73"></path><path d="M506 440L451.6 533L608 565Z" fill="#686560" stroke="#686560"></path><path d="M523 168L487 307L633.4 218Z" fill="#595855" stroke="#595855"></path><path d="M633.4 218L487 307L565.4 348Z" fill="#888277" stroke="#888277"></path><path d="M1645.4 225L1586 313L1787.8 354Z" fill="#5e5c59" stroke="#5e5c59"></path><path d="M1645.4 225L1570.4 144L1530 286Z" fill="#888277" stroke="#888277"></path><path d="M1502 0L1410.6 0L1428.2 58Z" fill="#78746c" stroke="#78746c"></path><path d="M1428.2 58L1410.6 0L1334.6 32Z" fill="#686560" stroke="#686560"></path><path d="M712.4 0L684.4 36L756.2 125Z" fill="#726f68" stroke="#726f68"></path><path d="M449.6 770L542.4 741L502.6 727Z" fill="#6d6a64" stroke="#6d6a64"></path><path d="M449.6 770L542 901L542.4 741Z" fill="#78746c" stroke="#78746c"></path><path d="M487 307L465.6 342L565.4 348Z" fill="#827d73" stroke="#827d73"></path><path d="M803.2 0L712.4 0L756.2 125Z" fill="#888277" stroke="#888277"></path><path d="M1787.8 354L1586 313L1633.4 467Z" fill="#726f68" stroke="#726f68"></path><path d="M310.2 580L437 688L451.6 533Z" fill="#595855" stroke="#595855"></path><path d="M451.6 533L437 688L519.4 645Z" fill="#545351" stroke="#545351"></path><path d="M1686.8 166L1646.4 219L1746.2 223Z" fill="#726f68" stroke="#726f68"></path><path d="M1645.4 225L1627 164L1570.4 144Z" fill="#888277" stroke="#888277"></path><path d="M437 688L449.6 770L502.6 727Z" fill="#827d73" stroke="#827d73"></path><path d="M684.4 36L523 168L633.4 218Z" fill="#63615c" stroke="#63615c"></path><path d="M317.2 220L310.2 345L465.6 342Z" fill="#78746c" stroke="#78746c"></path><path d="M605 0L523 168L684.4 36Z" fill="#726f68" stroke="#726f68"></path><path d="M1495 1000L1562.4 1000L1488 980Z" fill="#6d6a64" stroke="#6d6a64"></path><path d="M1646.4 219L1627 164L1645.4 225Z" fill="#888277" stroke="#888277"></path><path d="M1570.4 144L1502 0L1428.2 58Z" fill="#888277" stroke="#888277"></path><path d="M712.4 0L680.8 0L684.4 36Z" fill="#726f68" stroke="#726f68"></path><path d="M477 1000L579.4 1000L542 901Z" fill="#545351" stroke="#545351"></path><path d="M542 901L579.4 1000L624.8 887Z" fill="#726f68" stroke="#726f68"></path><path d="M437 688L437 768L449.6 770Z" fill="#827d73" stroke="#827d73"></path><path d="M449.6 770L438.6 854L542 901Z" fill="#545351" stroke="#545351"></path><path d="M1562.4 1000L1657.8 899L1460.6 933Z" fill="#5e5c59" stroke="#5e5c59"></path><path d="M1684.4 609L1790.8 511L1686.8 580Z" fill="#7d786f" stroke="#7d786f"></path><path d="M1686.8 580L1790.8 511L1633.4 467Z" fill="#6d6a64" stroke="#6d6a64"></path><path d="M1657.8 899L1730.4 743L1579 734Z" fill="#827d73" stroke="#827d73"></path><path d="M449.6 111L483.6 194L523 168Z" fill="#545351" stroke="#545351"></path><path d="M523 168L483.6 194L487 307Z" fill="#78746c" stroke="#78746c"></path><path d="M1660.4 0L1502 0L1570.4 144Z" fill="#7d786f" stroke="#7d786f"></path><path d="M437 768L438.6 854L449.6 770Z" fill="#5e5c59" stroke="#5e5c59"></path><path d="M310.2 345L370.6 465L465.6 342Z" fill="#888277" stroke="#888277"></path><path d="M465.6 342L370.6 465L506 440Z" fill="#7d786f" stroke="#7d786f"></path><path d="M269.2 780L356.2 840L437 768Z" fill="#726f68" stroke="#726f68"></path><path d="M437 768L356.2 840L438.6 854Z" fill="#6d6a64" stroke="#6d6a64"></path><path d="M1791.8 714L1790.8 511L1684.4 609Z" fill="#686560" stroke="#686560"></path><path d="M1646.4 219L1686.8 166L1627 164Z" fill="#888277" stroke="#888277"></path><path d="M680.8 0L605 0L684.4 36Z" fill="#63615c" stroke="#63615c"></path><path d="M1746.2 223L1646.4 219L1645.4 225Z" fill="#888277" stroke="#888277"></path><path d="M1627 164L1660.4 0L1570.4 144Z" fill="#726f68" stroke="#726f68"></path><path d="M1562.4 1000L1644.8 1000L1657.8 899Z" fill="#545351" stroke="#545351"></path><path d="M1858.2 853L1791.8 714L1730.4 743Z" fill="#726f68" stroke="#726f68"></path><path d="M1723.4 905L1730.4 743L1657.8 899Z" fill="#686560" stroke="#686560"></path><path d="M1730.4 743L1791.8 714L1684.4 609Z" fill="#545351" stroke="#545351"></path><path d="M1822.2 431L1787.8 354L1633.4 467Z" fill="#827d73" stroke="#827d73"></path><path d="M1644.8 1000L1723.4 905L1657.8 899Z" fill="#827d73" stroke="#827d73"></path><path d="M1787.8 354L1746.2 223L1645.4 225Z" fill="#827d73" stroke="#827d73"></path><path d="M438.6 854L477 1000L542 901Z" fill="#63615c" stroke="#63615c"></path><path d="M1790.8 511L1822.2 431L1633.4 467Z" fill="#63615c" stroke="#63615c"></path><path d="M1787.8 354L1850.2 269L1746.2 223Z" fill="#6d6a64" stroke="#6d6a64"></path><path d="M1868.2 413L1822.2 431L1890.6 546Z" fill="#545351" stroke="#545351"></path><path d="M605 0L449.6 111L523 168Z" fill="#888277" stroke="#888277"></path><path d="M317.2 220L465.6 342L487 307Z" fill="#5e5c59" stroke="#5e5c59"></path><path d="M265.2 539L310.2 580L370.6 465Z" fill="#545351" stroke="#545351"></path><path d="M370.6 465L310.2 580L451.6 533Z" fill="#888277" stroke="#888277"></path><path d="M438.6 854L394.6 1000L477 1000Z" fill="#6d6a64" stroke="#6d6a64"></path><path d="M269.2 780L437 768L437 688Z" fill="#7d786f" stroke="#7d786f"></path><path d="M1868.2 413L1836.8 376L1822.2 431Z" fill="#888277" stroke="#888277"></path><path d="M1822.2 431L1836.8 376L1787.8 354Z" fill="#827d73" stroke="#827d73"></path><path d="M317.2 220L487 307L483.6 194Z" fill="#545351" stroke="#545351"></path><path d="M1644.8 1000L1774.8 928L1723.4 905Z" fill="#5e5c59" stroke="#5e5c59"></path><path d="M1723.4 905L1858.2 853L1730.4 743Z" fill="#7d786f" stroke="#7d786f"></path><path d="M1890.6 546L1822.2 431L1790.8 511Z" fill="#595855" stroke="#595855"></path><path d="M1785.2 155L1686.8 166L1746.2 223Z" fill="#888277" stroke="#888277"></path><path d="M1765.8 118L1660.4 0L1686.8 166Z" fill="#888277" stroke="#888277"></path><path d="M1686.8 166L1660.4 0L1627 164Z" fill="#7d786f" stroke="#7d786f"></path><path d="M1890.6 546L1790.8 511L1791.8 714Z" fill="#545351" stroke="#545351"></path><path d="M1850.2 269L1785.2 155L1746.2 223Z" fill="#888277" stroke="#888277"></path><path d="M254.2 390L265.2 539L370.6 465Z" fill="#5e5c59" stroke="#5e5c59"></path><path d="M310.2 580L269.2 780L437 688Z" fill="#545351" stroke="#545351"></path><path d="M1850.2 269L1787.8 354L1836.8 376Z" fill="#545351" stroke="#545351"></path><path d="M1785.2 155L1765.8 118L1686.8 166Z" fill="#63615c" stroke="#63615c"></path><path d="M1929.2 754L1890.6 546L1791.8 714Z" fill="#6d6a64" stroke="#6d6a64"></path><path d="M320.2 1000L394.6 1000L356.2 840Z" fill="#888277" stroke="#888277"></path><path d="M356.2 840L394.6 1000L438.6 854Z" fill="#686560" stroke="#686560"></path><path d="M1976.6 328L1850.2 269L1836.8 376Z" fill="#827d73" stroke="#827d73"></path><path d="M1785.2 155L1949.6 9L1765.8 118Z" fill="#888277" stroke="#888277"></path><path d="M1890.6 203L1850.2 269L1976.6 328Z" fill="#63615c" stroke="#63615c"></path><path d="M449.6 111L317.2 220L483.6 194Z" fill="#63615c" stroke="#63615c"></path><path d="M310.2 345L254.2 390L370.6 465Z" fill="#6d6a64" stroke="#6d6a64"></path><path d="M436 3L394.2 63L449.6 111Z" fill="#5e5c59" stroke="#5e5c59"></path><path d="M449.6 111L394.2 63L317.2 220Z" fill="#545351" stroke="#545351"></path><path d="M209.8 289L254.2 390L310.2 345Z" fill="#595855" stroke="#595855"></path><path d="M605 0L436 3L449.6 111Z" fill="#686560" stroke="#686560"></path><path d="M605 0L435.6 0L436 3Z" fill="#6d6a64" stroke="#6d6a64"></path><path d="M436 3L391.2 0L394.2 63Z" fill="#63615c" stroke="#63615c"></path><path d="M239.8 851L269.2 780L208.2 759Z" fill="#726f68" stroke="#726f68"></path><path d="M196.4 687L269.2 780L310.2 580Z" fill="#545351" stroke="#545351"></path><path d="M1774.8 928L1858.2 853L1723.4 905Z" fill="#63615c" stroke="#63615c"></path><path d="M2020.6 619L1931.2 520L1890.6 546Z" fill="#726f68" stroke="#726f68"></path><path d="M1890.6 546L1931.2 520L1868.2 413Z" fill="#827d73" stroke="#827d73"></path><path d="M290.8 6L317.2 220L394.2 63Z" fill="#63615c" stroke="#63615c"></path><path d="M290.8 6L265.8 217L317.2 220Z" fill="#888277" stroke="#888277"></path><path d="M317.2 220L265.8 217L310.2 345Z" fill="#6d6a64" stroke="#6d6a64"></path><path d="M435.6 0L391.2 0L436 3Z" fill="#63615c" stroke="#63615c"></path><path d="M1858.2 853L1929.2 754L1791.8 714Z" fill="#63615c" stroke="#63615c"></path><path d="M239.8 851L320.2 1000L356.2 840Z" fill="#63615c" stroke="#63615c"></path><path d="M1774.8 928L1834.2 995L1858.2 853Z" fill="#827d73" stroke="#827d73"></path><path d="M1858.2 853L1986.6 836L1929.2 754Z" fill="#7d786f" stroke="#7d786f"></path><path d="M1644.8 1000L1834.2 995L1774.8 928Z" fill="#545351" stroke="#545351"></path><path d="M1969.6 374L1836.8 376L1868.2 413Z" fill="#78746c" stroke="#78746c"></path><path d="M1850.2 269L1890.6 203L1785.2 155Z" fill="#888277" stroke="#888277"></path><path d="M1765.8 118L1773.8 0L1660.4 0Z" fill="#726f68" stroke="#726f68"></path><path d="M1788.2 0L1773.8 0L1765.8 118Z" fill="#827d73" stroke="#827d73"></path><path d="M1644.8 1000L1836.2 1000L1834.2 995Z" fill="#827d73" stroke="#827d73"></path><path d="M2019.6 869L1986.6 836L1858.2 853Z" fill="#827d73" stroke="#827d73"></path><path d="M269.2 780L239.8 851L356.2 840Z" fill="#726f68" stroke="#726f68"></path><path d="M196.4 687L310.2 580L159.4 643Z" fill="#5e5c59" stroke="#5e5c59"></path><path d="M182.4 489L265.2 539L254.2 390Z" fill="#5e5c59" stroke="#5e5c59"></path><path d="M159.4 643L310.2 580L265.2 539Z" fill="#726f68" stroke="#726f68"></path><path d="M196.4 687L208.2 759L269.2 780Z" fill="#827d73" stroke="#827d73"></path><path d="M106.8 390L182.4 489L254.2 390Z" fill="#5e5c59" stroke="#5e5c59"></path><path d="M1949.6 9L1788.2 0L1765.8 118Z" fill="#888277" stroke="#888277"></path><path d="M265.8 217L209.8 289L310.2 345Z" fill="#7d786f" stroke="#7d786f"></path><path d="M178.4 236L209.8 289L265.8 217Z" fill="#63615c" stroke="#63615c"></path><path d="M2048 499L1969.6 374L1931.2 520Z" fill="#6d6a64" stroke="#6d6a64"></path><path d="M1931.2 520L1969.6 374L1868.2 413Z" fill="#5e5c59" stroke="#5e5c59"></path><path d="M138.8 568L159.4 643L265.2 539Z" fill="#78746c" stroke="#78746c"></path><path d="M196.4 687L130.8 759L208.2 759Z" fill="#726f68" stroke="#726f68"></path><path d="M208.2 759L184.8 870L239.8 851Z" fill="#686560" stroke="#686560"></path><path d="M138.8 568L265.2 539L182.4 489Z" fill="#726f68" stroke="#726f68"></path><path d="M2048 398L1976.6 328L1969.6 374Z" fill="#63615c" stroke="#63615c"></path><path d="M1969.6 374L1976.6 328L1836.8 376Z" fill="#5e5c59" stroke="#5e5c59"></path><path d="M1890.6 203L1949.6 9L1785.2 155Z" fill="#726f68" stroke="#726f68"></path><path d="M0 446L138.8 568L182.4 489Z" fill="#595855" stroke="#595855"></path><path d="M2048 790L2007.6 665L1929.2 754Z" fill="#7d786f" stroke="#7d786f"></path><path d="M1929.2 754L2007.6 665L1890.6 546Z" fill="#827d73" stroke="#827d73"></path><path d="M0 561L131.8 588L138.8 568Z" fill="#888277" stroke="#888277"></path><path d="M138.8 568L131.8 588L159.4 643Z" fill="#78746c" stroke="#78746c"></path><path d="M130.8 759L184.8 870L208.2 759Z" fill="#827d73" stroke="#827d73"></path><path d="M135.4 199L178.4 236L265.8 217Z" fill="#888277" stroke="#888277"></path><path d="M209.8 289L132.4 339L254.2 390Z" fill="#686560" stroke="#686560"></path><path d="M130.8 759L196.4 687L159.4 643Z" fill="#78746c" stroke="#78746c"></path><path d="M239.8 851L211.8 1000L320.2 1000Z" fill="#595855" stroke="#595855"></path><path d="M2007.6 665L2020.6 619L1890.6 546Z" fill="#63615c" stroke="#63615c"></path><path d="M391.2 0L290.8 6L394.2 63Z" fill="#686560" stroke="#686560"></path><path d="M2019.6 869L1858.2 853L2024.6 1000Z" fill="#686560" stroke="#686560"></path><path d="M2007.6 665L2048 649L2020.6 619Z" fill="#726f68" stroke="#726f68"></path><path d="M178.4 236L132.4 339L209.8 289Z" fill="#5e5c59" stroke="#5e5c59"></path><path d="M130.8 759L159.4 643L0 703Z" fill="#686560" stroke="#686560"></path><path d="M66.4 795L130.8 759L0 703Z" fill="#686560" stroke="#686560"></path><path d="M2020.6 619L2048 518L1931.2 520Z" fill="#7d786f" stroke="#7d786f"></path><path d="M2048 649L2048 518L2020.6 619Z" fill="#6d6a64" stroke="#6d6a64"></path><path d="M2048 518L2048 499L1931.2 520Z" fill="#545351" stroke="#545351"></path><path d="M58.4 949L211.8 1000L184.8 870Z" fill="#545351" stroke="#545351"></path><path d="M184.8 870L211.8 1000L239.8 851Z" fill="#595855" stroke="#595855"></path><path d="M2048 790L2048 649L2007.6 665Z" fill="#7d786f" stroke="#7d786f"></path><path d="M43.4 340L106.8 390L132.4 339Z" fill="#888277" stroke="#888277"></path><path d="M132.4 339L106.8 390L254.2 390Z" fill="#686560" stroke="#686560"></path><path d="M2048 499L2048 398L1969.6 374Z" fill="#78746c" stroke="#78746c"></path><path d="M1976.6 328L2048 293L1890.6 203Z" fill="#63615c" stroke="#63615c"></path><path d="M290.8 6L248.8 0L265.8 217Z" fill="#888277" stroke="#888277"></path><path d="M178.4 236L135.4 199L132.4 339Z" fill="#545351" stroke="#545351"></path><path d="M391.2 0L248.8 0L290.8 6Z" fill="#827d73" stroke="#827d73"></path><path d="M2048 931L2019.6 869L2024.6 1000Z" fill="#6d6a64" stroke="#6d6a64"></path><path d="M1986.6 836L2048 790L1929.2 754Z" fill="#827d73" stroke="#827d73"></path><path d="M199.4 0L135.4 199L265.8 217Z" fill="#827d73" stroke="#827d73"></path><path d="M2048 398L2048 301L1976.6 328Z" fill="#888277" stroke="#888277"></path><path d="M2019.6 869L2048 790L1986.6 836Z" fill="#827d73" stroke="#827d73"></path><path d="M2048 301L2048 293L1976.6 328Z" fill="#5e5c59" stroke="#5e5c59"></path><path d="M2048 34L1949.6 9L1890.6 203Z" fill="#888277" stroke="#888277"></path><path d="M248.8 0L199.4 0L265.8 217Z" fill="#888277" stroke="#888277"></path><path d="M0 703L159.4 643L131.8 588Z" fill="#7d786f" stroke="#7d786f"></path><path d="M130.8 759L66.4 795L184.8 870Z" fill="#78746c" stroke="#78746c"></path><path d="M2024.6 1000L1858.2 853L1834.2 995Z" fill="#78746c" stroke="#78746c"></path><path d="M2019.6 869L2048 931L2048 790Z" fill="#7d786f" stroke="#7d786f"></path><path d="M135.4 199L43.4 340L132.4 339Z" fill="#6d6a64" stroke="#6d6a64"></path><path d="M0 446L0 549L138.8 568Z" fill="#63615c" stroke="#63615c"></path><path d="M0 225L43.4 340L135.4 199Z" fill="#726f68" stroke="#726f68"></path><path d="M1836.2 1000L2024.6 1000L1834.2 995Z" fill="#7d786f" stroke="#7d786f"></path><path d="M0 446L182.4 489L106.8 390Z" fill="#545351" stroke="#545351"></path><path d="M0 549L0 561L138.8 568Z" fill="#7d786f" stroke="#7d786f"></path><path d="M2024.6 1000L2048 1000L2048 931Z" fill="#6d6a64" stroke="#6d6a64"></path><path d="M43.4 340L0 446L106.8 390Z" fill="#6d6a64" stroke="#6d6a64"></path><path d="M0 561L0 703L131.8 588Z" fill="#827d73" stroke="#827d73"></path><path d="M66.4 795L58.4 949L184.8 870Z" fill="#7d786f" stroke="#7d786f"></path><path d="M0 917L58.4 949L66.4 795Z" fill="#888277" stroke="#888277"></path><path d="M2048 293L2048 34L1890.6 203Z" fill="#888277" stroke="#888277"></path><path d="M0 703L0 788L66.4 795Z" fill="#7d786f" stroke="#7d786f"></path><path d="M2048 34L2034.6 0L1949.6 9Z" fill="#78746c" stroke="#78746c"></path><path d="M1949.6 9L2034.6 0L1788.2 0Z" fill="#5e5c59" stroke="#5e5c59"></path><path d="M2048 34L2048 0L2034.6 0Z" fill="#5e5c59" stroke="#5e5c59"></path><path d="M0 194L0 225L135.4 199Z" fill="#726f68" stroke="#726f68"></path><path d="M43.4 340L0 225L0 446Z" fill="#63615c" stroke="#63615c"></path><path d="M0 1000L50.4 1000L58.4 949Z" fill="#63615c" stroke="#63615c"></path><path d="M58.4 949L50.4 1000L211.8 1000Z" fill="#686560" stroke="#686560"></path><path d="M0 156L0 194L135.4 199Z" fill="#595855" stroke="#595855"></path><path d="M0 788L0 917L66.4 795Z" fill="#78746c" stroke="#78746c"></path><path d="M0 0L0 156L135.4 199Z" fill="#63615c" stroke="#63615c"></path><path d="M0 917L0 1000L58.4 949Z" fill="#888277" stroke="#888277"></path><path d="M199.4 0L0 0L135.4 199Z" fill="#63615c" stroke="#63615c"></path></g></svg>