<svg id="visual" viewBox="0 0 2048 600" width="2048" height="600" xmlns="http://www.w3.org/2000/svg" xmlns:xlink="http://www.w3.org/1999/xlink" version="1.1"><path d="M0 49L18 56C36 63 72 77 108 80C144 83 180 75 215.8 71C251.7 67 287.3 67 323.2 65C359 63 395 59 431 59C467 59 503 63 539 69C575 75 611 83 647 79C683 75 719 59 754.8 57C790.7 55 826.3 67 862.2 68C898 69 934 59 970 54C1006 49 1042 49 1078 56C1114 63 1150 77 1185.8 82C1221.7 87 1257.3 83 1293.2 83C1329 83 1365 87 1401 82C1437 77 1473 63 1509 56C1545 49 1581 49 1617 55C1653 61 1689 73 1724.8 80C1760.7 87 1796.3 89 1832.2 86C1868 83 1904 75 1940 69C1976 63 2012 59 2030 57L2048 55L2048 0L2030 0C2012 0 1976 0 1940 0C1904 0 1868 0 1832.2 0C1796.3 0 1760.7 0 1724.8 0C1689 0 1653 0 1617 0C1581 0 1545 0 1509 0C1473 0 1437 0 1401 0C1365 0 1329 0 1293.2 0C1257.3 0 1221.7 0 1185.8 0C1150 0 1114 0 1078 0C1042 0 1006 0 970 0C934 0 898 0 862.2 0C826.3 0 790.7 0 754.8 0C719 0 683 0 647 0C611 0 575 0 539 0C503 0 467 0 431 0C395 0 359 0 323.2 0C287.3 0 251.7 0 215.8 0C180 0 144 0 108 0C72 0 36 0 18 0L0 0Z" fill="#6198ff"></path><path d="M0 103L18 106C36 109 72 115 108 116C144 117 180 113 215.8 112C251.7 111 287.3 113 323.2 112C359 111 395 107 431 106C467 105 503 107 539 111C575 115 611 121 647 117C683 113 719 99 754.8 99C790.7 99 826.3 113 862.2 117C898 121 934 115 970 110C1006 105 1042 101 1078 106C1114 111 1150 125 1185.8 129C1221.7 133 1257.3 127 1293.2 126C1329 125 1365 129 1401 125C1437 121 1473 109 1509 103C1545 97 1581 97 1617 102C1653 107 1689 117 1724.8 122C1760.7 127 1796.3 127 1832.2 127C1868 127 1904 127 1940 121C1976 115 2012 103 2030 97L2048 91L2048 53L2030 55C2012 57 1976 61 1940 67C1904 73 1868 81 1832.2 84C1796.3 87 1760.7 85 1724.8 78C1689 71 1653 59 1617 53C1581 47 1545 47 1509 54C1473 61 1437 75 1401 80C1365 85 1329 81 1293.2 81C1257.3 81 1221.7 85 1185.8 80C1150 75 1114 61 1078 54C1042 47 1006 47 970 52C934 57 898 67 862.2 66C826.3 65 790.7 53 754.8 55C719 57 683 73 647 77C611 81 575 73 539 67C503 61 467 57 431 57C395 57 359 61 323.2 63C287.3 65 251.7 65 215.8 69C180 73 144 81 108 78C72 75 36 61 18 54L0 47Z" fill="#548fff"></path><path d="M0 127L18 133C36 139 72 151 108 155C144 159 180 155 215.8 151C251.7 147 287.3 143 323.2 142C359 141 395 143 431 144C467 145 503 145 539 148C575 151 611 157 647 154C683 151 719 139 754.8 137C790.7 135 826.3 143 862.2 144C898 145 934 139 970 137C1006 135 1042 137 1078 142C1114 147 1150 155 1185.8 156C1221.7 157 1257.3 151 1293.2 152C1329 153 1365 161 1401 157C1437 153 1473 137 1509 131C1545 125 1581 129 1617 134C1653 139 1689 145 1724.8 151C1760.7 157 1796.3 163 1832.2 163C1868 163 1904 157 1940 151C1976 145 2012 139 2030 136L2048 133L2048 89L2030 95C2012 101 1976 113 1940 119C1904 125 1868 125 1832.2 125C1796.3 125 1760.7 125 1724.8 120C1689 115 1653 105 1617 100C1581 95 1545 95 1509 101C1473 107 1437 119 1401 123C1365 127 1329 123 1293.2 124C1257.3 125 1221.7 131 1185.8 127C1150 123 1114 109 1078 104C1042 99 1006 103 970 108C934 113 898 119 862.2 115C826.3 111 790.7 97 754.8 97C719 97 683 111 647 115C611 119 575 113 539 109C503 105 467 103 431 104C395 105 359 109 323.2 110C287.3 111 251.7 109 215.8 110C180 111 144 115 108 114C72 113 36 107 18 104L0 101Z" fill="#4686ff"></path><path d="M0 151L18 156C36 161 72 171 108 175C144 179 180 177 215.8 173C251.7 169 287.3 163 323.2 162C359 161 395 165 431 167C467 169 503 169 539 171C575 173 611 177 647 174C683 171 719 161 754.8 160C790.7 159 826.3 167 862.2 168C898 169 934 163 970 160C1006 157 1042 157 1078 162C1114 167 1150 177 1185.8 178C1221.7 179 1257.3 171 1293.2 171C1329 171 1365 179 1401 176C1437 173 1473 159 1509 154C1545 149 1581 153 1617 158C1653 163 1689 169 1724.8 174C1760.7 179 1796.3 183 1832.2 182C1868 181 1904 175 1940 169C1976 163 2012 157 2030 154L2048 151L2048 131L2030 134C2012 137 1976 143 1940 149C1904 155 1868 161 1832.2 161C1796.3 161 1760.7 155 1724.8 149C1689 143 1653 137 1617 132C1581 127 1545 123 1509 129C1473 135 1437 151 1401 155C1365 159 1329 151 1293.2 150C1257.3 149 1221.7 155 1185.8 154C1150 153 1114 145 1078 140C1042 135 1006 133 970 135C934 137 898 143 862.2 142C826.3 141 790.7 133 754.8 135C719 137 683 149 647 152C611 155 575 149 539 146C503 143 467 143 431 142C395 141 359 139 323.2 140C287.3 141 251.7 145 215.8 149C180 153 144 157 108 153C72 149 36 137 18 131L0 125Z" fill="#387dff"></path><path d="M0 247L18 253C36 259 72 271 108 279C144 287 180 291 215.8 289C251.7 287 287.3 279 323.2 277C359 275 395 279 431 277C467 275 503 267 539 264C575 261 611 263 647 261C683 259 719 253 754.8 262C790.7 271 826.3 295 862.2 301C898 307 934 295 970 283C1006 271 1042 259 1078 265C1114 271 1150 295 1185.8 299C1221.7 303 1257.3 287 1293.2 280C1329 273 1365 275 1401 274C1437 273 1473 269 1509 267C1545 265 1581 265 1617 267C1653 269 1689 273 1724.8 272C1760.7 271 1796.3 265 1832.2 266C1868 267 1904 275 1940 276C1976 277 2012 271 2030 268L2048 265L2048 149L2030 152C2012 155 1976 161 1940 167C1904 173 1868 179 1832.2 180C1796.3 181 1760.7 177 1724.8 172C1689 167 1653 161 1617 156C1581 151 1545 147 1509 152C1473 157 1437 171 1401 174C1365 177 1329 169 1293.2 169C1257.3 169 1221.7 177 1185.8 176C1150 175 1114 165 1078 160C1042 155 1006 155 970 158C934 161 898 167 862.2 166C826.3 165 790.7 157 754.8 158C719 159 683 169 647 172C611 175 575 171 539 169C503 167 467 167 431 165C395 163 359 159 323.2 160C287.3 161 251.7 167 215.8 171C180 175 144 177 108 173C72 169 36 159 18 154L0 149Z" fill="#2874ff"></path><path d="M0 271L18 277C36 283 72 295 108 302C144 309 180 311 215.8 310C251.7 309 287.3 305 323.2 304C359 303 395 305 431 303C467 301 503 295 539 293C575 291 611 293 647 291C683 289 719 283 754.8 290C790.7 297 826.3 317 862.2 322C898 327 934 317 970 305C1006 293 1042 279 1078 284C1114 289 1150 313 1185.8 317C1221.7 321 1257.3 305 1293.2 298C1329 291 1365 293 1401 294C1437 295 1473 295 1509 294C1545 293 1581 291 1617 293C1653 295 1689 301 1724.8 301C1760.7 301 1796.3 295 1832.2 295C1868 295 1904 301 1940 302C1976 303 2012 299 2030 297L2048 295L2048 263L2030 266C2012 269 1976 275 1940 274C1904 273 1868 265 1832.2 264C1796.3 263 1760.7 269 1724.8 270C1689 271 1653 267 1617 265C1581 263 1545 263 1509 265C1473 267 1437 271 1401 272C1365 273 1329 271 1293.2 278C1257.3 285 1221.7 301 1185.8 297C1150 293 1114 269 1078 263C1042 257 1006 269 970 281C934 293 898 305 862.2 299C826.3 293 790.7 269 754.8 260C719 251 683 257 647 259C611 261 575 259 539 262C503 265 467 273 431 275C395 277 359 273 323.2 275C287.3 277 251.7 285 215.8 287C180 289 144 285 108 277C72 269 36 257 18 251L0 245Z" fill="#126bff"></path><path d="M0 403L18 407C36 411 72 419 108 425C144 431 180 435 215.8 437C251.7 439 287.3 439 323.2 437C359 435 395 431 431 428C467 425 503 423 539 422C575 421 611 421 647 419C683 417 719 413 754.8 414C790.7 415 826.3 421 862.2 426C898 431 934 435 970 435C1006 435 1042 431 1078 430C1114 429 1150 431 1185.8 427C1221.7 423 1257.3 413 1293.2 412C1329 411 1365 419 1401 423C1437 427 1473 427 1509 422C1545 417 1581 407 1617 405C1653 403 1689 409 1724.8 416C1760.7 423 1796.3 431 1832.2 433C1868 435 1904 431 1940 430C1976 429 2012 431 2030 432L2048 433L2048 293L2030 295C2012 297 1976 301 1940 300C1904 299 1868 293 1832.2 293C1796.3 293 1760.7 299 1724.8 299C1689 299 1653 293 1617 291C1581 289 1545 291 1509 292C1473 293 1437 293 1401 292C1365 291 1329 289 1293.2 296C1257.3 303 1221.7 319 1185.8 315C1150 311 1114 287 1078 282C1042 277 1006 291 970 303C934 315 898 325 862.2 320C826.3 315 790.7 295 754.8 288C719 281 683 287 647 289C611 291 575 289 539 291C503 293 467 299 431 301C395 303 359 301 323.2 302C287.3 303 251.7 307 215.8 308C180 309 144 307 108 300C72 293 36 281 18 275L0 269Z" fill="#0064f9"></path><path d="M0 451L18 455C36 459 72 467 108 473C144 479 180 483 215.8 482C251.7 481 287.3 475 323.2 471C359 467 395 465 431 464C467 463 503 463 539 463C575 463 611 463 647 462C683 461 719 459 754.8 458C790.7 457 826.3 457 862.2 459C898 461 934 465 970 467C1006 469 1042 469 1078 470C1114 471 1150 473 1185.8 469C1221.7 465 1257.3 455 1293.2 454C1329 453 1365 461 1401 464C1437 467 1473 465 1509 461C1545 457 1581 451 1617 450C1653 449 1689 453 1724.8 460C1760.7 467 1796.3 477 1832.2 478C1868 479 1904 471 1940 468C1976 465 2012 467 2030 468L2048 469L2048 431L2030 430C2012 429 1976 427 1940 428C1904 429 1868 433 1832.2 431C1796.3 429 1760.7 421 1724.8 414C1689 407 1653 401 1617 403C1581 405 1545 415 1509 420C1473 425 1437 425 1401 421C1365 417 1329 409 1293.2 410C1257.3 411 1221.7 421 1185.8 425C1150 429 1114 427 1078 428C1042 429 1006 433 970 433C934 433 898 429 862.2 424C826.3 419 790.7 413 754.8 412C719 411 683 415 647 417C611 419 575 419 539 420C503 421 467 423 431 426C395 429 359 433 323.2 435C287.3 437 251.7 437 215.8 435C180 433 144 429 108 423C72 417 36 409 18 405L0 401Z" fill="#005fec"></path><path d="M0 475L18 478C36 481 72 487 108 492C144 497 180 501 215.8 500C251.7 499 287.3 493 323.2 490C359 487 395 487 431 488C467 489 503 491 539 492C575 493 611 493 647 492C683 491 719 489 754.8 486C790.7 483 826.3 479 862.2 479C898 479 934 483 970 486C1006 489 1042 491 1078 493C1114 495 1150 497 1185.8 494C1221.7 491 1257.3 483 1293.2 481C1329 479 1365 483 1401 485C1437 487 1473 487 1509 484C1545 481 1581 475 1617 473C1653 471 1689 473 1724.8 479C1760.7 485 1796.3 495 1832.2 498C1868 501 1904 497 1940 495C1976 493 2012 493 2030 493L2048 493L2048 467L2030 466C2012 465 1976 463 1940 466C1904 469 1868 477 1832.2 476C1796.3 475 1760.7 465 1724.8 458C1689 451 1653 447 1617 448C1581 449 1545 455 1509 459C1473 463 1437 465 1401 462C1365 459 1329 451 1293.2 452C1257.3 453 1221.7 463 1185.8 467C1150 471 1114 469 1078 468C1042 467 1006 467 970 465C934 463 898 459 862.2 457C826.3 455 790.7 455 754.8 456C719 457 683 459 647 460C611 461 575 461 539 461C503 461 467 461 431 462C395 463 359 465 323.2 469C287.3 473 251.7 479 215.8 480C180 481 144 477 108 471C72 465 36 457 18 453L0 449Z" fill="#005ae0"></path><path d="M0 529L18 530C36 531 72 533 108 535C144 537 180 539 215.8 541C251.7 543 287.3 545 323.2 544C359 543 395 539 431 540C467 541 503 547 539 549C575 551 611 549 647 549C683 549 719 551 754.8 550C790.7 549 826.3 545 862.2 542C898 539 934 537 970 537C1006 537 1042 539 1078 540C1114 541 1150 541 1185.8 539C1221.7 537 1257.3 533 1293.2 536C1329 539 1365 549 1401 552C1437 555 1473 551 1509 546C1545 541 1581 535 1617 534C1653 533 1689 537 1724.8 540C1760.7 543 1796.3 545 1832.2 547C1868 549 1904 551 1940 552C1976 553 2012 553 2030 553L2048 553L2048 491L2030 491C2012 491 1976 491 1940 493C1904 495 1868 499 1832.2 496C1796.3 493 1760.7 483 1724.8 477C1689 471 1653 469 1617 471C1581 473 1545 479 1509 482C1473 485 1437 485 1401 483C1365 481 1329 477 1293.2 479C1257.3 481 1221.7 489 1185.8 492C1150 495 1114 493 1078 491C1042 489 1006 487 970 484C934 481 898 477 862.2 477C826.3 477 790.7 481 754.8 484C719 487 683 489 647 490C611 491 575 491 539 490C503 489 467 487 431 486C395 485 359 485 323.2 488C287.3 491 251.7 497 215.8 498C180 499 144 495 108 490C72 485 36 479 18 476L0 473Z" fill="#0055d3"></path><path d="M0 565L18 566C36 567 72 569 108 570C144 571 180 571 215.8 572C251.7 573 287.3 575 323.2 575C359 575 395 573 431 572C467 571 503 571 539 571C575 571 611 571 647 571C683 571 719 571 754.8 572C790.7 573 826.3 575 862.2 574C898 573 934 569 970 569C1006 569 1042 573 1078 574C1114 575 1150 573 1185.8 571C1221.7 569 1257.3 567 1293.2 568C1329 569 1365 573 1401 574C1437 575 1473 573 1509 571C1545 569 1581 567 1617 566C1653 565 1689 565 1724.8 565C1760.7 565 1796.3 565 1832.2 566C1868 567 1904 569 1940 571C1976 573 2012 575 2030 576L2048 577L2048 551L2030 551C2012 551 1976 551 1940 550C1904 549 1868 547 1832.2 545C1796.3 543 1760.7 541 1724.8 538C1689 535 1653 531 1617 532C1581 533 1545 539 1509 544C1473 549 1437 553 1401 550C1365 547 1329 537 1293.2 534C1257.3 531 1221.7 535 1185.8 537C1150 539 1114 539 1078 538C1042 537 1006 535 970 535C934 535 898 537 862.2 540C826.3 543 790.7 547 754.8 548C719 549 683 547 647 547C611 547 575 549 539 547C503 545 467 539 431 538C395 537 359 541 323.2 542C287.3 543 251.7 541 215.8 539C180 537 144 535 108 533C72 531 36 529 18 528L0 527Z" fill="#0051c7"></path><path d="M0 601L18 601C36 601 72 601 108 601C144 601 180 601 215.8 601C251.7 601 287.3 601 323.2 601C359 601 395 601 431 601C467 601 503 601 539 601C575 601 611 601 647 601C683 601 719 601 754.8 601C790.7 601 826.3 601 862.2 601C898 601 934 601 970 601C1006 601 1042 601 1078 601C1114 601 1150 601 1185.8 601C1221.7 601 1257.3 601 1293.2 601C1329 601 1365 601 1401 601C1437 601 1473 601 1509 601C1545 601 1581 601 1617 601C1653 601 1689 601 1724.8 601C1760.7 601 1796.3 601 1832.2 601C1868 601 1904 601 1940 601C1976 601 2012 601 2030 601L2048 601L2048 575L2030 574C2012 573 1976 571 1940 569C1904 567 1868 565 1832.2 564C1796.3 563 1760.7 563 1724.8 563C1689 563 1653 563 1617 564C1581 565 1545 567 1509 569C1473 571 1437 573 1401 572C1365 571 1329 567 1293.2 566C1257.3 565 1221.7 567 1185.8 569C1150 571 1114 573 1078 572C1042 571 1006 567 970 567C934 567 898 571 862.2 572C826.3 573 790.7 571 754.8 570C719 569 683 569 647 569C611 569 575 569 539 569C503 569 467 569 431 570C395 571 359 573 323.2 573C287.3 573 251.7 571 215.8 570C180 569 144 569 108 568C72 567 36 565 18 564L0 563Z" fill="#004cbb"></path></svg>